<svg width="28" height="26" viewBox="0 0 28 26" fill="none" xmlns="http://www.w3.org/2000/svg">
<path fill-rule="evenodd" clip-rule="evenodd" d="M26.5235 17.9077L25.8605 16.8528C25.4931 17.2002 25.0435 17.3987 24.605 17.3987C24.4037 17.3987 24.2975 17.3742 23.8591 17.2625C23.4211 17.138 23.1129 17.1008 22.7698 17.1008C21.2182 17.1008 20.2118 17.9449 20.2118 19.2482C20.2118 20.1913 20.6382 20.7748 21.5146 21.0106C21.1593 21.0975 20.7684 21.2838 20.5908 21.4949C20.4605 21.6438 20.4015 21.842 20.4015 22.0777C20.4015 22.2769 20.4489 22.4504 20.5197 22.5993C20.6024 22.7359 20.7209 22.8476 20.8633 22.9094C21.1471 23.0212 21.6091 23.0956 22.3196 23.1083C22.6869 23.1083 22.9119 23.1207 22.9948 23.1207C23.433 23.1455 23.6578 23.2196 23.8238 23.3068C23.9894 23.4062 24.1079 23.6296 24.1079 23.8776C24.1079 24.126 23.954 24.3742 23.729 24.5232C23.5159 24.6721 23.1723 24.7343 22.7223 24.7343C21.988 24.7343 21.5854 24.4611 21.5854 23.9521C21.5854 23.7286 21.6091 23.6789 21.6565 23.5425H20.1881C20.129 23.6664 20.0463 23.8402 20.0463 24.188C20.0463 24.6225 20.2118 24.9947 20.5434 25.3175C21.0884 25.8513 21.9765 26 22.8409 26C23.788 26 24.7002 25.7769 25.2328 25.1807C25.5642 24.8084 25.7182 24.3989 25.7182 23.8653C25.7182 23.2944 25.5526 22.8599 25.1974 22.5125C24.7706 22.1026 24.2856 21.9536 23.3619 21.9414L22.509 21.9291C22.3434 21.9291 22.2489 21.8673 22.2489 21.7802C22.2489 21.6063 22.4734 21.4573 22.8762 21.2589C22.9948 21.2712 23.0421 21.2712 23.1129 21.2712C24.4037 21.2712 25.3512 20.4769 25.3512 19.3848C25.3512 18.9626 25.2328 18.6402 24.9957 18.3423C25.1974 18.3669 25.2564 18.3795 25.4104 18.3795C25.8484 18.3795 26.1799 18.2428 26.5235 17.9077ZM27.5 11.7476C27.5 11.0339 27.058 10.3726 26.3064 9.82938C26.3742 10.0475 26.4123 10.2692 26.4123 10.4953C26.4123 12.5392 23.5463 14.2879 19.4832 15.012C19.9427 15.0636 20.4195 15.0918 20.9097 15.0918C24.5495 15.0918 27.5 13.5945 27.5 11.7476ZM25.1578 10.6359C25.1578 12.5974 20.7517 14.1873 15.3164 14.1873C9.88131 14.1873 5.47552 12.5974 5.47552 10.6359C5.47552 10.0181 5.9127 9.43743 6.68141 8.93172C6.56257 9.14859 6.49955 9.37296 6.49955 9.60288C6.49955 11.4148 10.3748 12.8836 15.1556 12.8836C19.9364 12.8836 23.8121 11.4148 23.8121 9.60288C23.8121 9.26026 23.6724 8.92944 23.415 8.61855C24.5128 9.19172 25.1578 9.88658 25.1578 10.6359ZM6.56283 7.49627C4.57761 7.97926 3.22911 8.92515 3.22911 10.0129C3.22911 10.6862 3.74635 11.3045 4.61004 11.793C4.35063 11.3796 4.20943 10.9448 4.20943 10.4953C4.20943 9.36397 5.08944 8.32344 6.56283 7.49627ZM25.976 4.30725C25.7934 4.08842 25.5433 4.08912 25.346 4.26708C25.1554 4.51857 25.15 4.69754 25.2852 4.83649C25.4295 4.98507 25.7286 5.11308 25.944 4.94287C26.1594 4.77195 26.1586 4.526 25.976 4.30725ZM23.4753 5.12269C24.0914 4.26723 25.27 5.77995 23.934 5.99051C23.3995 6.07483 22.4968 6.65708 22.1094 7.57615C21.5624 8.93624 21.7991 9.94293 20.8588 10.5484C18.8535 11.8385 12.6755 12.3253 10.0153 10.6703C7.93001 9.37304 8.64552 7.31628 2.68079 2.78357C1.90077 2.19117 2.82458 1.56221 3.40884 1.96478C3.99303 2.3678 3.4583 2.4748 4.63663 3.64896C7.01673 6.01965 6.99278 3.88834 7.36867 4.6945C8.15904 6.38978 9.90259 8.09711 9.90259 8.09711C11.6487 9.22885 13.0431 9.4762 15.6188 7.74089C17.2522 6.64043 16.5841 9.49113 20.59 7.43664C22.0509 6.68715 21.9901 7.18405 23.4754 5.12269H23.4753ZM6.09434 2.94794C5.99339 2.80647 5.69333 2.74137 5.49264 2.94247C5.29226 3.14355 5.39083 3.34237 5.50669 3.46186C5.67293 3.63302 5.9547 3.61895 6.12227 3.52595C6.29063 3.43319 6.25524 3.17356 6.09434 2.94794ZM1.95321 1.3744C2.08404 1.23138 2.24926 0.960811 1.96545 0.442901C1.75832 0.0637755 1.07335 -0.0911185 0.831602 0.0534576C0.590634 0.19852 0.295834 0.758327 0.699501 1.00467C1.21965 1.32251 1.5606 1.80284 1.95321 1.3744ZM26.6488 0.67102C26.4656 0.406017 26.079 0.453996 25.6963 0.730581C25.3133 1.00685 25.3858 1.53212 25.5124 1.65442C25.7344 1.8695 26.3263 1.7243 26.4642 1.57025C26.8194 1.17464 26.8318 0.935968 26.6488 0.67102ZM24.4453 2.35327C24.9935 2.09591 25.8555 2.93245 24.6079 3.56042C22.8249 4.4584 22.6359 5.57247 21.5095 6.28084C19.615 7.47229 20.1947 6.32898 17.1473 5.89626C15.9737 5.72956 15.5962 7.03321 14.68 6.65645C12.5679 5.78777 11.0927 5.95408 9.72465 7.06206C9.22946 6.84456 8.71128 6.00488 8.50823 5.66821C9.06283 5.1273 8.83891 4.22331 8.52565 3.72759C8.21288 3.23187 7.83385 3.37254 7.41787 2.91644C7.00148 2.46097 7.57477 1.2721 8.10794 2.1854C10.1055 5.60755 11.4169 4.18408 13.0486 3.97994C14.6145 3.78418 15.9988 4.63345 16.4232 2.22783C16.4929 1.83464 16.8776 1.74054 16.9168 2.39078C16.9559 3.04148 17.2011 4.62587 18.0622 4.83033C18.9229 5.03454 19.6064 4.62955 19.808 4.40478C20.0096 4.18001 20.1152 4.21268 20.2036 4.77046C20.2925 5.3287 20.5108 6.0996 21.7196 5.24087C24.1919 3.4843 23.4845 2.80468 24.4453 2.35327ZM17.097 0.745745C17.105 0.46462 16.9767 0.288395 16.6983 0.298311C16.4199 0.308393 16.32 0.4479 16.3291 0.719249C16.3985 1.23287 16.4852 1.22059 16.6699 1.26803C16.8546 1.31555 17.089 1.02662 17.097 0.745745ZM7.18538 1.22849C7.30665 1.07625 7.31826 0.875865 7.15736 0.650009C7.05659 0.508697 6.58503 0.411794 6.38488 0.612806C6.18411 0.814041 6.36675 1.13009 6.52294 1.178C6.81217 1.26671 6.94065 1.53509 7.18538 1.22849ZM23.7172 19.2605C23.7172 19.844 23.3736 20.1664 22.746 20.1664C22.1894 20.1664 21.8104 19.9061 21.8104 19.2605C21.8104 18.6647 22.154 18.3172 22.758 18.3172C23.3619 18.3172 23.7172 18.6647 23.7172 19.2605ZM19.1698 22.8228C19.6913 22.2019 19.9277 21.4573 19.9277 20.3652C19.9277 19.3349 19.7146 18.6402 19.2293 18.044C18.708 17.3987 18.0333 17.0886 17.1686 17.0886C15.5346 17.0886 14.4451 18.4163 14.4451 20.415C14.4451 22.4131 15.5226 23.704 17.1686 23.704C18.1041 23.704 18.708 23.369 19.1698 22.8228ZM18.1989 20.3529C18.1989 21.8548 17.9031 22.4998 17.2163 22.4998C16.9081 22.4998 16.5532 22.3264 16.4109 21.9789C16.2808 21.6557 16.2093 21.1096 16.2093 20.3776C16.2093 19.7445 16.2687 19.2978 16.3753 18.9626C16.5054 18.5655 16.8132 18.3172 17.1922 18.3172C17.4764 18.3172 17.725 18.4413 17.8791 18.6524C18.0923 18.9377 18.1989 19.4962 18.1989 20.3529ZM3.09661 24.709L3.8658 25.6027C4.61206 25.3048 5.54756 24.635 5.78429 23.58C5.86717 23.2323 5.90249 23.0088 5.90249 21.8914V14.9857H4.22142V22.0777C4.22142 23.0088 4.18594 23.3562 4.0555 23.6664C3.90165 24.0141 3.52232 24.436 3.09661 24.709ZM6.98132 14.9661H6.80863V23.5674H8.4664V19.7567H10.5624V18.3423H8.4664V16.3684H11.0832L11.1848 15.6174C9.61232 15.4977 8.18328 15.2458 6.98132 14.9661ZM12.4925 17.0637C12.6348 17.3246 12.7173 17.6099 12.7412 17.9699C12.9664 17.6471 13.3453 17.3119 13.6411 17.1627C13.7717 17.1008 13.9846 17.0637 14.1623 17.0637C14.399 17.0637 14.5055 17.0886 14.7542 17.2002L14.3161 18.6647C14.1623 18.578 14.0321 18.5407 13.8545 18.5407C13.4992 18.5407 13.1794 18.7146 12.8832 19.0743V23.5674H11.2966V19.3223C11.2966 18.4659 11.2018 17.8206 11.0716 17.461L12.4925 17.0637Z" fill="#40BE46"/>
</svg>
