<svg width="72" height="14" viewBox="0 0 72 14" fill="none" xmlns="http://www.w3.org/2000/svg">
<g clip-path="url(#clip0_5624_9503)">
<path d="M33.0319 6.13257H34.2103V5.03986C34.2103 4.46873 34.0672 4.18316 33.6269 4.18316C33.1865 4.18316 33.0435 4.46873 33.0435 5.03986V6.13257H33.0313H33.0319ZM33.6153 10.9502C34.0679 10.9502 34.1988 10.6773 34.1988 10.0936V8.87652H36.865V9.69581C36.865 11.8565 35.7937 12.9239 33.6153 12.9239C31.4367 12.9239 30.3774 11.856 30.3774 9.69581V5.41189C30.3774 3.25121 31.425 2.18375 33.6153 2.18375C35.8053 2.18375 36.865 3.2517 36.865 5.41189V8.00669H33.0201V10.0804C33.0323 10.6516 33.1747 10.9497 33.6153 10.9497V10.9502ZM23.4018 2.56839H26.1754L26.5325 6.64106C26.5684 7.08787 26.6396 8.1558 26.7704 9.85705C26.8775 8.18055 26.973 7.11311 27.0205 6.62893L27.4372 2.58101H30.0799L28.2822 12.7501H25.2349L23.4018 2.56839ZM20.1044 2.55576H22.7234V12.7374H20.1044V2.55576ZM20.1044 0.320801H22.7234V1.87294H20.1044V0.320801ZM19.3781 12.837C19.0331 12.8991 18.6876 12.9365 18.3426 12.9365C16.3308 12.9365 16.0928 12.0303 16.0928 9.89442V4.53041H15.4382V2.55625H16.0928V0.395588H18.6639V2.55625H19.3781V4.53041H18.6164V10.2421C18.6164 10.6147 18.8664 10.7885 19.3185 10.7885H19.3781V12.8375V12.837ZM11.8666 4.18268C11.4382 4.18268 11.2832 4.46825 11.2832 5.03938V10.0931C11.2832 10.652 11.4261 10.9497 11.8666 10.9497C12.307 10.9497 12.45 10.6768 12.45 10.0931V8.35493H15.1165V9.70842C15.1165 11.8691 14.0451 12.9365 11.8666 12.9365C9.68803 12.9365 8.62879 11.8686 8.62879 9.70842V5.42451C8.62879 3.26384 9.67639 2.19638 11.8666 2.19638C14.0568 2.19638 15.1165 3.26433 15.1165 5.42451V6.30595H12.4621V5.02724C12.4621 4.46825 12.3191 4.18268 11.867 4.18268H11.8666ZM4.95098 8.25536L4.52265 4.45611C4.45139 3.76066 4.3797 3.04044 4.32011 2.33285C4.26051 3.00353 4.17715 3.71112 4.09383 4.46873L3.61751 8.25585H4.95098V8.25536ZM2.45118 0.321287H6.21277L8.47466 12.7379H5.4869L5.21312 10.503H3.27297L2.9992 12.7379H0.166016L2.45165 0.321287H2.45118Z" fill="white"/>
<path d="M63.6958 6.13321H64.8745V5.04049C64.8745 4.46936 64.7315 4.1838 64.2911 4.1838C63.8504 4.1838 63.7077 4.46936 63.7077 5.04049V6.13321H63.6955H63.6958ZM64.2911 10.9509C64.7437 10.9509 64.8745 10.6779 64.8745 10.0942V8.87715H67.5407V9.69644C67.5407 11.8571 66.4695 12.9246 64.2911 12.9246C62.1124 12.9246 61.0533 11.8566 61.0533 9.69644V5.41252C61.0533 3.25185 62.1124 2.18439 64.2911 2.18439C66.4695 2.18439 67.5407 3.25233 67.5407 5.41252V8.00733H63.6958V10.0811C63.6958 10.6522 63.8389 10.9504 64.2911 10.9504V10.9509ZM60.6126 12.8376C60.2679 12.8998 59.9221 12.9372 59.5773 12.9372C57.5654 12.9372 57.3274 12.0309 57.3274 9.89506V4.53104H56.6728V2.55688H57.3274V0.396219H59.8984V2.55688H60.6126V4.53104H59.8509V10.2428C59.8509 10.6153 60.1011 10.7892 60.553 10.7892H60.6126V12.8381V12.8376ZM52.3753 9.23702V10.2923C52.3753 10.8761 52.4113 11.2486 52.8516 11.2486C53.292 11.2486 53.5896 10.8265 53.5896 9.95722V7.58579C52.673 8.10737 52.3753 8.41773 52.3753 9.23702ZM51.7682 12.9372C50.518 12.9372 49.7447 11.9688 49.7447 10.4541V9.63476C49.7447 8.28124 50.3159 7.38717 51.5899 6.77912C52.8157 6.18323 53.6018 5.95983 53.6018 5.0779V4.70539C53.6018 4.33291 53.3401 4.04734 52.9947 4.04734C52.6255 4.04734 52.3638 4.4072 52.3638 5.05311V5.69857H49.9115V5.05311C49.9115 3.27759 51.0424 2.20964 53.0543 2.20964C55.3636 2.20964 56.1968 3.21542 56.1968 5.27652V12.7512H53.7445L53.6971 12.0062C53.1021 12.6268 52.495 12.9377 51.7685 12.9377L51.7682 12.9372ZM49.2569 12.8381C48.9118 12.9003 48.5545 12.9377 48.2212 12.9377C46.2093 12.9377 45.9713 12.0314 45.9713 9.89554V4.53152H45.3167V2.55737H45.9713V0.396707H48.5426V2.55737H49.2569V4.53152H48.4951V10.2433C48.4951 10.6158 48.745 10.7896 49.1972 10.7896H49.2569V12.8386V12.8381ZM40.2334 8.91453V9.52306C40.2334 10.3424 40.5311 10.7522 41.1501 10.7522C41.7098 10.7522 42.0908 10.355 42.0908 9.75908C42.0908 9.2375 41.7572 8.72853 41.1263 8.23173C40.1622 7.48674 39.2696 6.85345 38.5791 6.17062C37.9245 5.51254 37.5913 4.63109 37.5913 3.61267C37.5913 1.57635 38.9245 0.347168 41.2579 0.347168C43.5908 0.347168 44.7339 1.39035 44.7339 3.4636V4.54369H42.0674V3.63746C42.0674 2.85507 41.8057 2.49521 41.1745 2.49521C40.6744 2.49521 40.3531 2.8677 40.3531 3.40142C40.3531 4.10902 41.0551 4.65536 42.2816 5.64903C43.3291 6.50572 44.1031 7.11422 44.4478 7.74751C44.7339 8.25648 44.8885 8.87764 44.8885 9.59736C44.8885 11.6832 43.5197 12.9498 41.0795 12.9498C38.6391 12.9498 37.4248 11.7454 37.4248 9.4609V8.91453H40.2344H40.2334Z" fill="white"/>
<path d="M69.7093 2.45641H69.888C70.0907 2.45641 70.2575 2.3821 70.2575 2.20824C70.2575 2.05915 70.1503 1.94745 69.9124 1.94745C69.8168 1.94745 69.7456 1.96007 69.7096 1.97221V2.45641H69.7093ZM69.6971 3.40003H69.328V1.73619C69.471 1.71142 69.6849 1.68666 69.9466 1.68666C70.2443 1.68666 70.3873 1.73619 70.5063 1.81098C70.5897 1.88528 70.6609 2.00961 70.6609 2.18348C70.6609 2.36997 70.5301 2.50643 70.3277 2.56859V2.59336C70.4823 2.65552 70.5657 2.77985 70.625 3.00325C70.6728 3.25142 70.7084 3.36312 70.7443 3.42528H70.3399C70.2921 3.36312 70.2565 3.21402 70.209 3.01539C70.1853 2.8289 70.0782 2.7546 69.8754 2.7546H69.6968V3.40003H69.6971ZM68.7093 2.51857C68.7093 3.26356 69.233 3.84731 69.9592 3.84731C70.6856 3.84731 71.1735 3.25142 71.1735 2.51857C71.1735 1.78572 70.6619 1.17769 69.9476 1.17769C69.2334 1.19031 68.7096 1.78621 68.7096 2.51857H68.7093ZM71.5904 2.51857C71.5904 3.46218 70.8761 4.20717 69.9476 4.20717C69.0191 4.20717 68.293 3.46218 68.293 2.51857C68.293 1.57495 69.0191 0.854736 69.9476 0.854736C70.8761 0.854736 71.5904 1.59972 71.5904 2.51857Z" fill="white"/>
</g>
<defs>
<clipPath id="clip0_5624_9503">
<rect width="71.8553" height="13.0646" fill="white"/>
</clipPath>
</defs>
</svg>
