<svg width="66" height="23" viewBox="0 0 66 23" fill="none" xmlns="http://www.w3.org/2000/svg">
<g clip-path="url(#clip0_5624_9560)">
<path fill-rule="evenodd" clip-rule="evenodd" d="M27.1692 7.49503C28.4014 6.82889 29.4539 6.61788 30.3021 6.83664C31.6781 7.19232 32.5148 8.61764 32.7046 10.5963V15.9445H29.7246V10.5963C29.6548 9.61322 29.0274 9.45388 28.6826 9.40306C27.8168 9.27475 27.1802 9.88449 27.1692 10.4124V15.9445H24.189V6.98692H27.1692V7.49503ZM18.2438 6.98692H21.2239V7.34993C23.4915 5.96723 23.125 7.13376 23.125 9.49695C21.9436 9.52277 21.4619 9.68815 21.2239 10.1416V15.9445H18.2438V15.9328H18.2292V7.00585H18.2438V6.98692ZM43.2216 6.82158C45.5307 6.82158 47.4535 8.44626 47.8708 10.5959H45.2191C44.8759 9.85349 44.1108 9.33718 43.2216 9.33718C42.0123 9.33718 41.0318 10.2931 41.0318 11.473C41.0318 12.6529 42.012 13.6089 43.2216 13.6089C44.0889 13.6089 44.8381 13.1171 45.1925 12.4044H47.8601C47.4213 14.5269 45.5113 16.124 43.2216 16.124C40.6074 16.124 38.4883 14.0416 38.4883 11.473C38.4883 8.90443 40.6074 6.822 43.2216 6.822V6.82158ZM53.702 9.45086C52.5406 9.45086 51.5985 10.4068 51.5985 11.5867C51.5985 12.7665 52.5406 13.7225 53.702 13.7225C54.7847 13.7225 55.6617 12.7665 55.6617 11.5867C55.6617 10.4068 54.7847 9.45086 53.702 9.45086ZM55.7355 7.00457H58.6706V15.9389H55.7355V15.2503C55.0403 15.7993 54.1868 16.1232 53.2644 16.1232C50.7531 16.1232 48.7174 14.0408 48.7174 11.4722C48.7174 8.90358 50.7531 6.82112 53.2644 6.82112C54.1868 6.82112 55.0403 7.14495 55.7355 7.69397V7.00457ZM34.1926 6.98692H37.1728V15.9445H34.1926V6.98692ZM34.1926 4.08545H37.1728V6.38922H34.1926V4.08545ZM11.5568 9.45086C10.3952 9.45086 9.45351 10.4068 9.45351 11.5867C9.45351 12.7665 10.3952 13.7225 11.5568 13.7225C12.6394 13.7225 13.5166 12.7665 13.5166 11.5867C13.5166 10.4068 12.6394 9.45086 11.5568 9.45086ZM13.5904 7.00457H16.5255V15.9389H13.5904V15.2503C12.895 15.7993 12.0416 16.1232 11.1193 16.1232C8.60803 16.1232 6.57227 14.0408 6.57227 11.4722C6.57227 8.90358 8.60803 6.82112 11.1193 6.82112C12.0416 6.82112 12.895 7.14495 13.5904 7.69397V7.00457Z" fill="white"/>
<path fill-rule="evenodd" clip-rule="evenodd" d="M9.33196 20.4366H2.33017V2.29198H9.33196V0.153564H2.33017H0.137695V2.29198V20.4366V22.5746H2.33017H9.33196V20.4366Z" fill="white"/>
<path fill-rule="evenodd" clip-rule="evenodd" d="M56.0566 20.4366H63.0587V2.29198H56.0566V0.153564H63.0587H65.2509V2.29198V20.4366V22.5746H63.0587H56.0566V20.4366Z" fill="white"/>
</g>
<defs>
<clipPath id="clip0_5624_9560">
<rect width="65.323" height="22.863" fill="white"/>
</clipPath>
</defs>
</svg>
