<svg width="40" height="25" viewBox="0 0 40 25" fill="none" xmlns="http://www.w3.org/2000/svg">
<g clip-path="url(#clip0_5624_9533)">
<path d="M11.2354 8.85264C11.2233 9.25231 11.2748 9.6555 11.3777 10.0427C11.4957 10.3766 11.638 10.6986 11.792 11.0045C11.8435 11.0983 11.8828 11.2046 11.8828 11.3104C11.8707 11.4699 11.7799 11.6319 11.638 11.7101L10.8217 12.2723C10.7187 12.338 10.6007 12.3941 10.4861 12.3941C10.3438 12.3816 10.202 12.3129 10.099 12.2066C9.92954 12.019 9.76345 11.8069 9.63328 11.5787C9.50315 11.3505 9.37299 11.0978 9.23117 10.7884C8.22103 12.019 6.95394 12.6343 5.42658 12.6343C4.33775 12.6343 3.47281 12.3129 2.83758 11.6725C2.20235 11.0321 1.87891 10.1766 1.87891 9.10537C1.87891 7.9685 2.26597 7.04727 3.05564 6.35073C3.84481 5.65415 4.8943 5.30762 6.22841 5.30762C6.68199 5.30762 7.14774 5.34823 7.60132 5.41395C8.07921 5.47963 8.57213 5.58897 9.08935 5.7073V4.73292C9.08935 3.71789 8.88392 3.0088 8.48133 2.59357C8.07921 2.17834 7.36822 1.97825 6.37019 1.97825C5.90447 1.97825 5.42658 2.03141 4.973 2.15326C4.49511 2.27513 4.02936 2.42206 3.57578 2.60912C3.43348 2.67481 3.27952 2.73098 3.12217 2.78414C3.05855 2.81222 2.97988 2.82476 2.91674 2.82476C2.73511 2.82476 2.64478 2.69036 2.64478 2.40953V1.75358C2.63264 1.59411 2.67198 1.43213 2.7356 1.28519C2.83855 1.16333 2.95657 1.07306 3.09838 1.00436C3.61559 0.735561 4.16001 0.535971 4.72869 0.401572C5.38822 0.226553 6.07445 0.148822 6.749 0.148822C8.28852 0.148822 9.41668 0.510896 10.1393 1.23254C10.8654 1.95418 11.2131 3.04993 11.2131 4.52129V8.85313H11.2374L11.2354 8.85264ZM5.97877 10.8857C6.43235 10.8857 6.88597 10.8044 7.31236 10.6449C7.79025 10.4699 8.2045 10.1766 8.54349 9.78942C8.74891 9.54868 8.90627 9.25533 8.98493 8.93386C9.07577 8.55925 9.1151 8.15957 9.1151 7.77193V7.20976C8.72804 7.11597 8.32593 7.03474 7.9233 6.98159C7.52118 6.92841 7.10693 6.90033 6.70726 6.90033C5.83939 6.90033 5.20706 7.07535 4.77775 7.43442C4.35137 7.7965 4.14254 8.3025 4.14254 8.971C4.14254 9.59884 4.29698 10.0672 4.6204 10.3887C4.94092 10.7102 5.38241 10.8851 5.97829 10.8851L5.97877 10.8857ZM16.3736 12.3284C16.2042 12.341 16.023 12.3003 15.8807 12.194C15.7505 12.0471 15.6476 11.8726 15.6087 11.6725L12.5661 1.34136C12.5025 1.16634 12.4632 0.994833 12.4481 0.807274C12.436 0.647801 12.539 0.501367 12.6929 0.473285H14.0386C14.2834 0.473285 14.4529 0.513906 14.5437 0.607684C14.6345 0.701461 14.7253 0.876481 14.804 1.12923L16.9666 9.97697L18.9869 1.12622C19.0506 0.857424 19.1292 0.685915 19.2317 0.604673C19.3861 0.510896 19.5673 0.457739 19.7489 0.470275H20.7833C21.0281 0.470275 21.1976 0.510896 21.3006 0.604673C21.4307 0.751611 21.5215 0.926126 21.5453 1.12622L23.5899 10.0833L25.8278 1.12622C25.8671 0.926126 25.9579 0.751611 26.0881 0.604673C26.2425 0.510896 26.4115 0.457739 26.5932 0.470275H27.7971C27.9515 0.442193 28.0934 0.564052 28.1205 0.723025V0.804267C28.1205 0.869959 28.1084 0.951201 28.0934 1.0164C28.0662 1.13826 28.0419 1.24457 28.0025 1.35039L24.8905 11.688C24.8118 11.9568 24.721 12.1283 24.6185 12.2096C24.4762 12.3034 24.2951 12.3565 24.1256 12.344H23.0125C22.7677 12.344 22.5982 12.3034 22.4952 12.2096C22.3651 12.0627 22.2743 11.8756 22.2505 11.6755L20.2452 3.05243L18.2521 11.6595C18.2249 11.8596 18.1341 12.0466 18.0073 12.1936C17.8529 12.2998 17.6718 12.3405 17.4902 12.3279H16.3741L16.3736 12.3284ZM33.0081 12.6905C32.3336 12.6905 31.6624 12.6093 31.015 12.4498C30.3677 12.2903 29.8626 12.1158 29.527 11.9157C29.3575 11.8345 29.2157 11.7036 29.1249 11.5411C29.0734 11.4192 29.0462 11.3004 29.0462 11.1665V10.4855C29.0462 10.2046 29.1491 10.0702 29.3424 10.0702C29.4211 10.0702 29.4969 10.0828 29.5756 10.1108C29.6542 10.1389 29.7693 10.1921 29.899 10.2453C30.3526 10.4574 30.8305 10.6073 31.3234 10.7137C31.8285 10.82 32.3457 10.8731 32.8629 10.8731C33.6793 10.8731 34.3116 10.7262 34.7529 10.4328C35.1796 10.164 35.4398 9.68309 35.4275 9.16154C35.4398 8.815 35.3095 8.48054 35.0771 8.22475C34.844 7.97202 34.4026 7.74385 33.7706 7.52821L31.8926 6.92543C30.949 6.61951 30.2472 6.16314 29.8208 5.56085C29.4066 4.99872 29.1735 4.33022 29.1735 3.62161C29.1613 3.10007 29.2764 2.59106 29.5241 2.13822C29.7572 1.71045 30.0685 1.33534 30.4556 1.04197C30.8577 0.720519 31.3083 0.49535 31.8013 0.345405C32.3306 0.185933 32.8751 0.104691 33.4316 0.117229C33.7157 0.117229 34.0154 0.129766 34.2995 0.170387C34.5958 0.211007 34.8681 0.264165 35.1401 0.317322C35.412 0.37048 35.6451 0.451722 35.8782 0.529453C36.0721 0.595145 36.2533 0.676387 36.4228 0.770164C36.5772 0.851406 36.7068 0.957719 36.8099 1.10416C36.9007 1.23855 36.9399 1.38499 36.9278 1.54446V2.18486C36.9278 2.46569 36.8247 2.61263 36.6315 2.61263C36.462 2.58455 36.2959 2.53139 36.1385 2.45315C35.3611 2.09108 34.5081 1.91907 33.6526 1.93161C32.9144 1.93161 32.3311 2.05347 31.9315 2.30622C31.5322 2.55897 31.3234 2.94662 31.3234 3.49625C31.3113 3.85834 31.4536 4.20537 31.7105 4.44557C31.9708 4.69831 32.4487 4.95456 33.1349 5.17925L34.9737 5.78203C35.905 6.08795 36.5796 6.51571 36.9787 7.06584C37.381 7.59992 37.5869 8.26838 37.5745 8.93638C37.5869 9.47047 37.4717 10.0046 37.239 10.4855C37.0059 10.9413 36.6827 11.341 36.2956 11.663C35.8693 12.0095 35.3762 12.2658 34.8588 12.4127C34.263 12.5967 33.64 12.6905 33.0081 12.6905Z" fill="white"/>
<path d="M35.455 19.1874C31.1962 22.4356 25.0085 24.1592 19.6882 24.1592C12.233 24.1592 5.51258 21.3108 0.440431 16.5792C0.0383117 16.2046 0.401093 15.6986 0.881887 15.992C6.3712 19.2807 13.1402 21.2731 20.1447 21.2731C25.1926 21.245 30.189 20.1894 34.8375 18.172C35.5451 17.838 36.1533 18.6529 35.4543 19.1869L35.455 19.1874Z" fill="white"/>
<path d="M37.2287 17.101C36.6841 16.3794 33.6293 16.7545 32.2443 16.926C31.83 16.9792 31.7664 16.6045 32.1413 16.3232C34.5759 14.5585 38.5743 15.0675 39.0398 15.6547C39.5057 16.242 38.9099 20.3863 36.6325 22.3661C36.2818 22.672 35.9459 22.5131 36.1034 22.1134C36.6205 20.789 37.7729 17.8096 37.2287 17.101Z" fill="white"/>
</g>
<defs>
<clipPath id="clip0_5624_9533">
<rect width="39.1938" height="24.4961" fill="white"/>
</clipPath>
</defs>
</svg>
