<svg width="40" height="30" viewBox="0 0 40 30" fill="none" xmlns="http://www.w3.org/2000/svg">
<g clip-path="url(#clip0_5624_9383)">
<path d="M1.37607 28.7817C0.765126 28.7817 0.453898 28.2639 0.453898 27.6431C0.453898 27.0224 0.764551 26.5034 1.37607 26.5034C1.66487 26.4966 1.93927 26.6267 2.11474 26.8535L2.42021 26.5944C2.16881 26.276 1.77935 26.0953 1.3709 26.1078C0.484388 26.1078 0 26.8336 0 27.6357C0 28.4378 0.473456 29.1745 1.37895 29.1745C1.7874 29.1864 2.17687 29.0028 2.42539 28.6816L2.11991 28.4031C1.95078 28.6436 1.67234 28.7851 1.37607 28.7823V28.7817Z" fill="white"/>
<path d="M4.38463 26.1072C4.08433 26.1066 3.78461 26.1379 3.49121 26.201V29.0602C3.78231 29.1341 4.08145 29.1722 4.38173 29.1739C5.28783 29.1739 5.79232 28.4395 5.79232 27.6192C5.79232 26.799 5.27518 26.1078 4.38463 26.1078V26.1072ZM4.37368 28.7652C4.21434 28.7663 4.05556 28.7408 3.90427 28.6907V26.5545C4.05844 26.5204 4.21549 26.5034 4.37368 26.5034C4.99328 26.5034 5.34364 27.0065 5.34364 27.6187C5.34364 28.2553 5.01688 28.7652 4.37368 28.7652Z" fill="white"/>
<path d="M6.99319 28.6336C6.84821 28.6291 6.7268 28.7416 6.72279 28.8849C6.71819 29.0281 6.83211 29.1481 6.97708 29.1521C7.12201 29.1566 7.24343 29.044 7.24743 28.9008C7.24743 28.8962 7.24743 28.8923 7.24743 28.8877C7.24743 28.7479 7.13411 28.6342 6.99319 28.6331V28.6336Z" fill="white"/>
<path d="M8.3623 29.1508H8.77537V27.8121H10.1543L10.186 27.4313H8.77537V26.5075H10.2694L10.301 26.1267H8.3623V29.1508Z" fill="white"/>
<path d="M12.5871 26.1072C11.677 26.1072 11.2041 26.8371 11.2041 27.6351C11.2041 28.4332 11.6776 29.1739 12.5871 29.1739C13.4966 29.1739 13.962 28.4355 13.962 27.6351C13.962 26.8348 13.4776 26.1072 12.5871 26.1072ZM12.5871 28.7771C11.9761 28.7771 11.6609 28.2593 11.6609 27.6386C11.6609 27.0178 11.9664 26.4989 12.5871 26.4989C13.2078 26.4989 13.5133 27.0139 13.5133 27.6386C13.5133 28.2632 13.1986 28.7811 12.583 28.7811L12.5871 28.7771Z" fill="white"/>
<path d="M16.752 28.1452C16.752 28.4641 16.4862 28.7699 16.053 28.7699C15.5645 28.7699 15.3408 28.4681 15.3408 28.1452V26.1267L14.9277 26.158V28.1782C14.9277 28.8569 15.5036 29.1707 16.0564 29.1707C16.5776 29.1707 17.1702 28.8415 17.1702 28.1782V26.1267L16.756 26.158L16.7531 28.1452H16.752Z" fill="white"/>
<path d="M20.2591 28.6523C19.7379 27.9923 19.0907 26.324 18.669 26.1267H18.2617V29.1508H18.6747V26.7037C19.1632 27.45 19.7436 28.9655 20.2648 29.1508H20.6779V26.1267L20.2648 26.158L20.2585 28.6523H20.2591Z" fill="white"/>
<path d="M22.7177 26.1072C22.4174 26.1061 22.1176 26.1379 21.8242 26.201V29.0602C22.1148 29.1341 22.4139 29.1722 22.7136 29.1739C23.6203 29.1739 24.1242 28.4395 24.1242 27.6192C24.1242 26.799 23.6082 26.1078 22.7177 26.1078V26.1072ZM22.7056 28.7652C22.5462 28.7658 22.388 28.7408 22.2373 28.6907V26.5546C22.3909 26.5205 22.5479 26.5034 22.7056 26.5034C23.3263 26.5034 23.6755 27.0065 23.6755 27.6187C23.6755 28.2309 23.3499 28.7652 22.7056 28.7652Z" fill="white"/>
<path d="M25.9733 26.1267C25.4958 27.0459 25.0102 28.1384 24.8682 29.1508H25.2812C25.3238 28.8734 25.3848 28.5994 25.4642 28.33H26.9064C26.9858 28.5994 27.0473 28.8734 27.0893 29.1508H27.5024C27.3591 28.1452 26.8742 27.0459 26.3973 26.1267H25.9727H25.9733ZM25.5872 27.9491C25.7581 27.4699 25.9583 27.0021 26.1867 26.5474C26.4128 27.0026 26.6124 27.471 26.7833 27.9491H25.5872Z" fill="white"/>
<path d="M28.0996 26.4723H28.9424V29.1508H29.356V26.4723H30.1545L30.1862 26.1267H28.1313L28.0996 26.4723Z" fill="white"/>
<path d="M31.2793 29.1508H31.6929V26.1267L31.2793 26.1585V29.1508Z" fill="white"/>
<path d="M34.1564 26.1072C33.2463 26.1072 32.7734 26.8371 32.7734 27.6351C32.7734 28.4332 33.2469 29.1739 34.1564 29.1739C35.0659 29.1739 35.5314 28.4355 35.5314 27.6351C35.5314 26.8348 35.047 26.1072 34.1564 26.1072ZM34.1564 28.7771C33.5409 28.7771 33.2302 28.2593 33.2302 27.6386C33.2302 27.0178 33.5357 26.4989 34.1564 26.4989C34.7771 26.4989 35.0826 27.0139 35.0826 27.6386C35.0826 28.2632 34.7691 28.7811 34.1524 28.7811L34.1564 28.7771Z" fill="white"/>
<path d="M38.514 26.158V28.6523C37.9939 27.9923 37.3456 26.324 36.9239 26.1267H36.5166V29.1508H36.9256V26.7037C37.4152 27.45 37.9957 28.9655 38.5157 29.1508H38.9288V26.1267L38.5134 26.158H38.514Z" fill="white"/>
<path d="M13.6348 18.4424C13.7791 18.4231 13.9195 18.3981 14.057 18.3662C14.1945 18.3344 14.328 18.2969 14.4643 18.2537C15.2501 17.9899 15.9313 17.5085 16.5825 16.8389L16.5744 16.8286C15.704 17.7199 14.787 18.2867 13.6348 18.443V18.4424Z" fill="white"/>
<path d="M17.688 15.4918C17.348 15.9653 16.9752 16.4149 16.5737 16.8384C15.9225 17.5081 15.2413 17.9901 14.4555 18.2533C14.3243 18.2965 14.1897 18.3345 14.0482 18.3658C13.9067 18.3971 13.7703 18.4232 13.6259 18.442C13.5782 18.4488 13.5304 18.4551 13.4816 18.4602L13.4033 18.467C13.3412 18.4721 13.279 18.4772 13.2158 18.4801H12.9523C12.6865 18.479 12.4219 18.4494 12.1624 18.3914C11.9651 18.3482 11.7707 18.2914 11.5814 18.2215C11.4502 18.172 11.3208 18.1208 11.1925 18.0555C11.0642 17.9901 10.9382 17.927 10.814 17.8542C10.2427 17.5171 9.74337 17.0732 9.34411 16.5468C9.25554 16.4292 9.17212 16.3064 9.09386 16.1807C9.05535 16.1177 9.0185 16.054 8.98284 15.9886C8.91153 15.8579 8.84652 15.7237 8.78841 15.5862C8.36499 14.5977 8.36499 13.4818 8.78841 12.4933C8.84652 12.3563 8.91093 12.2216 8.98284 12.0908C9.0185 12.0255 9.05535 11.9624 9.09386 11.8987C9.17212 11.7731 9.25554 11.6503 9.34411 11.5327C9.74337 11.0069 10.2427 10.5629 10.814 10.2252C10.9382 10.1531 11.0642 10.0854 11.1925 10.024C11.3196 9.9672 11.4491 9.91718 11.5814 9.87338C11.7747 9.80065 11.9732 9.74207 12.1745 9.69718C12.4339 9.63919 12.6986 9.60962 12.9644 9.60849H13.233C13.2951 9.60849 13.3573 9.61647 13.4183 9.62159L13.508 9.63066L13.5954 9.64091C13.7502 9.66081 13.9009 9.68807 14.0482 9.72221C14.1213 9.73926 14.1937 9.75857 14.2651 9.77848C14.6218 9.88191 14.964 10.0297 15.2827 10.2179C15.4111 10.2935 15.5365 10.3747 15.6601 10.4634C15.915 10.647 16.156 10.8483 16.381 11.0671C16.4977 11.1797 16.614 11.2985 16.7302 11.4229L16.7371 11.4121C17.0759 11.789 17.3935 12.1841 17.6874 12.5956C18.1546 11.8675 18.861 10.7732 19.1124 10.41C19.2142 10.2639 19.3161 10.1161 19.4271 9.96774C18.2639 8.56601 16.8642 7.40128 14.9945 6.90445H14.9813C14.891 6.8806 14.8001 6.85843 14.7075 6.8368L14.6689 6.82773C14.5792 6.80837 14.4888 6.79078 14.398 6.77427L14.3439 6.76407C14.2421 6.74585 14.131 6.72993 14.0223 6.71574H14.0102C13.951 6.7078 13.8923 6.70154 13.8319 6.69583H13.7985L13.6374 6.68164H13.5885L13.4378 6.67139H13.3797L13.2273 6.66513H12.9598C8.96904 6.6441 5.47363 10.1019 5.47363 14.044C5.47363 17.9861 8.97304 21.445 12.9638 21.445H13.2336L13.382 21.4388H13.4453L13.5885 21.4308H13.6467L13.7934 21.4177H13.8422L13.9982 21.3996L14.0338 21.3944L14.2029 21.3711H14.2214C14.3232 21.3552 14.425 21.337 14.5268 21.3177L14.5827 21.3058C14.6649 21.2887 14.7466 21.2705 14.8277 21.2512L14.8778 21.2393C14.964 21.2171 15.0509 21.1949 15.1361 21.1699L15.1562 21.1637C16.9373 20.6475 18.2863 19.5175 19.4138 18.1686C19.239 17.9082 19.1216 17.7132 19.0669 17.6183L17.688 15.4884V15.4918Z" fill="white"/>
<path d="M13.21 18.4813H13.2295C13.2926 18.4813 13.3546 18.4734 13.4166 18.4683C13.3546 18.4734 13.2926 18.4785 13.2289 18.4813H13.2105H13.21Z" fill="white"/>
<path d="M16.7325 11.4165L16.7236 11.4297L16.7325 11.4165Z" fill="white"/>
<path d="M32.4596 0.19873V8.23525C31.1755 7.2206 29.5843 6.66071 27.9402 6.64534H27.6726L27.5202 6.65159L27.4604 6.65558L27.3097 6.66583H27.2607L27.0997 6.68002H27.0663C27.0065 6.68628 26.9472 6.69195 26.888 6.69993H26.8747C26.7666 6.71299 26.6601 6.73004 26.5543 6.74822L26.5002 6.75847C26.4088 6.77438 26.319 6.79257 26.2293 6.81192L26.1907 6.821C23.583 7.40307 21.8658 9.26698 20.4494 11.3054C20.3896 11.3918 20.3332 11.4793 20.2745 11.5657C20.0812 11.8562 19.8051 12.2808 19.5324 12.7032C19.174 13.2574 18.8202 13.8094 18.6787 14.0327L20.4506 16.7612C20.4506 16.7612 22.3409 20.1968 25.7506 21.1319L25.7707 21.1382C25.8565 21.1632 25.9428 21.1854 26.0291 21.2075L26.0791 21.2195C26.1597 21.2394 26.2419 21.2564 26.3242 21.274L26.38 21.286C26.4818 21.3053 26.5836 21.3229 26.6855 21.3394H26.7039L26.873 21.3627L26.9087 21.3678L27.0646 21.386H27.1135L27.2602 21.3991H27.3183L27.4615 21.4071H27.5248L27.6732 21.4133H27.943C32.6431 21.4133 35.363 18.7843 35.4315 14.1913V0.19873H32.4601H32.4596ZM27.9402 18.4864H27.6767C27.6134 18.4864 27.5513 18.4785 27.4891 18.4734L27.4109 18.4666C27.362 18.4614 27.3143 18.4557 27.2665 18.4483C26.9863 18.4114 26.7108 18.3466 26.4439 18.2551C26.2482 18.1886 26.0578 18.1084 25.8738 18.0146C25.6879 17.9197 25.5084 17.8128 25.3364 17.6946C25.2501 17.6355 25.1633 17.573 25.0781 17.5065C24.8135 17.3001 24.5644 17.075 24.332 16.8334L24.3239 16.8436C24.2158 16.7328 24.1099 16.6151 24.0035 16.4946C23.9903 16.4804 23.9782 16.4645 23.965 16.4491C23.9109 16.3878 23.8568 16.3264 23.8033 16.261C23.7498 16.1956 23.7066 16.1422 23.6589 16.0831C23.6112 16.024 23.5824 15.9893 23.5439 15.9404C23.3707 15.7204 23.1987 15.4868 23.0238 15.2367C22.964 15.152 22.9035 15.0645 22.8426 14.9775C22.8098 14.9292 22.7764 14.8769 22.7408 14.8308C22.6827 14.7444 22.624 14.6597 22.5647 14.5716L22.5342 14.5256C22.4324 14.3715 22.3306 14.2129 22.2207 14.0498C22.3899 13.7889 22.5561 13.5382 22.7206 13.2978C22.8846 13.0573 23.0462 12.826 23.2073 12.6071C23.3684 12.3877 23.5272 12.1785 23.6877 11.9807C23.8488 11.7823 24.0075 11.5964 24.1692 11.4214C24.2854 11.2969 24.4016 11.1781 24.5184 11.0655C24.6363 10.9518 24.7543 10.8455 24.8756 10.7449C24.997 10.6443 25.1167 10.5511 25.2409 10.4624C25.452 10.3146 25.6747 10.1833 25.9065 10.0702C25.9353 10.056 25.9635 10.0389 25.9928 10.0247L26.0124 10.0145C26.1338 9.95933 26.2569 9.91385 26.3817 9.86782L26.4237 9.85077C26.4473 9.84393 26.4715 9.83881 26.4951 9.83087C26.5888 9.80072 26.6855 9.77346 26.7821 9.75016L26.9 9.72114C27.0335 9.69275 27.1687 9.66773 27.3074 9.64954L27.3948 9.6393L27.4845 9.63022C27.5455 9.63022 27.6077 9.61998 27.6698 9.61712H27.9384C28.0696 9.61712 28.2008 9.6251 28.3313 9.6393C28.5321 9.66319 28.7312 9.70128 28.9267 9.75415C29.0591 9.79051 29.1914 9.83259 29.3214 9.88202C29.4537 9.9309 29.5837 9.98604 29.7103 10.048C29.8386 10.1094 29.9646 10.1765 30.0888 10.2492C30.2131 10.322 30.335 10.4021 30.453 10.4857C30.5709 10.5693 30.6871 10.6596 30.7993 10.7551C31.0818 10.9945 31.3366 11.2645 31.5587 11.5595C31.6473 11.6771 31.7307 11.7999 31.8089 11.9255C32.0045 12.2422 32.1581 12.5821 32.2657 12.9374C32.3077 13.0817 32.3416 13.2278 32.3675 13.3756C32.4083 13.6024 32.4291 13.8321 32.4285 14.0623C32.4348 17.1159 31.0484 18.4875 27.9407 18.4875L27.9402 18.4864Z" fill="white"/>
</g>
<defs>
<clipPath id="clip0_5624_9383">
<rect width="39.1938" height="29.3953" fill="white"/>
</clipPath>
</defs>
</svg>
