<svg width="94" height="15" viewBox="0 0 94 15" fill="none" xmlns="http://www.w3.org/2000/svg">
<g clip-path="url(#clip0_5624_9589)">
<path d="M22.2293 6.42758C22.9895 6.42758 23.5881 6.13777 24.0722 5.55808L25.0395 6.53881C24.2563 7.38573 23.3577 7.80939 22.2984 7.80939C21.2391 7.80939 20.3863 7.4974 19.6957 6.8508C19.0045 6.20421 18.6821 5.40208 18.6821 4.42134C18.6821 3.44058 19.0274 2.61584 19.7185 1.9697C20.4096 1.32356 21.262 0.988954 22.2755 0.988954C23.404 0.988954 24.3488 1.41263 25.0857 2.23738L24.1414 3.28504C23.6577 2.70537 23.0587 2.41553 22.3447 2.41553C21.769 2.41553 21.2849 2.59369 20.8704 2.95044C20.4559 3.3072 20.2485 3.79736 20.2485 4.42134C20.2485 5.04533 20.4326 5.53593 20.8241 5.91483C21.2157 6.22682 21.6765 6.42758 22.2293 6.42758ZM26.2605 7.72034V1.10018H27.7806V6.405H30.7062V7.71987H26.2605V7.72034ZM37.3865 6.80651C36.6955 7.45311 35.8432 7.78725 34.8296 7.78725C33.816 7.78725 32.9637 7.45311 32.2725 6.80651C31.5814 6.15991 31.2361 5.33561 31.2361 4.37702C31.2361 3.41843 31.5814 2.59369 32.2725 1.94754C32.9637 1.30095 33.816 0.966797 34.8296 0.966797C35.8432 0.966797 36.6955 1.30095 37.3865 1.94754C38.0776 2.59414 38.4229 3.41843 38.4229 4.37702C38.4229 5.33561 38.0776 6.16035 37.3865 6.80651ZM36.8567 4.37702C36.8567 3.79736 36.6491 3.28504 36.2809 2.86137C35.8892 2.43769 35.4058 2.23738 34.8296 2.23738C34.2534 2.23738 33.7697 2.43814 33.3782 2.86137C32.9866 3.28504 32.7791 3.77518 32.7791 4.37702C32.7791 4.97885 32.9866 5.46899 33.3782 5.89268C33.7697 6.31634 34.2534 6.51667 34.8296 6.51667C35.4058 6.51667 35.8892 6.31591 36.2809 5.89268C36.6726 5.46899 36.8567 4.97885 36.8567 4.37702ZM41.5328 6.02653C41.7861 6.33852 42.1318 6.49452 42.5692 6.49452C43.0066 6.49452 43.3523 6.33852 43.5828 6.02653C43.8361 5.71454 43.9513 5.29085 43.9513 4.7781V1.10018H45.4715V4.80024C45.4715 5.75883 45.195 6.49405 44.642 7.0068C44.0894 7.51958 43.398 7.78678 42.5457 7.78678C41.6934 7.78678 40.9795 7.51911 40.4265 7.0068C39.8739 6.49405 39.597 5.7584 39.597 4.80024V1.10018H41.1172V4.75548C41.14 5.29038 41.2785 5.71407 41.5318 6.02606L41.5328 6.02653ZM52.2899 1.9697C52.9349 2.54937 53.2806 3.35152 53.2806 4.37702C53.2806 5.40251 52.9581 6.22729 52.3362 6.82866C51.6916 7.43049 50.7237 7.72034 49.434 7.72034H47.0615V1.10018H49.4803C50.7012 1.10018 51.6455 1.39002 52.2906 1.9697H52.2899ZM51.1843 5.91483C51.5531 5.58069 51.7372 5.06794 51.7372 4.42134C51.7372 3.77475 51.5531 3.26244 51.1843 2.92783C50.8157 2.57107 50.2399 2.39293 49.4568 2.39293H48.6045V6.42714H49.5717C50.2631 6.42714 50.7929 6.24897 51.1843 5.91439V5.91483ZM61.9645 1.10018H63.5082V7.72034H61.9645L58.7166 3.57442V7.72034H57.1732V1.10018H58.6245L61.9645 5.37993V1.10018ZM70.0501 7.72034L69.4051 6.29376H66.5257L65.881 7.72034H64.2456L67.1939 1.10018H68.6684L71.617 7.72034H70.0505H70.0501ZM68.0002 3.08428L67.1479 5.001H68.8525L68.0002 3.08428ZM74.8874 2.39338V7.72077H73.3437V2.39338H71.409V1.10064H76.8218V2.39338H74.8867H74.8874ZM77.9281 1.10064H79.4479V7.72077H77.9281V1.10018V1.10064ZM83.6637 5.31346L85.4144 1.10064H87.0726L84.3088 7.72077H83.0184L80.2774 1.10064H81.936L83.6634 5.31346H83.6637ZM92.8086 1.10064V2.41553H89.3994V3.79736H92.4629V5.04576H89.3994V6.42758H92.9235V7.72034H87.8789V1.10018H92.8083L92.8086 1.10064ZM20.4783 13.3597C20.8928 13.3597 21.2386 13.2037 21.5148 12.8696L22.0676 13.4266C21.6297 13.8946 21.1232 14.1397 20.5241 14.1397C19.9251 14.1397 19.4415 13.9615 19.0727 13.6048C18.6812 13.248 18.4971 12.78 18.4971 12.2452C18.4971 11.7102 18.6812 11.2422 19.0727 10.8633C19.4644 10.4844 19.948 10.3063 20.5008 10.3063C21.1227 10.3063 21.6526 10.5292 22.09 10.9972L21.5601 11.5768C21.2835 11.2427 20.9611 11.0867 20.5466 11.0867C20.2241 11.0867 19.9475 11.1979 19.7171 11.3987C19.4868 11.5995 19.3718 11.8667 19.3718 12.2234C19.3718 12.5802 19.4868 12.8474 19.6942 13.0482C19.9017 13.2711 20.1779 13.3602 20.4774 13.3602L20.4783 13.3597ZM25.8685 13.5826C25.4769 13.9394 24.9932 14.1397 24.4404 14.1397C23.8876 14.1397 23.404 13.9615 23.0124 13.5826C22.6209 13.2259 22.4367 12.7579 22.4367 12.223C22.4367 11.6881 22.6209 11.2201 23.0124 10.8633C23.404 10.5065 23.8876 10.3063 24.4404 10.3063C24.9932 10.3063 25.4769 10.4844 25.8685 10.8633C26.26 11.2201 26.4441 11.6881 26.4441 12.223C26.4441 12.7579 26.26 13.2259 25.8685 13.5826ZM25.5918 12.223C25.5918 11.8888 25.4769 11.599 25.2694 11.3761C25.039 11.1531 24.7858 11.0193 24.4633 11.0193C24.1409 11.0193 23.8643 11.1306 23.6573 11.3761C23.4269 11.599 23.3348 11.8888 23.3348 12.223C23.3348 12.5571 23.4498 12.8248 23.6573 13.0699C23.8876 13.2928 24.1409 13.4266 24.4633 13.4266C24.7858 13.4266 25.0624 13.3154 25.2694 13.0699C25.4769 12.847 25.5918 12.5571 25.5918 12.223ZM30.6132 11.755L29.5768 13.8055H29.0703L28.0338 11.755V14.0954H27.1815V10.3953H28.3334L29.324 12.4237L30.3146 10.3953H31.4665V14.0954H30.6142V11.755H30.6132ZM35.0591 10.7295C35.3355 10.9524 35.4736 11.2866 35.4736 11.755C35.4736 12.2234 35.3352 12.5576 35.0591 12.7579C34.7822 12.9808 34.3679 13.0699 33.7922 13.0699H33.2856V14.0954H32.4333V10.3953H33.7922C34.3679 10.3953 34.7829 10.5066 35.0591 10.7295ZM34.437 12.1782C34.5291 12.067 34.5982 11.9105 34.5982 11.6881C34.5982 11.4656 34.5291 11.3313 34.3907 11.2422C34.2524 11.1531 34.0454 11.1084 33.7688 11.1084H33.2852V12.3568H33.8608C34.1375 12.3568 34.3216 12.2899 34.4366 12.1787L34.437 12.1782ZM37.155 13.1368C37.2934 13.315 37.5004 13.4045 37.7308 13.4045C37.9613 13.4045 38.1686 13.3154 38.3067 13.1368C38.4451 12.9587 38.5139 12.7357 38.5139 12.4237V10.3732H39.3662V12.4459C39.3662 12.9808 39.2053 13.4045 38.9057 13.6943C38.606 13.9842 38.2146 14.118 37.7308 14.118C37.2474 14.118 36.8557 13.962 36.556 13.6722C36.2567 13.3823 36.0954 12.9591 36.0954 12.4237V10.351H36.9477V12.4463C36.9477 12.7362 37.017 12.9813 37.155 13.1373V13.1368ZM41.8775 11.1084V14.0954H41.0252V11.1084H39.9424V10.3953H42.9602V11.1084H41.8775ZM43.6052 10.3953H44.4575V14.1176H43.6052V10.3953ZM48.0737 10.3953H48.926V14.0954H48.0737L46.2542 11.7772V14.0954H45.4019V10.3953H46.185L48.0737 12.7805V10.3953ZM52.3812 12.223H53.2335V13.5379C52.8418 13.939 52.3348 14.1619 51.6441 14.1619C51.0915 14.1619 50.6077 13.9837 50.2164 13.627C49.8247 13.2702 49.6406 12.8022 49.6406 12.2673C49.6406 11.7324 49.8247 11.2644 50.2164 10.8855C50.6077 10.5065 51.0687 10.3284 51.6213 10.3284C52.1743 10.3284 52.6577 10.5065 53.0494 10.8633L52.6113 11.4873C52.4504 11.3313 52.2892 11.2422 52.1279 11.1975C51.9895 11.1527 51.8282 11.1084 51.667 11.1084C51.3448 11.1084 51.068 11.2196 50.8379 11.4204C50.6074 11.6433 50.4925 11.9105 50.4925 12.2673C50.4925 12.6241 50.6074 12.8913 50.8147 13.1142C51.0223 13.315 51.2756 13.4262 51.5749 13.4262C51.8746 13.4262 52.1279 13.3814 52.312 13.2702L52.3812 12.2225V12.223ZM58.0708 10.3953V11.1084H56.297V11.911H58.0016V12.6467H56.297V14.0954H55.4447V10.3953H58.0708ZM62.033 13.5826C61.6413 13.9394 61.1575 14.1397 60.6049 14.1397C60.0519 14.1397 59.5685 13.9615 59.1768 13.5826C58.7854 13.2259 58.601 12.7579 58.601 12.223C58.601 11.6881 58.7854 11.2201 59.1768 10.8633C59.5685 10.5065 60.0519 10.3063 60.6049 10.3063C61.1575 10.3063 61.6413 10.4844 62.033 10.8633C62.4244 11.2201 62.6085 11.6881 62.6085 12.223C62.6085 12.7579 62.4244 13.2259 62.033 13.5826ZM61.7333 12.223C61.7333 11.8888 61.6185 11.599 61.4108 11.3761C61.1804 11.1531 60.9274 11.0193 60.6049 11.0193C60.2824 11.0193 60.0059 11.1306 59.7986 11.3761C59.5685 11.599 59.4765 11.8888 59.4765 12.223C59.4765 12.5571 59.5913 12.8248 59.7986 13.0699C60.0291 13.2928 60.2824 13.4266 60.6049 13.4266C60.9274 13.4266 61.2039 13.3154 61.4108 13.0699C61.6413 12.847 61.7333 12.5571 61.7333 12.223ZM64.3595 13.1368C64.4979 13.315 64.7048 13.4045 64.9353 13.4045C65.1654 13.4045 65.373 13.3154 65.5107 13.1368C65.6492 12.9587 65.7184 12.7357 65.7184 12.4237V10.3732H66.5707V12.4459C66.5707 12.9808 66.4094 13.4045 66.1097 13.6943C65.8104 13.9842 65.4187 14.118 64.9353 14.118C64.4515 14.118 64.0598 13.962 63.7605 13.6722C63.4608 13.3823 63.2995 12.9591 63.2995 12.4237V10.351H64.1518V12.4463C64.129 12.7362 64.221 12.9813 64.3595 13.1373V13.1368ZM70.1411 10.3953H70.9934V14.0954H70.1411L68.3216 11.7772V14.0954H67.4693V10.3953H68.2524L70.1411 12.7805V10.3953ZM74.8636 10.8855C75.2321 11.2196 75.4162 11.6655 75.4162 12.2452C75.4162 12.8248 75.2321 13.2706 74.8864 13.6048C74.541 13.939 73.9877 14.1176 73.251 14.1176H71.9378V10.3953H73.2967C73.9877 10.3953 74.5179 10.5513 74.8629 10.8855H74.8636ZM74.2417 13.092C74.449 12.8913 74.5639 12.6241 74.5639 12.2673C74.5639 11.9105 74.449 11.6207 74.2417 11.4204C74.0341 11.2196 73.7116 11.1306 73.2742 11.1306H72.7908V13.3819H73.3434C73.7351 13.3597 74.0344 13.2706 74.2421 13.092H74.2417ZM78.7794 14.095L78.434 13.2924H76.8215L76.4761 14.095H75.5546L77.2128 10.3727H78.0423L79.7009 14.095H78.7794ZM77.6274 11.4869L77.144 12.5567H78.1112L77.6274 11.4869ZM81.4975 11.108V14.095H80.6224V11.108H79.5396V10.3949H82.5803V11.108H81.4975ZM83.2021 10.3949H84.0544V14.1171H83.2021V10.3949ZM88.2235 13.5822C87.8322 13.939 87.3484 14.1392 86.7954 14.1392C86.2428 14.1392 85.759 13.9611 85.3677 13.5822C84.9759 13.2254 84.7918 12.7574 84.7918 12.2225C84.7918 11.6876 84.9759 11.2196 85.3677 10.8629C85.759 10.5061 86.2428 10.3058 86.7954 10.3058C87.3484 10.3058 87.8322 10.484 88.2235 10.8629C88.6153 11.2196 88.7994 11.6876 88.7994 12.2225C88.7994 12.7574 88.6153 13.2254 88.2235 13.5822ZM87.9471 12.2225C87.9471 11.8884 87.8322 11.5986 87.6245 11.3756C87.3941 11.1527 87.1408 11.0189 86.8186 11.0189C86.4961 11.0189 86.2193 11.1301 86.0123 11.3756C85.7819 11.5986 85.6898 11.8884 85.6898 12.2225C85.6898 12.5567 85.8051 12.8244 86.0123 13.0694C86.2428 13.2924 86.4961 13.4262 86.8186 13.4262C87.1408 13.4262 87.4176 13.315 87.6245 13.0694C87.8322 12.8465 87.9471 12.5567 87.9471 12.2225ZM92.2086 10.3949H93.0837V14.095H92.2086L90.3891 11.7767V14.095H89.5368V10.3949H90.3427L92.2086 12.78V10.3949Z" fill="white"/>
<path d="M2.25834 9.70414H0.162109V14.474H5.06859V12.4234H2.25834V9.70414ZM12.8082 9.72628V12.4234H9.99795V14.474H14.9044V9.70414H12.7853L12.8082 9.72628ZM0.162109 4.95639H2.28123L2.25834 4.93424V2.23709H5.06859V0.186523H0.162109V4.95639ZM9.99795 0.186523V2.23709H12.8082V4.95639H14.9044V0.186523H9.99795Z" fill="white"/>
<path d="M9.72129 4.9564L6.91109 2.23709H9.99795V0.186523H5.06859V2.23709L7.87883 4.9564H9.72178H9.72129ZM7.18771 9.70415H5.34473L7.67134 11.9555L8.13209 12.4235H5.06859V14.474H9.99795V12.4013L8.59281 11.0638L7.18771 9.70415ZM12.8082 4.9564V7.92079L12.3245 7.4528L9.99795 5.20148V7.00696L11.3801 8.34448L12.7853 9.70415H14.9044V4.9564H12.8082ZM5.06859 7.65356L2.28123 4.9564H0.162109V9.70415H2.25834V6.73973L5.06859 9.45907V7.65356Z" fill="white"/>
</g>
<defs>
<clipPath id="clip0_5624_9589">
<rect width="93.0853" height="14.6977" fill="white"/>
</clipPath>
</defs>
</svg>
