<svg width="136" height="25" viewBox="0 0 136 25" fill="none" xmlns="http://www.w3.org/2000/svg">
<g clip-path="url(#clip0_5624_9584)">
<path fill-rule="evenodd" clip-rule="evenodd" d="M13.656 10.4092V13.9755H16.9459C18.7605 13.9755 20.2311 15.4685 20.2311 17.3127C20.2311 19.1568 18.7554 20.6499 16.9413 20.6499C15.1272 20.6499 13.6515 19.1427 13.6515 17.2979V7.10153C13.6515 5.57446 13.1451 4.03265 12.2335 2.8522C11.8899 2.43753 12.0043 2.44718 11.5933 2.79831C11.5836 2.80795 11.5745 2.81759 11.5647 2.8227L9.66894 4.74512C9.34885 5.06735 9.38259 4.94993 9.60663 5.31126C9.95528 5.87736 10.1319 6.47752 10.1319 7.10153V17.3178C10.1319 21.128 13.1828 24.2162 16.9407 24.2162C20.6986 24.2162 23.745 21.128 23.745 17.3178C23.745 13.5075 20.6986 10.4194 16.9407 10.4194C14.4385 10.4097 13.3406 10.4098 13.6555 10.4098L13.656 10.4092Z" fill="white"/>
<path fill-rule="evenodd" clip-rule="evenodd" d="M6.86623 3.82289C7.5921 3.82289 8.22249 4.01804 8.76661 4.40319L11.2403 1.87606C10.0086 0.788067 8.55229 0.246338 6.86623 0.246338C3.13232 0.246338 0.0957031 3.34922 0.0957031 7.16458C0.0957031 10.98 3.13232 14.0828 6.86623 14.0828H9.2587V10.5069H6.86623C5.06129 10.5069 3.59527 9.0042 3.59527 7.16515C3.5907 5.32099 5.06129 3.82346 6.86623 3.82346V3.82289Z" fill="white"/>
<path fill-rule="evenodd" clip-rule="evenodd" d="M13.6504 10.4343H17.1123V14.0006H13.6504V10.4343Z" fill="white"/>
<path d="M133.85 16.5228C134.722 16.5228 135.43 17.2546 135.43 18.1474C135.43 19.0403 134.722 19.7772 133.85 19.7772C132.977 19.7772 132.283 19.0403 132.283 18.1474C132.283 17.2546 132.98 16.5228 133.85 16.5228ZM133.85 16.845C133.161 16.845 132.617 17.4112 132.617 18.1474C132.617 18.8837 133.161 19.4549 133.85 19.4549C134.538 19.4549 135.081 18.8888 135.081 18.1474C135.081 17.406 134.541 16.845 133.85 16.845ZM133.926 17.25C134.259 17.25 134.513 17.494 134.513 17.8065C134.513 18.0555 134.361 18.2552 134.136 18.3284L134.522 19.021H134.144L133.781 18.3624H133.653V19.021H133.322V17.25H133.925H133.926ZM133.878 17.5377H133.654V18.0646H133.878C134.074 18.0646 134.179 17.9671 134.179 17.8059C134.179 17.6352 134.07 17.5377 133.878 17.5377ZM116.583 9.15588C120.026 9.15588 121.602 11.9076 121.602 14.913C121.602 15.0496 121.597 15.196 121.587 15.352L121.578 15.4689L121.563 15.7031H114.391C114.677 17.0691 115.604 17.7815 116.907 17.7815C117.863 17.7815 118.56 17.4838 119.337 16.7571L119.404 16.6935L121.076 18.2155C120.117 19.4402 118.732 20.1913 116.864 20.1913C113.799 20.1913 111.526 18.0005 111.483 14.8103V14.5811C111.53 11.5951 113.617 9.15588 116.581 9.15588H116.583ZM105.013 9.15588C108.456 9.15588 110.032 11.9076 110.032 14.913C110.032 15.0496 110.027 15.196 110.017 15.352L110.007 15.4689L109.993 15.7031H102.821C103.108 17.0691 104.034 17.7815 105.338 17.7815C106.293 17.7815 106.99 17.4838 107.768 16.7571L107.835 16.6935L109.506 18.2155C108.547 19.4402 107.162 20.1913 105.295 20.1913C102.229 20.1913 99.9568 18.0005 99.9139 14.8103V14.5811C99.9616 11.5951 102.048 9.15588 105.013 9.15588ZM56.7012 9.15588C59.8617 9.15588 62.2113 11.5417 62.2542 14.5419V14.7666C62.2064 17.7719 59.8382 20.1918 56.6628 20.1918C53.4874 20.1918 51.1524 17.8059 51.1099 14.8057V14.5811C51.1577 11.5758 53.5254 9.15588 56.7012 9.15588ZM40.1898 5.8726C42.6867 5.8726 44.1959 6.71667 45.4372 7.95099L45.4943 8.00942L43.608 10.2439C42.5718 9.2727 41.5125 8.68278 40.1658 8.68278C37.9219 8.68278 36.2981 10.5808 36.265 12.9224V13.1079C36.2981 15.4496 37.8836 17.3867 40.1658 17.3867C41.6076 17.3867 42.5244 16.8308 43.5036 15.9476L43.5704 15.8892L43.7043 15.7672L45.5902 17.7237C44.2056 19.2456 42.6681 20.1969 40.0755 20.1969C36.1552 20.1969 33.2329 17.1133 33.1758 13.1959V12.9224C33.2329 9.02934 36.0981 5.8726 40.1898 5.8726ZM126.768 9.19499C128.076 9.19499 129.5 9.64881 130.612 10.4197L129.5 12.4981C128.482 11.8832 127.461 11.5077 126.71 11.5077C125.999 11.5077 125.636 11.8248 125.636 12.2395V12.2786C125.636 12.8736 126.615 13.1471 127.732 13.5425L127.9 13.6009L128.07 13.6644C129.403 14.1522 130.808 14.8795 130.845 16.6158V16.7282C130.845 19.0794 129.135 20.1481 126.906 20.1481C125.464 20.1481 123.851 19.6552 122.484 18.5479L123.735 16.5722C124.848 17.4015 126.024 17.836 126.983 17.836C127.828 17.836 128.214 17.5189 128.214 17.0458V17.0067C128.214 16.3674 127.25 16.1433 126.142 15.8018L125.866 15.7139L125.751 15.6799C124.42 15.2408 123.04 14.5187 123.006 12.6746V12.5577C123.001 10.4016 124.696 9.19612 126.768 9.19612V9.19499ZM85.3745 5.51636V19.9524H82.452V18.4305C81.7407 19.4209 80.7619 20.1527 79.2434 20.1527C76.8651 20.1527 74.5973 18.2546 74.5544 14.7813V14.5278C74.5973 11.0539 76.8275 9.15644 79.2434 9.15644C80.7093 9.15644 81.6497 9.80535 82.3326 10.591L82.3755 10.6398L82.4569 10.7374V5.51692H85.3737L85.3745 5.51636ZM66.5758 9.35101V15.264C66.5758 16.6884 67.2301 17.4202 68.3424 17.4202C69.4546 17.4202 70.1429 16.7129 70.1664 15.3373V9.35101H73.0885V19.9524H70.1664V18.4498C69.4931 19.3375 68.6288 20.1527 67.1483 20.1527C64.9618 20.1527 63.6768 18.6795 63.6485 16.2936V9.35101H66.575H66.5758ZM93.4631 6.10687C95.0003 6.10687 96.2133 6.54082 96.982 7.33156C97.5784 7.94645 97.8843 8.68788 97.9034 9.59548V9.80535C97.8746 11.3177 97.0775 12.1669 96.1368 12.708L96.2748 12.7664C97.7265 13.3717 98.624 14.2787 98.6531 16.0253V16.2256C98.6147 18.6846 96.662 19.9235 93.7063 19.9479H87.2175V6.10687H93.4631ZM49.7828 5.51636V19.9524H46.8603V5.51636H49.7828ZM79.9932 11.7074C78.6466 11.7074 77.5052 12.8243 77.4769 14.5612V14.7467C77.5052 16.4689 78.6466 17.6006 79.9932 17.6006C81.3397 17.6006 82.4617 16.4638 82.4904 14.7467V14.6344C82.4904 12.8731 81.3587 11.7074 79.9932 11.7074ZM56.6636 11.7465C55.0112 11.7465 54.0183 13.0347 53.9944 14.5715V14.7371C54.0227 16.2738 55.1115 17.6012 56.7061 17.6012C58.3011 17.6012 59.3515 16.3135 59.3753 14.7762V14.61C59.347 13.0733 58.2582 11.746 56.6636 11.746V11.7465ZM93.5206 14.2396H90.0972V17.2841H93.6161C94.9003 17.2841 95.6832 16.8257 95.712 15.8353V15.6941C95.693 14.7916 95.0148 14.2402 93.5202 14.2402L93.5206 14.2396ZM116.583 11.5661C115.394 11.5661 114.611 12.4249 114.367 13.7518L114.354 13.8198H118.755C118.583 12.4783 117.815 11.5661 116.582 11.5661H116.583ZM105.013 11.5661C103.824 11.5661 103.042 12.4249 102.798 13.7518L102.784 13.8198H107.186C107.014 12.4783 106.246 11.5661 105.014 11.5661H105.013ZM93.0233 8.78033H90.1012V11.7074H92.8323C94.117 11.7074 94.938 11.2876 94.9667 10.2972V10.2047C94.9622 9.29258 94.2695 8.78033 93.0233 8.78033Z" fill="white"/>
</g>
<defs>
<clipPath id="clip0_5624_9584">
<rect width="135.545" height="24.4961" fill="white"/>
</clipPath>
</defs>
</svg>
