<svg width="128" height="21" viewBox="0 0 128 21" fill="none" xmlns="http://www.w3.org/2000/svg">
<g clip-path="url(#clip0_5624_9435)">
<path d="M17.1426 6.17702C17.1426 6.17702 20.4531 9.52528 19.4792 15.136C22.7896 13.8124 24.0733 11.5926 24.4634 9.37353C24.4634 9.37353 25.5919 5.16743 27.3454 3.41602C23.8797 3.96135 23.5294 2.598 17.144 6.17775" fill="white"/>
<path d="M17.8032 16.3796C17.8808 15.9516 19.1583 11.5848 16.628 8.04151C12.391 3.33334 6.00488 2.67261 6.00488 2.67261C7.25082 5.08883 7.29065 7.34436 8.65265 11.9406C10.3024 16.7024 16.3897 17.0231 16.8403 17.0355C17.2496 17.6824 18.1864 18.5541 20.3314 19.0046L20.5697 17.8707C18.718 17.4826 18.0415 16.7676 17.808 16.3741L17.8032 16.3796ZM11.8402 10.477C11.3484 8.88564 9.9796 6.20359 8.35591 4.79353C8.35591 4.79353 13.1712 6.06346 15.9502 15.0835C13.3319 14.2916 12.2152 11.7009 11.8354 10.477" fill="white"/>
<path d="M6.68779 1.28834C3.99544 2.56034 2.91506 5.66546 2.91506 10.4114C2.91506 15.1574 3.99407 18.1952 6.68779 19.5585L6.3856 20.7234C2.2468 19.2687 0.371094 16.0345 0.371094 10.43C0.371094 4.82549 2.2468 1.54659 6.3856 0.122803L6.68779 1.28765V1.28834Z" fill="white"/>
<path d="M26.6304 0.122803C30.7726 1.54521 32.645 4.7829 32.645 10.4279C32.645 16.0729 30.7692 19.268 26.6304 20.7111L26.3076 19.5475C29.0034 18.189 30.0804 15.0605 30.0804 10.4004C30.0804 5.7403 29.0014 2.55278 26.3076 1.28078L26.6304 0.122803Z" fill="white"/>
<path d="M44.9821 15.4031C43.8152 15.912 42.3468 16.0816 41.0659 16.0816C37.7725 16.0816 36.1901 14.651 36.6991 11.0369C37.1682 7.62818 38.4683 6.23535 41.9148 6.23535C43.2129 6.23535 44.7953 6.44272 45.8846 6.91392L45.4169 9.00253L42.3482 8.98333C40.9553 8.98333 40.4841 9.45448 40.2581 11.1475C40.0129 13.0115 40.3344 13.3495 41.6888 13.3495C42.7074 13.3549 43.7252 13.3055 44.7383 13.199L44.9814 15.4031H44.9821Z" fill="white"/>
<path d="M57.0116 11.3192C56.4938 14.8399 55.0735 16.0809 51.4891 16.0809C47.9044 16.0809 46.3941 14.7258 46.9202 11.0555C47.412 7.49841 48.8411 6.23535 52.4761 6.23535C56.1106 6.23535 57.5401 7.62959 57.013 11.3199L57.0116 11.3192ZM50.4807 11.3199C50.2171 13.2409 50.3859 13.6915 51.6111 13.6915C52.8364 13.6915 53.1753 13.1839 53.4753 11.0561C53.7753 9.09871 53.5701 8.63991 52.4212 8.63991C51.1784 8.63991 50.8021 9.10902 50.4816 11.313" fill="white"/>
<path d="M67.8912 15.8558H65.199L65.1626 14.2748C64.2771 15.1223 62.9789 16.0818 61.4911 16.0818C59.308 16.0818 58.3292 14.5371 58.7989 10.9608C59.3167 7.04455 60.8512 6.23548 62.8652 6.23548C63.875 6.23548 64.883 6.32616 65.8768 6.50815C65.8671 5.86527 65.9118 5.22244 66.0091 4.58711L66.3285 2.68872H69.751L67.8903 15.8558H67.8912ZM64.334 8.43471C62.9036 8.43471 62.5647 8.73485 62.2817 10.9011C62.0561 12.5962 62.0182 13.2727 62.8652 13.217C63.6363 13.1978 64.2771 12.8029 64.9744 12.2383L65.482 8.44157L64.334 8.43471Z" fill="white"/>
<path d="M79.6586 15.329C78.3959 15.895 76.7588 16.0818 75.3648 16.0818C71.3744 16.0818 70.2838 14.3318 70.6392 11.0563C71.0739 7.16132 72.8433 6.23755 76.2123 6.23755C79.9017 6.23755 80.8722 7.46147 80.5786 9.60643C80.3145 11.3585 79.1286 11.8585 76.6552 12.0536L74.1133 12.2418C74.1531 13.2411 74.6413 13.4293 75.6959 13.4293C76.5225 13.4293 78.2846 13.3345 79.4218 13.2033L79.6581 15.3297L79.6586 15.329ZM75.9123 10.2822C76.7598 10.206 77.21 10.0748 77.2927 9.26574C77.3496 8.64415 77.1045 8.53086 76.1622 8.54939C75.0123 8.56864 74.6364 8.90656 74.336 10.4327L75.9113 10.2822H75.9123Z" fill="white"/>
<path d="M87.9412 3.85147C86.7913 3.85147 86.3221 4.1152 86.1533 5.31988L85.9457 6.6798H88.7887L88.599 8.08298H85.7561L84.5138 16.9128C84.2707 18.6264 83.29 19.6038 81.5211 19.6038C80.7602 19.5983 80.0002 19.5474 79.2451 19.452L79.5281 18.0955H80.9401C82.071 18.0955 82.5397 17.8318 82.7109 16.6271L83.9192 8.08021H82.2811L82.4532 6.76153L84.1292 6.66813L84.3553 5.03005C84.595 3.31643 85.5689 2.36517 87.3568 2.36517C88.2558 2.35419 89.1538 2.39814 90.0475 2.49635L89.7475 3.8597L87.9426 3.85078L87.9412 3.85147Z" fill="white"/>
<path d="M96.5245 8.13918H96.0067C94.971 8.13918 93.9738 8.82942 92.3824 10.0032L91.5723 15.8577H89.7451L91.0428 6.67074H92.4373L92.3425 8.77997C93.8095 7.27516 95.2404 6.42554 96.4846 6.42554H96.9752L96.5245 8.13918Z" fill="white"/>
<path d="M105.503 15.5555C104.506 15.9504 102.811 16.0836 101.721 16.0836C98.5378 16.0836 97.4473 14.4456 97.898 11.0196C98.3881 7.44198 99.6479 6.42554 102.979 6.42554C105.991 6.42554 106.725 7.556 106.462 9.40082C106.162 11.2271 105.107 11.8858 102.867 12.0554L99.6844 12.3384C99.6649 14.1832 100.532 14.5582 101.999 14.5582C103.017 14.5582 104.334 14.4462 105.388 14.3322L105.503 15.5561V15.5555ZM102.868 10.6968C103.999 10.6227 104.487 10.3033 104.637 9.24698C104.81 7.98529 104.168 7.94887 102.699 7.94887C100.837 7.94887 100.196 8.45643 99.8015 10.9798L102.868 10.6968Z" fill="white"/>
<path d="M110.548 11.2989C109.232 10.6773 108.61 9.96301 108.779 8.62575C108.986 6.87575 110.247 6.38189 112.657 6.4238C113.973 6.44578 115.287 6.55294 116.59 6.74456L116.364 8.04263C115.197 8.00626 114.105 7.96639 112.713 7.94786C111.205 7.94786 110.642 7.98564 110.546 8.75762C110.453 9.44791 110.892 9.64298 111.641 9.98158L114.126 11.112C115.555 11.7714 116.14 12.3545 115.95 13.7666C115.668 15.8566 114.181 16.0641 111.601 16.0641C109.625 16.0641 109.38 15.9315 108.044 15.8003L108.252 14.4452C109.099 14.5194 110.284 14.54 111.132 14.54C113.448 14.54 114.05 14.3518 114.163 13.5977C114.275 12.9212 113.817 12.8072 113.013 12.4308L110.549 11.3003L110.548 11.2989Z" fill="white"/>
<path d="M121.542 6.29422C121.435 7.05521 121.284 7.80938 121.09 8.55321C122.69 7.14107 124.024 6.4254 125.344 6.4254C126.87 6.4254 127.774 7.31072 127.529 9.00374L126.55 15.8555H124.742L125.627 9.45568C125.778 8.30591 125.57 7.96804 124.78 7.96804C123.649 7.96804 122.558 8.73933 120.983 9.98177L120.173 15.85H118.342L120.206 2.67261H122.011L121.542 6.29354V6.29422Z" fill="white"/>
</g>
<defs>
<clipPath id="clip0_5624_9435">
<rect width="127.876" height="20.9075" fill="white"/>
</clipPath>
</defs>
</svg>
