<svg width="60" height="16" viewBox="0 0 60 16" fill="none" xmlns="http://www.w3.org/2000/svg">
<g>
<path d="M20.2311 11.18C19.7285 10.9045 19.3062 10.4851 19.0112 9.96896C18.7163 9.45283 18.5605 8.85941 18.5605 8.25443C18.5605 7.64948 18.7163 7.05603 19.0112 6.5399C19.3062 6.02373 19.728 5.60483 20.2311 5.32888C20.7725 5.03664 21.3722 4.88948 21.9786 4.89949C22.5616 4.88632 23.1382 5.03456 23.6522 5.32888C24.122 5.60167 24.4938 6.03478 24.7074 6.55936L23.3352 7.34567C23.0187 6.74805 22.5626 6.44948 21.9674 6.44948C21.7562 6.44215 21.5456 6.48155 21.3491 6.56513C21.1526 6.64818 20.9738 6.7738 20.8244 6.93409C20.6696 7.11017 20.5496 7.3178 20.4717 7.54488C20.3938 7.77194 20.36 8.01372 20.3722 8.25495C20.36 8.49621 20.3938 8.73748 20.4712 8.96453C20.5491 9.19162 20.6691 9.39869 20.8244 9.57424C20.9738 9.73454 21.1526 9.86016 21.3491 9.94321C21.5456 10.0268 21.7562 10.0657 21.9674 10.0589C22.2515 10.0657 22.5317 9.98526 22.7742 9.826C23.0167 9.66727 23.2113 9.43653 23.3352 9.16271L24.7045 9.97004C24.484 10.482 24.1146 10.904 23.6522 11.1732C23.1373 11.4733 22.5582 11.6236 21.9723 11.6089C21.3682 11.6178 20.7705 11.4707 20.2306 11.1795L20.2311 11.18Z" fill="white"/>
<path d="M31.6428 4.99622L28.8988 11.9106C28.6195 12.6643 28.2747 13.1931 27.8646 13.4979C27.4256 13.8138 26.9053 13.9747 26.3763 13.9584C26.0578 13.9557 25.7413 13.9016 25.4386 13.797C25.1618 13.7087 24.905 13.5599 24.6846 13.3592L25.3298 12.0157C25.4665 12.1461 25.6237 12.2485 25.7942 12.3195C25.9623 12.3889 26.1406 12.4257 26.3204 12.4278C26.5306 12.4378 26.7378 12.3715 26.9083 12.2406C27.0886 12.0704 27.2282 11.857 27.3154 11.6173L27.3379 11.5558L24.7066 4.99674H26.5281L28.2305 9.41289L29.9497 4.99146L31.6428 4.99622Z" fill="white"/>
<path d="M33.3727 11.1789C32.8701 10.9029 32.4477 10.484 32.1528 9.96786C31.8579 9.45173 31.7021 8.85832 31.7021 8.25333C31.7021 7.64839 31.8579 7.05497 32.1528 6.5388C32.4477 6.02267 32.8696 5.60373 33.3727 5.32779C33.9141 5.03555 34.5137 4.88839 35.1201 4.89839C35.7052 4.88418 36.2837 5.03242 36.7997 5.32779C37.2662 5.60165 37.6338 6.03477 37.8447 6.55826L36.4768 7.34457C36.1602 6.74695 35.7038 6.44839 35.1076 6.44839C34.8964 6.44158 34.6862 6.48098 34.4902 6.56403C34.2937 6.6476 34.1154 6.7727 33.9665 6.93248C33.8117 7.10855 33.6917 7.31618 33.6138 7.54327C33.5359 7.77032 33.502 8.01211 33.5143 8.25333C33.502 8.4946 33.5359 8.73586 33.6133 8.96292C33.6912 9.18997 33.8112 9.39707 33.9665 9.57263C34.1164 9.73293 34.2952 9.85907 34.4927 9.94212C34.6897 10.0257 34.9009 10.0646 35.1124 10.0567C35.3972 10.0641 35.6774 9.98364 35.9202 9.82439C36.1633 9.66565 36.3582 9.43492 36.4817 9.16053L37.8489 9.96786C37.6324 10.4819 37.2662 10.9071 36.8039 11.1789C36.2896 11.479 35.71 11.6293 35.1246 11.6146C34.5162 11.623 33.9146 11.4727 33.3727 11.1768V11.1789Z" fill="white"/>
<path d="M39.9359 11.1787C39.4431 10.907 39.0304 10.4939 38.7436 9.98558C38.4536 9.46208 38.3048 8.8629 38.3139 8.25475C38.3048 7.64556 38.4536 7.04586 38.7436 6.52184C39.0304 6.01356 39.4431 5.60043 39.9359 5.32869C40.4697 5.03645 41.0621 4.88876 41.661 4.89926C42.2583 4.88824 42.8492 5.03593 43.3802 5.32869C43.871 5.60147 44.2816 6.0146 44.5667 6.52184C44.8573 7.04586 45.0058 7.64556 44.9964 8.25475C45.0058 8.86342 44.8566 9.4626 44.5667 9.98558C44.2816 10.4928 43.871 10.9059 43.3802 11.1787C42.8492 11.4715 42.2586 11.6192 41.661 11.6081C41.0621 11.6181 40.4697 11.4709 39.9359 11.1787ZM42.775 9.56404C43.0761 9.20504 43.2321 8.73304 43.2092 8.25107C43.2318 7.76858 43.0761 7.29658 42.775 6.93654C42.6321 6.7762 42.4587 6.65006 42.2666 6.56649C42.0744 6.48292 41.8684 6.44404 41.661 6.45192C41.4529 6.44404 41.2462 6.48344 41.0531 6.56649C40.8602 6.65006 40.6858 6.77568 40.5411 6.93598C40.3903 7.11313 40.2737 7.32024 40.1981 7.54625C40.1229 7.77174 40.0896 8.0114 40.101 8.25055C40.0885 8.49129 40.1208 8.732 40.1961 8.95905C40.2717 9.18614 40.3882 9.39481 40.5401 9.57297C40.6847 9.7333 40.8592 9.85892 41.052 9.94249C41.2452 10.0261 41.4522 10.0649 41.66 10.0576C41.8664 10.0649 42.072 10.0255 42.2631 9.94197C42.4542 9.8584 42.6273 9.73274 42.7698 9.57297L42.7757 9.56352L42.775 9.56404Z" fill="white"/>
<path d="M52.3417 2.52515V11.5115H50.6575V10.7604C50.2206 11.3254 49.5869 11.6082 48.7577 11.6082C48.2149 11.6166 47.6797 11.4747 47.2032 11.1966C46.7447 10.9244 46.3684 10.517 46.1191 10.0229C45.8458 9.47739 45.7088 8.86555 45.7226 8.24691C45.7119 7.63355 45.8485 7.02752 46.1191 6.48665C46.3698 5.99046 46.7489 5.58261 47.2105 5.31087C47.687 5.03285 48.2222 4.89089 48.7649 4.89934C49.5411 4.89934 50.1474 5.16211 50.5851 5.68721V2.52567H52.3414L52.3417 2.52515ZM50.1706 9.57357C50.3218 9.39694 50.4384 9.18987 50.514 8.96438C50.5899 8.73889 50.6232 8.49975 50.6118 8.2606C50.6232 8.0209 50.5899 7.78176 50.514 7.55627C50.4384 7.33078 50.3215 7.12315 50.1706 6.94656C49.8741 6.63225 49.4738 6.45566 49.057 6.45566C48.6401 6.45566 48.2399 6.63225 47.9433 6.94656C47.7925 7.12371 47.6752 7.33078 47.5996 7.55627C47.5237 7.78176 47.4904 8.02142 47.5015 8.2606C47.4904 8.49975 47.5237 8.73889 47.5996 8.96438C47.6752 9.18987 47.7921 9.39694 47.9433 9.57357C48.2399 9.88788 48.6394 10.0645 49.057 10.0645C49.4742 10.0645 49.8741 9.88788 50.1706 9.57357Z" fill="white"/>
<path d="M59.873 8.78821H55.2714C55.3442 9.17612 55.5555 9.51881 55.8593 9.7443C56.1998 9.98817 56.6035 10.1106 57.0124 10.0949C57.3 10.1001 57.585 10.0492 57.8556 9.94456C58.1115 9.83364 58.3435 9.66914 58.5391 9.45995L59.4783 10.55C58.9054 11.2575 58.0713 11.6102 56.9757 11.6092C56.3452 11.6223 55.7212 11.4751 55.1542 11.1797C54.6496 10.9148 54.2257 10.5007 53.933 9.98661C53.6427 9.46363 53.4943 8.86389 53.5033 8.25578C53.4953 7.64975 53.6424 7.05266 53.9285 6.52968C54.2053 6.02244 54.6086 5.60722 55.0924 5.32968C55.603 5.03904 56.1731 4.89135 56.7509 4.90028C57.3131 4.89188 57.8684 5.03327 58.3671 5.31182C58.8433 5.58095 59.2376 5.99041 59.5044 6.49236C59.7853 7.04004 59.9243 7.65816 59.9077 8.28309C59.9077 8.30412 59.8963 8.4739 59.8737 8.78873L59.873 8.78821ZM55.7462 6.68894C55.4698 6.94121 55.2915 7.29601 55.2482 7.68179H58.244C58.1986 7.29809 58.0207 6.94646 57.747 6.69522C57.4685 6.44555 57.1144 6.31416 56.752 6.32521C56.3864 6.31364 56.0292 6.44399 55.7462 6.69158V6.68841V6.68894Z" fill="white"/>
<path fill-rule="evenodd" clip-rule="evenodd" d="M12.518 3.80469L7.10838 0.455518C6.95945 0.363538 6.79093 0.315186 6.61898 0.315186C6.44702 0.315186 6.27847 0.363538 6.12954 0.455518L5.02235 1.13356L11.4069 5.09455V11.0166L9.81122 12.0042L5.02235 9.04294V8.09366C5.19871 7.91758 5.32121 7.68897 5.37365 7.43717C5.42605 7.18541 5.40597 6.92208 5.31583 6.68294C5.22566 6.4438 5.07039 6.23881 4.86951 6.09637C4.66867 5.95338 4.43252 5.87929 4.19148 5.8835C3.95043 5.8877 3.71626 5.96968 3.51979 6.11948C3.32335 6.26876 3.17392 6.47848 3.09113 6.7213C3.00833 6.96361 2.9961 7.22694 3.05587 7.47714C3.11564 7.72733 3.24498 7.95178 3.42624 8.12153V10.0316L9.81219 13.98L12.5175 12.3075C12.6664 12.2155 12.7899 12.0836 12.8761 11.9243C12.9623 11.7651 13.0074 11.5842 13.0079 11.4003V4.71297C13.0079 4.52901 12.9623 4.34817 12.8761 4.18891C12.7899 4.02966 12.6664 3.89719 12.5175 3.80577L12.518 3.80469Z" fill="white"/>
<path fill-rule="evenodd" clip-rule="evenodd" d="M9.81113 7.96607V6.08071L3.42369 2.13232L0.719399 3.80324C0.570467 3.89574 0.447006 4.02821 0.361272 4.18746C0.275537 4.34672 0.230469 4.52804 0.230469 4.712V11.3993C0.230469 11.5833 0.275537 11.7641 0.361272 11.9233C0.447006 12.0826 0.570467 12.2151 0.719399 12.3071L6.12751 15.6478C6.27644 15.7398 6.44496 15.7882 6.61695 15.7882C6.7889 15.7882 6.95742 15.7398 7.10634 15.6478L8.20962 14.9698L1.82756 11.0172V5.09518L3.42321 4.10757L8.20962 7.06884V7.98445C8.03277 8.15896 7.9093 8.38705 7.85593 8.63829C7.80252 8.88953 7.82114 9.15234 7.90982 9.39204C7.99847 9.6317 8.15277 9.83669 8.35268 9.98017C8.55255 10.1237 8.78822 10.1994 9.02877 10.1967C9.26929 10.1941 9.50347 10.1132 9.70043 9.96547C9.89739 9.81723 10.0478 9.60912 10.132 9.36733C10.2163 9.12607 10.23 8.86274 10.1717 8.61254C10.1134 8.36235 9.98555 8.13741 9.80527 7.96659H9.81016L9.81113 7.96607Z" fill="white"/>
</g>
</svg>
