<svg width="84" height="23" viewBox="0 0 84 23" fill="none" xmlns="http://www.w3.org/2000/svg">
<g clip-path="url(#clip0_5624_9449)">
<path d="M39.2539 6.71531C38.8166 6.70016 38.4505 7.05743 38.4361 7.51312C38.4358 7.53127 38.4358 7.54942 38.4361 7.5676V11.6656C36.5394 10.0776 33.766 10.3935 32.2429 12.3706C31.6144 13.1861 31.2721 14.2014 31.2721 15.2474C31.2305 17.7821 33.1685 19.8723 35.6006 19.9157C38.0324 19.9591 40.0378 17.9391 40.0793 15.4044C40.0803 15.3519 40.0803 15.2999 40.0793 15.2474V7.57164C40.0861 7.34154 39.9984 7.11948 39.8393 6.96005C39.6834 6.80108 39.4723 6.71427 39.2539 6.71934V6.71531ZM38.2192 16.3521C37.9378 17.0414 37.4131 17.5919 36.7533 17.8891C36.062 18.1944 35.2815 18.1944 34.5899 17.8891C33.9316 17.5944 33.4087 17.0449 33.1318 16.3561C32.8423 15.6435 32.8423 14.8397 33.1318 14.1272C33.4092 13.4404 33.9321 12.8934 34.5899 12.6017C35.2815 12.2964 36.062 12.2964 36.7533 12.6017C37.4131 12.8989 37.9378 13.4495 38.2192 14.1388C38.5081 14.8483 38.5081 15.6501 38.2192 16.3596" fill="white"/>
<path d="M48.4487 11.9973C46.7282 10.2054 43.9396 10.2069 42.2204 12.0003C41.3954 12.8607 40.932 14.0269 40.9313 15.243C40.8898 17.7777 42.8277 19.8679 45.2598 19.9113C47.6916 19.9547 49.697 17.9347 49.7388 15.4C49.7395 15.3475 49.7395 15.2955 49.7388 15.243C49.7388 14.6395 49.6281 14.041 49.4129 13.4809C49.1904 12.9238 48.8628 12.4191 48.4487 11.9973ZM47.8801 16.3481C47.7396 16.6882 47.5391 16.9981 47.2892 17.262C47.0376 17.5254 46.7398 17.7374 46.4125 17.8852C45.7215 18.1905 44.9418 18.1905 44.2508 17.8852C43.5914 17.591 43.068 17.0415 42.7917 16.3522C42.5021 15.6397 42.5021 14.8358 42.7917 14.1233C43.07 13.4375 43.5934 12.892 44.2508 12.6023C44.9418 12.297 45.7215 12.297 46.4125 12.6023C46.7398 12.7507 47.0376 12.9621 47.2892 13.226C47.5391 13.4895 47.7392 13.7998 47.8801 14.1399C48.1677 14.8499 48.1677 15.6507 47.8801 16.3607" fill="white"/>
<path d="M66.6544 11.5048C66.6547 11.3918 66.6324 11.2803 66.5889 11.1768C66.5444 11.0779 66.4837 10.9871 66.4103 10.9094C66.3377 10.8306 66.2499 10.7676 66.1536 10.7247C66.0515 10.6808 65.9422 10.6586 65.8311 10.6591C65.6752 10.6581 65.522 10.7045 65.391 10.7928L60.6889 13.981V7.57938C60.6934 7.35028 60.6063 7.12926 60.449 6.96929C60.2979 6.80378 60.0867 6.71144 59.8674 6.71494C59.4143 6.71194 59.0448 7.09243 59.042 7.56473V18.9677C59.0396 19.1952 59.1264 19.4143 59.282 19.5737C59.4345 19.7397 59.6466 19.8321 59.8674 19.828C60.0864 19.8316 60.2965 19.7392 60.4466 19.5737C60.6026 19.4143 60.6889 19.1952 60.6865 18.9677V16.0136L61.6459 15.3581L65.2796 19.6116C65.427 19.7589 65.6251 19.8386 65.8294 19.8321C65.9398 19.8336 66.0494 19.8109 66.1516 19.7665C66.2486 19.7246 66.3363 19.662 66.4083 19.5833C66.483 19.5031 66.5433 19.4097 66.5865 19.3078C66.63 19.2043 66.6523 19.0928 66.652 18.9798C66.6523 18.7572 66.5711 18.5433 66.4247 18.3818L63.0463 14.415L66.3401 12.1861C66.5526 12.0326 66.6722 11.7743 66.6544 11.5053" fill="white"/>
<path d="M53.0125 13.2061C53.2661 12.9447 53.5654 12.7358 53.8947 12.5905C54.2351 12.4396 54.6015 12.3629 54.9713 12.3659C55.2993 12.3629 55.6242 12.4235 55.9306 12.5451C56.2374 12.6737 56.5212 12.8544 56.7714 13.0805C56.9236 13.2066 57.1128 13.2738 57.3071 13.2702C57.5282 13.2798 57.7431 13.1925 57.9 13.0295C58.0546 12.8655 58.1383 12.6435 58.1324 12.4139C58.1355 12.1646 58.0313 11.9274 57.8486 11.7664C57.061 11.0312 56.0355 10.6336 54.9788 10.6517C52.5464 10.6517 50.5742 12.7071 50.5742 15.2423C50.5681 17.7739 52.5323 19.8313 54.9614 19.8373C56.0215 19.8399 57.047 19.4437 57.8486 18.7206C58.0142 18.5566 58.1074 18.3285 58.1054 18.0904C58.1197 17.6347 57.777 17.2532 57.34 17.2381C57.3225 17.2376 57.305 17.2376 57.2876 17.2381C57.1008 17.2391 56.9181 17.3016 56.7676 17.4172C56.5215 17.6428 56.2398 17.8219 55.9344 17.9455C55.628 18.0656 55.3031 18.1257 54.9754 18.1221C54.6052 18.1247 54.2389 18.0485 53.8985 17.8976C53.5702 17.7523 53.2709 17.5434 53.017 17.2819C51.9377 16.1642 51.9329 14.3461 53.0053 13.2218C53.0091 13.2177 53.0132 13.2137 53.017 13.2097" fill="white"/>
<path d="M82.989 11.2266C82.8296 11.0711 82.6408 10.9526 82.4348 10.8789C82.199 10.7906 81.9536 10.7315 81.7041 10.7023C81.4576 10.6705 81.2091 10.6549 80.961 10.6543C80.4568 10.6528 79.9564 10.7432 79.4824 10.9218C79.0176 11.0984 78.5841 11.3532 78.1988 11.6762V11.5051C78.181 11.0318 77.7978 10.6634 77.3444 10.6821C76.9153 10.6998 76.5715 11.058 76.5547 11.5051V18.9801C76.5725 19.4534 76.955 19.8218 77.4091 19.8031C77.8383 19.7855 78.182 19.4272 78.1988 18.9801V15.2434C78.1964 14.8573 78.2694 14.4748 78.4144 14.1196C78.5529 13.7789 78.7527 13.4691 79.0036 13.2072C79.2559 12.9463 79.5534 12.7374 79.8803 12.5916C80.221 12.4407 80.5881 12.364 80.9586 12.367C81.3264 12.3635 81.6924 12.4326 82.0352 12.5719C82.1438 12.6264 82.2617 12.6567 82.382 12.6617C82.4924 12.6627 82.6021 12.6405 82.7042 12.5961C82.8012 12.5537 82.8882 12.4906 82.9609 12.4114C83.0339 12.3332 83.0942 12.2429 83.1381 12.144C83.1827 12.038 83.2053 11.924 83.2049 11.8079C83.2128 11.5924 83.133 11.384 82.9842 11.2341" fill="white"/>
<path d="M75.3476 13.4869C74.6481 11.7828 73.0451 10.6736 71.2666 10.6641C68.8355 10.6636 66.8633 12.7173 66.8623 15.2516V15.2531C66.8623 17.7888 68.8338 19.8451 71.2673 19.8456C72.3236 19.8456 73.3446 19.4505 74.1446 18.7314C74.1562 18.7193 74.1741 18.7032 74.1765 18.6991C74.2481 18.6386 74.3112 18.5674 74.3622 18.4877C74.6268 18.0911 74.5322 17.5461 74.1518 17.2701C73.8327 17.0541 73.4135 17.0934 73.1366 17.3649C73.1095 17.3902 73.0324 17.4654 73.0197 17.4759L73.0084 17.4865C72.7739 17.6944 72.5063 17.8574 72.2177 17.9679C71.9119 18.08 71.5901 18.1355 71.2662 18.1309C70.968 18.1325 70.6712 18.083 70.3881 17.9836C70.1125 17.8877 69.8531 17.7484 69.6176 17.5703C69.3835 17.3917 69.1775 17.1762 69.0082 16.9309C68.8348 16.6807 68.7018 16.4021 68.6154 16.1069H74.8428C75.0611 16.1119 75.2722 16.0247 75.4282 15.8647C75.5882 15.7067 75.6753 15.4842 75.6681 15.2546C75.6729 14.6496 75.5635 14.0495 75.3456 13.4884L75.3476 13.4869ZM68.6141 14.4023C68.6963 14.1066 68.8266 13.828 68.999 13.5782C69.17 13.3325 69.377 13.117 69.6125 12.9389C69.8507 12.7613 70.1136 12.6215 70.3915 12.5256C70.6726 12.4277 70.9677 12.3783 71.2642 12.3783C71.5593 12.3783 71.8527 12.4277 72.132 12.5256C72.6872 12.7178 73.1708 13.0862 73.5156 13.5787C73.6918 13.828 73.8265 14.1071 73.9136 14.4028H68.6137L68.6141 14.4023Z" fill="white"/>
<path d="M80.1806 18.5918C79.866 18.5969 79.6147 18.8673 79.6202 19.1953C79.625 19.5234 79.8845 19.7852 80.1991 19.7797C80.512 19.7746 80.7622 19.5077 80.7602 19.1817C80.7567 18.8522 80.4973 18.5883 80.1813 18.5918H80.1806ZM80.1813 19.6525C79.9318 19.6641 79.7206 19.4633 79.7093 19.2034C79.698 18.9435 79.8906 18.7235 80.1401 18.7114C80.3893 18.6998 80.6005 18.9007 80.6121 19.1605C80.6121 19.1686 80.6125 19.1772 80.6121 19.1852C80.6207 19.434 80.4339 19.6429 80.1953 19.652C80.1905 19.652 80.1857 19.652 80.1806 19.652" fill="white"/>
<path d="M80.312 19.2002V19.1922C80.375 19.1796 80.4223 19.1251 80.4288 19.0584C80.4312 19.0075 80.4107 18.958 80.3737 18.9247C80.313 18.8914 80.2451 18.8768 80.1769 18.8818C80.1043 18.8808 80.0316 18.8869 79.96 18.9005V19.4894H80.0885V19.2527H80.1498C80.2228 19.2527 80.2564 19.281 80.2681 19.3466C80.2756 19.396 80.2904 19.4445 80.3116 19.4899H80.4539C80.4316 19.4435 80.4175 19.394 80.4114 19.3426C80.4055 19.2785 80.3658 19.2235 80.3085 19.1992L80.312 19.2002ZM80.1533 19.1563H80.0902V18.9863C80.1145 18.9832 80.1392 18.9832 80.1632 18.9863C80.2458 18.9863 80.2839 19.0226 80.2839 19.0761C80.2839 19.1296 80.2249 19.1629 80.1557 19.1629" fill="white"/>
<path d="M29.7641 8.64294C29.6833 8.57582 28.9285 7.98188 27.3366 7.98188C26.9163 7.98391 26.4971 8.02125 26.0826 8.09441C25.7747 5.89377 24.0289 4.82042 23.9504 4.77248L23.5229 4.51562L23.2416 4.93852C22.8896 5.5067 22.6326 6.13244 22.4815 6.78996C22.1964 8.04647 22.3697 9.22627 22.9821 10.235C22.2428 10.6644 21.0566 10.7704 20.8165 10.7795H1.17932C0.666605 10.78 0.250235 11.2125 0.24733 11.7469C0.224575 13.5398 0.516048 15.3221 1.1072 17.006C1.78356 18.8549 2.7901 20.2169 4.09924 21.0506C5.56622 21.9871 7.95018 22.522 10.6522 22.522C11.8728 22.5261 13.0914 22.411 14.2911 22.1784C15.9595 21.859 17.5645 21.2514 19.0407 20.3804C20.2568 19.6462 21.3515 18.7127 22.2821 17.6151C23.8376 15.7793 24.7648 13.7351 25.4537 11.9184H25.7283C27.4315 11.9184 28.4792 11.2079 29.0568 10.6125C29.4407 10.233 29.7404 9.77027 29.935 9.25706L30.057 8.88515L29.7632 8.64294H29.7641Z" fill="white"/>
<path d="M3.00048 10.1803H5.63183C5.75868 10.1803 5.86182 10.0728 5.86182 9.94063V7.49779C5.8623 7.36557 5.76012 7.25758 5.63327 7.25708H3.00048C2.87363 7.25708 2.77051 7.36457 2.77051 7.49675V9.94113C2.77051 10.0733 2.87315 10.1808 3.00048 10.1808V10.1803Z" fill="white"/>
<path d="M6.62645 10.1803H9.2578C9.38465 10.1803 9.48778 10.0728 9.48778 9.94063V7.49778C9.48826 7.36557 9.38609 7.25758 9.25924 7.25708H6.62645C6.49864 7.25708 6.39551 7.36507 6.39551 7.49778V9.94063C6.39647 10.0733 6.4996 10.1803 6.62645 10.1803Z" fill="white"/>
<path d="M10.3081 10.1803H12.9395C13.0663 10.1803 13.1694 10.0728 13.1694 9.94063V7.49779C13.1699 7.36557 13.0678 7.25758 12.9409 7.25708H10.3081C10.1813 7.25708 10.0781 7.36457 10.0781 7.49675V9.94113C10.0781 10.0733 10.1813 10.1808 10.3081 10.1808V10.1803Z" fill="white"/>
<path d="M13.9448 10.1803H16.5762C16.7035 10.1803 16.8067 10.0733 16.8072 9.94063V7.49779C16.8072 7.36457 16.7035 7.25708 16.5762 7.25708H13.9448C13.818 7.25708 13.7148 7.36457 13.7148 7.49675V9.94113C13.7148 10.0733 13.818 10.1808 13.9448 10.1808V10.1803Z" fill="white"/>
<path d="M6.62645 6.66495H9.2578C9.38465 6.66445 9.48778 6.55646 9.48778 6.42425V3.98137C9.48778 3.84916 9.38465 3.7417 9.2578 3.7417H6.62645C6.4996 3.7417 6.39599 3.84866 6.39551 3.98137V6.42425C6.39599 6.55696 6.49912 6.66445 6.62645 6.66495Z" fill="white"/>
<path d="M10.3081 6.66495H12.9395C13.0663 6.66445 13.1694 6.55646 13.1694 6.42425V3.98137C13.1694 3.84916 13.0663 3.7417 12.9395 3.7417H10.3081C10.1813 3.7417 10.0781 3.84916 10.0781 3.98137V6.42425C10.0781 6.55646 10.1808 6.66445 10.3081 6.66495Z" fill="white"/>
<path d="M13.9448 6.66495H16.5762C16.7035 6.66445 16.8067 6.55696 16.8072 6.42425V3.98137C16.8067 3.84866 16.7031 3.7417 16.5762 3.7417H13.9448C13.818 3.7417 13.7148 3.84916 13.7148 3.98137V6.42425C13.7148 6.55646 13.8175 6.66445 13.9448 6.66495Z" fill="white"/>
<path d="M13.9448 3.14887H16.5762C16.7035 3.14887 16.8067 3.04189 16.8072 2.90918V0.464795C16.8067 0.332077 16.7031 0.225098 16.5762 0.225098H13.9448C13.818 0.225098 13.7148 0.332077 13.7148 0.464795V2.90918C13.7148 3.04139 13.818 3.14887 13.9448 3.14887Z" fill="white"/>
<path d="M17.6147 10.1803H20.2461C20.3734 10.1803 20.4765 10.0733 20.477 9.94063V7.49779C20.477 7.36457 20.3734 7.25708 20.2461 7.25708H17.6147C17.4879 7.25708 17.3848 7.36457 17.3848 7.49675V9.94113C17.3848 10.0733 17.4879 10.1808 17.6147 10.1808" fill="white"/>
</g>
<defs>
<clipPath id="clip0_5624_9449">
<rect width="83.2868" height="22.863" fill="white"/>
</clipPath>
</defs>
</svg>
