<svg width="38" height="20" viewBox="0 0 38 20" fill="none" xmlns="http://www.w3.org/2000/svg">
<g clip-path="url(#clip0_5624_9410)">
<path d="M29.387 0.452561H28.696C28.696 0.452561 27.7595 0.439343 27.5783 0.478349C26.938 0.617389 26.3645 1.35411 26.3645 2.00149C26.3645 2.35695 26.4658 3.15345 27.5783 3.50703C27.5824 3.50954 28.696 3.50703 28.696 3.50703H29.387V0.452561ZM19.4169 16.1143C17.954 15.8633 16.7355 15.1216 15.8735 13.9564C15.1712 13.0076 14.835 11.9608 14.835 10.7245C14.835 8.22305 16.3731 6.21107 18.8489 5.47494C19.3514 5.32587 20.5168 5.26735 21.1208 5.36235C23.1507 5.67884 24.8521 7.16989 25.4631 9.16802C25.7773 10.2778 25.785 11.2372 25.4631 12.2784C24.8872 14.1539 23.4451 15.5412 21.5715 16.0212C20.9705 16.1747 20.0113 16.2162 19.4169 16.1143ZM21.0266 13.1706C21.634 12.9636 22.1879 12.5194 22.4776 12.0073C22.8073 11.4235 22.8997 10.5672 22.6988 9.95697C22.1628 8.32562 20.2087 7.65745 18.8029 8.6251C18.1644 9.0642 17.7793 9.76568 17.7275 10.5842C17.6512 11.7726 18.3779 12.8164 19.5362 13.1844C19.8838 13.2945 20.6844 13.287 21.0266 13.1706ZM27.223 16.0445C27.0584 15.9677 26.8372 15.8067 26.7323 15.6872C26.3418 15.2411 26.3567 14.6856 26.3567 10.7056C26.3567 6.72571 26.3466 6.28024 26.6823 5.83922C26.7687 5.72663 26.966 5.55929 27.121 5.46804C27.3666 5.32395 27.4662 5.30195 27.8859 5.30195C28.3055 5.30195 28.3992 5.32084 28.6621 5.48376C29.0525 5.726 29.2791 6.07327 29.3512 6.54448C29.3864 6.7735 29.3924 6.93014 29.3924 10.9774C29.3924 14.6899 29.3995 15.2423 29.0132 15.701C28.6179 16.1703 27.8197 16.3238 27.2224 16.0451L27.223 16.0445ZM31.309 16.1036C30.9614 15.9797 30.6282 15.7198 30.4881 15.4172C30.3617 15.1429 30.3867 14.5453 30.3784 11.8066V0.444374H31.858C31.858 0.444374 36.1223 0.404738 36.3035 0.444374C36.9432 0.583415 37.5167 1.3195 37.5167 1.96751C37.5167 2.32298 37.2806 2.80679 36.9903 3.0465C36.5539 3.40699 36.4496 3.44662 35.1851 3.48059H33.3526V11.8519C33.3526 14.6579 33.3812 15.2618 33.2548 15.5021C33.1386 15.7243 32.853 15.9614 32.5794 16.064C32.2628 16.2081 31.6542 16.2269 31.309 16.1036Z" fill="white"/>
<path d="M1.39485 16.0965C1.23807 16.0398 1.00439 15.8744 0.821964 15.6919C0.293774 15.1628 0.327157 15.6536 0.327752 8.404C0.328945 1.49669 0.31998 1.68102 0.661575 1.20413C0.88334 0.894592 1.28694 0.635383 1.67742 0.551705C2.07683 0.466774 6.42875 0.462378 7.31999 0.546053C10.696 0.863139 13.455 3.21296 14.2759 6.47C15.2422 10.3053 13.0842 14.3305 9.31709 15.7177C8.22673 16.1191 6.77152 16.1524 4.08824 16.1732C3.12188 16.1581 1.98145 16.2374 1.39544 16.0958L1.39485 16.0965ZM7.06543 13.0898C8.86404 12.9407 10.2596 12.0542 10.9934 10.594C11.7243 9.14133 11.6737 7.09096 10.8713 5.63892C10.5457 5.05003 9.763 4.29194 9.15317 3.97612C8.26252 3.5137 8.01508 3.4382 6.14975 3.44072L3.36692 3.41429V13.1099C3.42594 13.1691 6.27256 13.1559 7.06543 13.0898Z" fill="white"/>
<path d="M0.597656 19.2164C0.597656 19.3057 0.669195 19.3762 0.760408 19.3762C0.851617 19.3762 0.919573 19.3063 0.919573 19.2164V17.6737C0.919573 17.5844 0.849828 17.5139 0.760408 17.5139C0.670984 17.5139 0.597656 17.5838 0.597656 17.6737V19.2164Z" fill="white"/>
<path d="M2.37012 19.2182C2.37012 19.3057 2.43986 19.3762 2.52928 19.3762C2.61871 19.3762 2.68664 19.3063 2.68664 19.2182V18.0537L3.62977 19.2774C3.67448 19.3346 3.72097 19.3742 3.79788 19.3742H3.81039C3.89981 19.3742 3.96779 19.3025 3.96779 19.2144V17.6718C3.96779 17.5843 3.89623 17.5139 3.80681 17.5139C3.71739 17.5139 3.65122 17.5837 3.65122 17.6718V18.7993L2.73316 17.6114C2.68845 17.556 2.64374 17.5164 2.56683 17.5164H2.53286C2.43986 17.5164 2.37012 17.59 2.37012 17.6793V19.2182Z" fill="white"/>
<path d="M5.84416 19.2165C5.84416 19.3058 5.91747 19.3763 6.00513 19.3763C6.09274 19.3763 6.16786 19.3065 6.16786 19.2165V17.8261H6.61496C6.69726 17.8261 6.76162 17.7581 6.76162 17.677C6.76162 17.5958 6.69726 17.5266 6.61496 17.5266H5.39825C5.31418 17.5266 5.24805 17.5945 5.24805 17.677C5.24805 17.7594 5.31418 17.8261 5.39825 17.8261H5.84416V19.2165Z" fill="white"/>
<path d="M8.20965 19.3637H9.28866C9.36732 19.3637 9.43173 19.3008 9.43173 19.2184C9.43173 19.1416 9.36732 19.0749 9.28866 19.0749H8.3688V18.5823H9.15631C9.23502 18.5823 9.30119 18.5194 9.30119 18.4408C9.30119 18.3621 9.23502 18.2935 9.15631 18.2935H8.3688V17.8154H9.27435C9.35306 17.8154 9.41923 17.7525 9.41923 17.6719C9.41923 17.5914 9.35306 17.5266 9.27435 17.5266H8.20965C8.11664 17.5266 8.04688 17.5983 8.04688 17.6896V19.2001C8.04688 19.2913 8.11664 19.3631 8.20965 19.3631" fill="white"/>
<path d="M10.7594 19.2166C10.7594 19.3059 10.8291 19.3764 10.9221 19.3764C11.0098 19.3764 11.0813 19.3066 11.0813 19.2166V18.724H11.4879L11.9332 19.2921C11.969 19.3424 12.0155 19.3764 12.0888 19.3764C12.1675 19.3764 12.2444 19.3172 12.2444 19.2273C12.2444 19.177 12.2229 19.143 12.1925 19.104L11.8402 18.6611C12.087 18.5843 12.2569 18.4069 12.2569 18.1131V18.1075C12.2569 17.9464 12.2015 17.8098 12.1049 17.7117C11.9869 17.5953 11.8062 17.5273 11.5767 17.5273H10.9216C10.8286 17.5273 10.7588 17.5991 10.7588 17.6903V19.2166H10.7594ZM11.0813 18.4371V17.8205H11.5499C11.7877 17.8205 11.9296 17.9281 11.9296 18.125V18.1307C11.9296 18.3169 11.783 18.4371 11.5523 18.4371H11.0813Z" fill="white"/>
<path d="M13.6064 19.2182C13.6064 19.3057 13.6762 19.3762 13.7656 19.3762C13.8551 19.3762 13.923 19.3063 13.923 19.2182V18.0537L14.8661 19.2774C14.9108 19.3346 14.9574 19.3742 15.0343 19.3742H15.0468C15.1362 19.3742 15.2041 19.3025 15.2041 19.2144V17.6718C15.2041 17.5843 15.1326 17.5139 15.0432 17.5139C14.9538 17.5139 14.8876 17.5837 14.8876 17.6718V18.7993L13.9695 17.6114C13.9248 17.556 13.8801 17.5164 13.8032 17.5164H13.7692C13.6762 17.5164 13.6064 17.59 13.6064 17.6793V19.2182Z" fill="white"/>
<path d="M16.5045 19.2275C16.5045 19.3119 16.5707 19.3767 16.6547 19.3767C16.7227 19.3767 16.7781 19.3408 16.8032 19.2741L16.9588 18.9212H17.85L17.9984 19.2634C18.0271 19.3314 18.0789 19.3767 18.1559 19.3767C18.2417 19.3767 18.3078 19.3087 18.3078 19.2225C18.3078 19.2011 18.3025 19.1778 18.2882 19.1545L17.608 17.6333C17.5704 17.5509 17.5078 17.5024 17.4166 17.5024H17.4005C17.3093 17.5024 17.2431 17.5509 17.2073 17.6333L16.5254 19.1545C16.5129 19.1816 16.5039 19.2049 16.5039 19.2282L16.5045 19.2275ZM17.0828 18.6342L17.4053 17.8925L17.7272 18.6342H17.0828Z" fill="white"/>
<path d="M19.8494 19.2165C19.8494 19.3058 19.9228 19.3763 20.0104 19.3763C20.0981 19.3763 20.1731 19.3065 20.1731 19.2165V17.8261H20.6208C20.7031 17.8261 20.7675 17.7581 20.7675 17.677C20.7675 17.5958 20.7031 17.5266 20.6208 17.5266H19.4041C19.3201 17.5266 19.2539 17.5945 19.2539 17.677C19.2539 17.7594 19.3201 17.8261 19.4041 17.8261H19.85V19.2165H19.8494Z" fill="white"/>
<path d="M22.0703 19.2164C22.0703 19.3057 22.1418 19.3762 22.233 19.3762C22.3242 19.3762 22.3922 19.3063 22.3922 19.2164V17.6737C22.3922 17.5844 22.3225 17.5139 22.233 17.5139C22.1436 17.5139 22.0703 17.5838 22.0703 17.6737V19.2164Z" fill="white"/>
<path d="M24.7182 19.3962C25.2803 19.3962 25.6791 18.9627 25.6791 18.4462V18.4411C25.6791 17.9234 25.2857 17.4968 24.7235 17.4968C24.1613 17.4968 23.7607 17.929 23.7607 18.4468V18.4518C23.7607 18.9677 24.1542 19.3962 24.7182 19.3962ZM24.7235 19.0967C24.3586 19.0967 24.0987 18.8029 24.0987 18.4462V18.4411C24.0987 18.0844 24.3527 17.7925 24.7182 17.7925C25.0836 17.7925 25.3411 18.0882 25.3411 18.4468V18.4518C25.3411 18.8086 25.0871 19.0967 24.7235 19.0967Z" fill="white"/>
<path d="M27.0254 19.2182C27.0254 19.3057 27.0952 19.3762 27.1846 19.3762C27.274 19.3762 27.342 19.3063 27.342 19.2182V18.0537L28.2851 19.2774C28.3298 19.3346 28.3763 19.3742 28.4532 19.3742H28.4657C28.5551 19.3742 28.6231 19.3025 28.6231 19.2144V17.6718C28.6231 17.5843 28.5515 17.5139 28.4621 17.5139C28.3727 17.5139 28.3065 17.5837 28.3065 17.6718V18.7993L27.3885 17.6114C27.3438 17.556 27.299 17.5164 27.2221 17.5164H27.1882C27.0952 17.5164 27.0254 17.59 27.0254 17.6793V19.2182Z" fill="white"/>
<path d="M29.9206 19.2275C29.9206 19.3119 29.9867 19.3767 30.0708 19.3767C30.1387 19.3767 30.1942 19.3408 30.2192 19.2741L30.3748 18.9212H31.2661L31.4145 19.2634C31.4431 19.3314 31.495 19.3767 31.5719 19.3767C31.6577 19.3767 31.7239 19.3087 31.7239 19.2225C31.7239 19.2011 31.7185 19.1778 31.7042 19.1545L31.024 17.6333C30.9864 17.5509 30.9238 17.5024 30.8326 17.5024H30.8166C30.7253 17.5024 30.6592 17.5509 30.6234 17.6333L29.9414 19.1545C29.9289 19.1816 29.9199 19.2049 29.9199 19.2282L29.9206 19.2275ZM30.4988 18.6342L30.8207 17.8925L31.1433 18.6342H30.4988Z" fill="white"/>
<path d="M33.0254 19.1997C33.0254 19.2909 33.0952 19.3627 33.1881 19.3627H34.1777C34.2582 19.3627 34.3244 19.2959 34.3244 19.2154C34.3244 19.1349 34.2582 19.0688 34.1777 19.0688H33.3473V17.6727C33.3473 17.5834 33.2758 17.5129 33.1881 17.5129C33.0952 17.5129 33.0254 17.5828 33.0254 17.6727V19.1997Z" fill="white"/>
</g>
<defs>
<clipPath id="clip0_5624_9410">
<rect width="37.5607" height="19.5969" fill="white"/>
</clipPath>
</defs>
</svg>
