<svg width="87" height="15" viewBox="0 0 87 15" fill="none" xmlns="http://www.w3.org/2000/svg">
<g clip-path="url(#clip0_5624_9468)">
<path d="M5.20155 1.28425C5.01173 2.26712 4.76523 3.71947 4.63756 5.19308C4.41176 7.79537 4.55129 9.53791 4.55129 9.53791L0.727622 13.0211C0.727622 13.0211 0.432811 11.0667 0.283434 8.86883C0.191737 7.51367 0.16462 6.30997 0.158211 5.58567C0.157718 5.54225 0.180393 5.50166 0.1799 5.46158C0.1799 5.41484 0.244489 4.92742 0.741428 4.47539C1.28668 3.97995 5.25726 0.996412 5.20155 1.28471" fill="white"/>
<path d="M23.6936 0.0793457V2.78873H21.2015C19.6885 2.78873 18.7715 3.22095 18.2066 3.74658C17.3345 4.55769 17.335 5.72509 17.335 5.84821V8.75862C17.335 8.88225 17.3345 10.0491 18.2066 10.8603C18.7715 11.3864 19.6885 11.8186 21.2015 11.8186H22.3107C23.0295 11.8186 24.0032 11.6667 24.509 10.8966C24.7826 10.4809 24.8773 9.93447 24.8827 9.43101V0.0793457H23.6936ZM23.3411 10.4672C23.104 10.6866 22.716 10.7942 22.1535 10.7942H21.0832C20.1012 10.7942 19.4923 10.5262 19.1156 10.1756C18.6759 9.76555 18.5251 9.21819 18.5251 8.79496V5.81284C18.5251 5.38958 18.6759 4.84223 19.1156 4.43173C19.4923 4.08065 20.1012 3.81312 21.0832 3.81312H23.6941L23.6951 9.37252C23.6951 9.88824 23.5792 10.2464 23.3411 10.4672Z" fill="white"/>
<path d="M62.4346 3.8132H60.447C59.8844 3.8132 59.4963 3.9203 59.2593 4.13972C59.021 4.36102 58.9051 4.73755 58.9051 5.25281L58.9068 11.8182H57.7178V5.17591C57.723 4.67245 57.8176 4.1265 58.0912 3.71032C58.5973 2.94027 59.5706 2.78833 60.2896 2.78833H62.4353V3.81273L62.4346 3.8132Z" fill="white"/>
<path d="M54.7866 10.7947C54.224 10.7947 53.8373 10.688 53.6003 10.4686C53.3623 10.2473 53.2464 9.88923 53.2464 9.37394V3.81411H55.7358V2.78923H53.2464V0.0803223H52.0566V9.432C52.0626 9.93546 52.1572 10.4814 52.4304 10.8976C52.9361 11.6676 53.9099 11.8196 54.6285 11.8196H56.7741V10.7952H54.7866V10.7947Z" fill="white"/>
<path d="M73.1797 4.43133C73.5559 4.08026 74.1653 3.81273 75.147 3.81273H78.0033V2.78833H75.266C73.7534 2.78833 72.8359 3.22055 72.2712 3.74619C71.3991 4.5573 71.3994 5.7247 71.3994 5.84782V8.75823C71.3994 8.88186 71.3991 10.0488 72.2712 10.8599C72.8359 11.386 73.7534 11.8182 75.266 11.8182H78.0033V10.7938H75.147C74.1653 10.7938 73.5559 10.5258 73.1797 10.1752C72.7392 9.76515 72.5892 9.21733 72.5892 8.79457V5.81245C72.5892 5.38919 72.7392 4.84183 73.1797 4.43133Z" fill="white"/>
<path d="M50.8321 5.84782C50.8321 5.7247 50.8321 4.5573 49.9603 3.74619C49.3949 3.22055 48.4781 2.78833 46.9651 2.78833H44.3221V3.81273H47.0841C48.0662 3.81273 48.6752 4.08073 49.0515 4.43133C49.4916 4.84183 49.6423 5.38919 49.6423 5.81245V6.67971H45.8563C45.137 6.67971 44.1637 6.83213 43.658 7.60172C43.3847 8.0179 43.2898 8.56382 43.2842 9.06728V9.43061C43.2898 9.93408 43.3847 10.48 43.658 10.8962C44.1637 11.6663 45.1374 11.8182 45.8563 11.8182H48.2599C48.9789 11.8182 49.9526 11.6658 50.4583 10.8962C50.7319 10.4805 50.8265 9.93408 50.8321 9.43061V5.84782ZM49.2898 10.4677C49.0529 10.6872 48.6644 10.7938 48.1022 10.7938H46.0151C45.4525 10.7938 45.0644 10.6872 44.8275 10.4677C44.5891 10.2464 44.4732 9.88831 44.4732 9.37306V9.12674C44.4732 8.61102 44.5891 8.25333 44.8275 8.03203C45.0644 7.81263 45.4525 7.70551 46.0151 7.70551H49.6423V9.37306C49.6423 9.88878 49.5282 10.2469 49.2898 10.4677Z" fill="white"/>
<path d="M70.4542 5.84782C70.4542 5.7247 70.4538 4.5573 69.5824 3.74619C69.017 3.22055 68.0998 2.78833 66.5868 2.78833H63.9438V3.81273H66.7062C67.6883 3.81273 68.297 4.08073 68.6732 4.43133C69.1136 4.84183 69.2644 5.38919 69.2644 5.81245V6.67971H65.4781C64.7588 6.67971 63.7857 6.83213 63.28 7.60172C63.0064 8.0179 62.9118 8.56382 62.9062 9.06728V9.43061C62.9118 9.93408 63.0068 10.48 63.28 10.8962C63.7857 11.6663 64.7588 11.8182 65.4781 11.8182H67.882C68.601 11.8182 69.5743 11.6658 70.0804 10.8962C70.354 10.4805 70.4486 9.93408 70.4542 9.43061V5.84782ZM68.9119 10.4677C68.6749 10.6872 68.2862 10.7938 67.7243 10.7938H65.6369C65.0746 10.7938 64.6865 10.6872 64.4492 10.4677C64.2112 10.2464 64.0953 9.88831 64.0953 9.37306V9.12674C64.0953 8.61102 64.2112 8.25333 64.4492 8.03203C64.6865 7.81263 65.0746 7.70551 65.6369 7.70551H69.2644V9.37306C69.2644 9.88878 69.1499 10.2469 68.9119 10.4677Z" fill="white"/>
<path d="M34.3204 2.78833H33.0811L30.0758 10.2733L27.069 2.78833H25.8291L29.4551 11.8182L28.368 14.5271H29.6074L34.3204 2.78833Z" fill="white"/>
<path d="M42.3413 5.84782C42.3413 5.7247 42.3416 4.5573 41.4771 3.74619C40.9316 3.23518 40.0567 2.81145 38.6299 2.78833H38.5054C37.0786 2.81145 36.2033 3.23518 35.6585 3.74619C34.7935 4.5573 34.7939 5.7247 34.7939 5.84782V11.8182H35.9821V5.81198C35.9821 5.38872 36.1234 4.84137 36.56 4.43087C36.9251 4.08734 37.6301 3.82452 38.5678 3.8132C39.5056 3.82452 40.2099 4.08734 40.5753 4.43087C41.0119 4.84137 41.1536 5.38872 41.1536 5.81198V11.8182H42.3416V5.84782" fill="white"/>
<path d="M85.3455 3.74619C84.8007 3.23518 83.9257 2.81145 82.499 2.78833H82.3744C80.947 2.81145 80.0724 3.23565 79.5272 3.74619C78.662 4.55683 78.6631 5.7247 78.6631 5.84782V8.75823C78.6631 8.88186 78.6624 10.0488 79.5272 10.8599C80.0724 11.3709 80.947 11.7946 82.3744 11.8177H85.1724V10.7905L82.4365 10.7924C81.4987 10.7811 80.7938 10.5182 80.429 10.1747C79.9921 9.76469 79.8507 9.21686 79.8507 8.7936V7.72722H86.2103V5.84782C86.2103 5.7247 86.2106 4.5573 85.3462 3.74619H85.3455ZM79.8511 6.70189V5.81198C79.8511 5.38872 79.9924 4.84137 80.4294 4.43133C80.7941 4.08781 81.4998 3.82499 82.4369 3.81366C83.3746 3.82499 84.0796 4.08781 84.4447 4.43133C84.8813 4.84137 85.0226 5.38872 85.0226 5.81198V6.70189H79.8511Z" fill="white"/>
<path d="M13.7759 9.90698C12.7411 10.0401 11.2133 10.2038 9.66927 10.2533C6.94254 10.3406 5.13128 10.1217 5.13128 10.1217L1.30762 13.6049C1.30762 13.6049 3.33283 13.9833 5.61985 14.2344C7.016 14.3877 8.26128 14.4722 9.01852 14.5151C9.0708 14.5179 9.16102 14.4736 9.20883 14.4764C9.25814 14.4788 9.79156 14.3849 10.288 13.9324C10.8323 13.4355 14.0801 9.8683 13.7764 9.90748" fill="white"/>
<g style="mix-blend-mode:multiply" opacity="0.2">
<g style="mix-blend-mode:multiply" opacity="0.2">
<g style="mix-blend-mode:multiply" opacity="0.2">
<g style="mix-blend-mode:multiply" opacity="0.2">
<g style="mix-blend-mode:multiply" opacity="0.2">
<path d="M13.7748 9.90705C12.74 10.0401 11.2122 10.2038 9.66814 10.2534C9.66814 10.2534 9.96445 14.3255 8.93262 14.51C8.9819 14.5128 9.68343 14.4779 10.1794 14.0249C10.7237 13.528 14.0785 9.86787 13.7748 9.90705Z" fill="white"/>
</g>
</g>
</g>
</g>
</g>
<path d="M9.1668 14.5238C9.09431 14.52 9.01544 14.5158 8.93164 14.5106C9.12045 14.4766 9.25356 14.4158 9.45717 14.2775C9.87126 13.9954 10.001 13.5145 10.0374 13.3206C10.2243 12.3377 10.4663 10.8844 10.5906 9.41081C10.809 6.80809 10.6719 5.07306 10.6719 5.07306L14.4951 1.58984C14.4951 1.58984 14.7785 3.52633 14.9338 5.7242C15.0354 7.16006 15.063 8.42654 15.0699 9.13146C15.0699 9.17866 15.1088 9.68826 14.6129 10.1408C14.0691 10.6381 11.3399 13.1314 10.242 14.1341C9.74608 14.5866 9.2166 14.5262 9.16729 14.5238" fill="white"/>
<g style="mix-blend-mode:multiply" opacity="0.2">
<g style="mix-blend-mode:multiply" opacity="0.2">
<g style="mix-blend-mode:multiply" opacity="0.2">
<g style="mix-blend-mode:multiply" opacity="0.2">
<g style="mix-blend-mode:multiply" opacity="0.2">
<path d="M5.19859 1.28796C5.00881 2.27083 4.76227 3.72318 4.6346 5.19679C4.6346 5.19679 0.399789 4.71267 0.15625 5.6894C0.15625 5.6427 0.226749 5.04203 0.723686 4.59048C1.26943 4.09453 5.2543 0.999658 5.19859 1.28796Z" fill="white"/>
</g>
</g>
</g>
</g>
</g>
<path d="M0.156063 5.46145C0.156063 5.53079 0.157051 5.60632 0.158037 5.68699C0.202899 5.50861 0.272904 5.38405 0.428198 5.19626C0.742727 4.81408 1.25101 4.71451 1.45461 4.68855C2.4899 4.55878 4.01818 4.39931 5.56224 4.35354C8.28848 4.27284 10.0923 4.4899 10.0923 4.4899L13.916 1.00621C13.916 1.00621 11.9095 0.640049 9.62304 0.382887C8.12976 0.214908 6.81 0.126197 6.07447 0.0846737C6.02516 0.0818424 5.49569 0.0200274 4.99874 0.471591C4.45251 0.967039 1.71639 3.45278 0.616032 4.45309C0.118599 4.90514 0.15557 5.41425 0.156063 5.46145Z" fill="white"/>
</g>
<defs>
<clipPath id="clip0_5624_9468">
<rect width="86.553" height="14.6977" fill="white"/>
</clipPath>
</defs>
</svg>
