<svg width="79" height="20" viewBox="0 0 79 20" fill="none" xmlns="http://www.w3.org/2000/svg">
<g clip-path="url(#clip0_5624_9548)">
<path d="M34.1774 19.5856H27.9643C26.6166 19.5856 25.5567 19.24 24.7844 18.5489C24.0121 17.8578 23.627 16.8909 23.627 15.649V9.95509C23.627 8.71507 24.0131 7.74814 24.7844 7.05515C25.5557 6.36214 26.6157 6.0166 27.9643 6.0166H30.4259C31.7736 6.0166 32.8288 6.3631 33.5906 7.05515C34.3525 7.74719 34.7339 8.71413 34.7339 9.95509V13.3304C34.7339 13.5967 34.5985 13.7294 34.3279 13.7294H26.0298C25.8339 13.7294 25.7364 13.8096 25.7364 13.969V15.5918C25.7364 17.1343 26.557 17.9056 28.1971 17.9066H34.1793C34.4528 17.9066 34.59 18.0306 34.59 18.2788V19.2458C34.5862 19.472 34.449 19.5866 34.1755 19.5866L34.1774 19.5856ZM26.0308 12.3243H32.3603C32.5562 12.3243 32.6537 12.2365 32.6537 12.058V10.0123C32.6537 8.48795 31.8331 7.7253 30.1931 7.72428H28.2C26.5589 7.72428 25.7393 8.48701 25.7393 10.0123V12.058C25.7393 12.2345 25.8368 12.3233 26.0327 12.3233L26.0308 12.3243Z" fill="white"/>
<path d="M40.0679 19.5856H38.7496C38.4761 19.5856 38.3389 19.4615 38.3389 19.2133V6.39078C38.3389 6.1426 38.4761 6.01851 38.7496 6.01755H40.0679C40.3414 6.01755 40.4786 6.14164 40.4786 6.39078V7.42742H40.5951C41.0834 6.48813 42.08 6.01755 43.5847 6.0166H45.2267C46.5555 6.0166 47.5908 6.3631 48.3328 7.05515C49.0748 7.74719 49.4467 8.71413 49.4486 9.95509V19.2133C49.4486 19.4625 49.3133 19.5866 49.0426 19.5856H47.7243C47.4508 19.5856 47.3183 19.4615 47.3183 19.2133V10.04C47.3183 8.49748 46.4977 7.72617 44.8567 7.72523H43.2053C42.326 7.72523 41.6503 7.93809 41.1771 8.36382C40.7039 8.78954 40.4692 9.39286 40.474 10.1727V19.2181C40.4777 19.4634 40.3424 19.5856 40.0679 19.5856Z" fill="white"/>
<path d="M52.202 6.01714H53.5799C53.8089 5.99805 54.0143 6.16127 54.0484 6.39037L57.5652 17.6407H57.7119L61.1993 6.39037C61.2533 6.15841 61.4663 5.99996 61.7009 6.01714H63.0789C63.3496 6.01714 63.4471 6.14122 63.3723 6.39037L59.1476 19.1862C59.0889 19.4525 58.9129 19.5852 58.6204 19.5852H56.6311C56.3822 19.6014 56.1579 19.4325 56.1039 19.1862L51.9086 6.39037C51.831 6.14218 51.9284 6.01809 52.202 6.01714Z" fill="white"/>
<path d="M73.6249 19.5843H70.6944C69.3659 19.5843 68.3154 19.1996 67.5442 18.4312C66.7728 17.6628 66.3867 16.5888 66.3857 15.2095V4.95286C66.3857 3.59357 66.7719 2.52446 67.5442 1.74555C68.3167 0.96663 69.3659 0.578125 70.6944 0.578125H73.6249C74.9535 0.578125 76.0027 0.967582 76.7752 1.74555C77.5477 2.5235 77.9336 3.59261 77.9336 4.95286V15.2095C77.9336 16.5898 77.5477 17.6637 76.7752 18.4312C76.0027 19.1986 74.9535 19.5833 73.6249 19.5843ZM70.9577 17.6933H73.3616C75.0024 17.6933 75.8231 16.8361 75.8231 15.1208V5.04162C75.8231 3.32725 75.0018 2.47006 73.3616 2.47006H70.9584C69.3364 2.47006 68.5257 3.32725 68.5257 5.04258V15.1217C68.5257 16.8352 69.3364 17.6923 70.9577 17.6933Z" fill="white"/>
<path d="M16.7075 4.67229C17.8506 4.67229 18.7772 3.73765 18.7772 2.5847C18.7772 1.43174 17.8506 0.49707 16.7075 0.49707C15.5644 0.49707 14.6377 1.43174 14.6377 2.5847C14.6377 3.73765 15.5644 4.67229 16.7075 4.67229Z" fill="white"/>
<path d="M10.9891 0.49707H1.14097C0.757847 0.49707 0.447266 0.810338 0.447266 1.19677V3.97262C0.447266 4.35905 0.757847 4.67229 1.14097 4.67229H10.9891C11.3723 4.67229 11.6829 4.35905 11.6829 3.97262V1.19677C11.6829 0.810338 11.3723 0.49707 10.9891 0.49707Z" fill="white"/>
<path d="M4.00566 7.94897H1.02451C0.704627 7.94897 0.445312 8.21056 0.445312 8.53317V18.9951C0.445312 19.3177 0.704627 19.5793 1.02451 19.5793H4.00566C4.32554 19.5793 4.58485 19.3177 4.58485 18.9951V8.53317C4.58485 8.21056 4.32554 7.94897 4.00566 7.94897Z" fill="white"/>
<path d="M18.1644 15.4038H8.15529C7.81655 15.4038 7.54199 15.6807 7.54199 16.0223V18.9604C7.54199 19.302 7.81655 19.579 8.15529 19.579H18.1644C18.5031 19.579 18.7776 19.302 18.7776 18.9604V16.0223C18.7776 15.6807 18.5031 15.4038 18.1644 15.4038Z" fill="white"/>
<path d="M16.7075 12.1243C17.8506 12.1243 18.7772 11.1896 18.7772 10.0366C18.7772 8.88368 17.8506 7.94897 16.7075 7.94897C15.5644 7.94897 14.6377 8.88368 14.6377 10.0366C14.6377 11.1896 15.5644 12.1243 16.7075 12.1243Z" fill="white"/>
<path d="M9.61176 12.1243C10.7548 12.1243 11.6815 11.1896 11.6815 10.0366C11.6815 8.88368 10.7548 7.94897 9.61176 7.94897C8.46864 7.94897 7.54199 8.88368 7.54199 10.0366C7.54199 11.1896 8.46864 12.1243 9.61176 12.1243Z" fill="white"/>
<path d="M73.1554 8.51636H70.8406C70.6021 8.51636 70.4092 8.71125 70.4092 8.95161V11.2865C70.4092 11.5268 70.6021 11.7217 70.8406 11.7217H73.1554C73.3939 11.7217 73.5869 11.5268 73.5869 11.2865V8.95161C73.5869 8.71125 73.3939 8.51636 73.1554 8.51636Z" fill="white"/>
</g>
<defs>
<clipPath id="clip0_5624_9548">
<rect width="78.3876" height="19.5969" fill="white"/>
</clipPath>
</defs>
</svg>
