<svg width="80" height="24" viewBox="0 0 80 24" fill="none" xmlns="http://www.w3.org/2000/svg">
<g clip-path="url(#clip0_5624_9611)">
<path d="M44.7359 7.17515V5.62724H37.3896V16.6881H39.1268V11.9867H44.2598V10.5018H39.1268V7.17515H44.7359ZM48.1211 6.69764C48.1211 6.12049 47.6924 5.73741 47.0852 5.73741C46.4785 5.73741 46.0493 6.12049 46.0493 6.69764C46.0493 7.27484 46.4628 7.65787 47.0852 7.65787C47.7081 7.65787 48.1211 7.2591 48.1211 6.69764ZM46.2741 8.8227V16.6881H47.9014V8.8227H46.2741ZM51.4334 16.6881V12.0025C51.4334 10.8219 52.1502 10.1974 53.3641 10.1974V8.8227C51.0986 8.8227 49.7955 9.94036 49.7955 11.8608V16.6881H51.4385H51.4334ZM62.2751 12.7738C62.2593 10.3916 60.522 8.68106 58.0993 8.68106C55.6767 8.68106 53.9084 10.3916 53.9084 12.7581C53.9084 15.1245 55.6767 16.8351 58.0993 16.8351C60.03 16.8351 61.7044 15.5862 62.1493 13.8442H60.4906C60.1872 14.7887 59.2295 15.4918 58.1151 15.4918C56.7601 15.4918 55.7396 14.5788 55.5356 13.2723H62.2279C62.2593 13.1148 62.2751 12.9364 62.2751 12.779V12.7738ZM58.1151 10.0243C59.4075 10.0243 60.4277 10.8376 60.7 12.0077H55.5828C55.8704 10.8429 56.8438 10.0243 58.1151 10.0243ZM66.8637 6.87607C67.0362 6.87607 67.2614 6.90755 67.4704 6.98624V5.54855C67.2614 5.50133 67.026 5.4856 66.848 5.4856C65.3516 5.4856 64.3 6.43004 64.3 7.7733V8.82796H63.1699V10.2027H64.3V16.6934H65.9273V10.2027H67.4704V8.82796H65.9273V7.7733C65.9273 7.22763 66.3245 6.87607 66.8688 6.87607H66.8637ZM68.9932 5.62724V16.6881H70.6205V5.62724H68.9932ZM78.103 8.8227V13.0886C78.103 14.3532 77.3234 15.1822 76.1095 15.1822C74.8956 15.1822 74.1627 14.3532 74.1627 13.0886V8.8227H72.5354V13.3143C72.5354 15.2189 73.8436 16.494 75.6124 16.494C76.7111 16.494 77.5902 16.0165 78.0975 15.1822V16.6514C78.0975 17.9159 77.3336 18.7135 76.1511 18.7135C75.0681 18.7135 74.3356 17.9946 74.2413 16.877L72.7292 16.8613C72.8864 18.745 74.257 20.0253 76.2191 20.0253C78.3227 20.0253 79.7405 18.6348 79.7405 16.5569V8.8227H78.0975H78.103Z" fill="white"/>
<path d="M13.731 2.10662L13.0508 0.926025" stroke="white" stroke-width="2.00416" stroke-linecap="round" stroke-linejoin="round"/>
<path d="M18.167 2.10662L18.8472 0.926025" stroke="white" stroke-width="2.00416" stroke-linecap="round" stroke-linejoin="round"/>
<path fill-rule="evenodd" clip-rule="evenodd" d="M13.3692 7.09098C13.6413 5.92089 14.693 5.04462 15.9488 5.04462C17.2046 5.04462 18.2563 5.91563 18.5283 7.09098C17.4557 7.37959 16.5453 8.05122 15.9488 8.94318C15.3523 8.04595 14.4366 7.37959 13.3692 7.09098ZM11.8571 6.93355C12.2129 5.00788 13.9081 3.54395 15.9488 3.54395C17.9894 3.54395 19.6847 5.00788 20.0405 6.93355H30.9291C31.3373 6.93355 31.6773 7.25889 31.6826 7.66819H31.4733C31.3373 7.67866 31.1803 7.67866 31.1384 7.67866C31.0914 7.67866 31.1593 7.67866 31.4733 7.6734C31.5884 7.6734 31.6826 7.6734 31.6826 7.6734V7.71014C31.6826 7.71014 31.6826 7.75735 31.6826 7.78883C31.6826 7.85183 31.6773 7.94626 31.6669 8.05643C31.6459 8.28208 31.6041 8.59163 31.5152 8.96418C31.3373 9.70403 30.971 10.6905 30.2228 11.6717C29.5112 12.6004 28.4804 13.4977 26.9996 14.1851C27.5961 15.7644 27.8211 17.5537 27.5385 19.5843C27.4967 19.8887 27.2717 20.1353 26.9682 20.2087L26.7903 19.4794C26.9089 19.9656 26.9682 20.2087 26.9682 20.2087H26.9368C26.9368 20.2087 26.895 20.2245 26.8636 20.2297C26.806 20.2402 26.7171 20.256 26.6124 20.2769C26.3979 20.3137 26.0944 20.3557 25.7229 20.3819C24.9747 20.4343 23.9334 20.4343 22.7561 20.2087C21.898 20.0461 20.9719 19.7627 20.03 19.301C19.4335 20.8856 18.3243 22.5699 16.3098 23.719C16.0796 23.8502 15.7918 23.8502 15.5564 23.719C13.5367 22.5699 12.4326 20.8856 11.8361 19.301C10.8995 19.7575 9.97338 20.0408 9.1153 20.2035C7.93801 20.4291 6.89676 20.4291 6.1485 20.3767C5.77181 20.3504 5.47354 20.3084 5.25902 20.2717C5.15438 20.256 5.07063 20.2402 5.00788 20.2245C4.97648 20.2192 4.95553 20.214 4.93458 20.2087H4.90323C4.90323 20.2087 4.90323 20.2035 5.08113 19.4741L4.90323 20.2035C4.60497 20.13 4.37997 19.8834 4.33288 19.5791C4.05033 17.5537 4.27532 15.7592 4.87183 14.1851C3.39105 13.4924 2.36027 12.6004 1.64343 11.6664C0.889968 10.6853 0.528932 9.69877 0.35103 8.95897C0.262079 8.58642 0.22022 8.27682 0.199291 8.05122C0.188826 7.941 0.183594 7.84657 0.183594 7.78362C0.183594 7.75214 0.183594 7.72588 0.183594 7.70488C0.183594 7.6944 0.183594 7.68914 0.183594 7.67866V7.66819C0.183594 7.66819 0.183594 7.66292 0.937057 7.67866L0.204523 7.66819C0.214988 7.25889 0.549861 6.93355 0.957986 6.93355H11.8571ZM5.52584 12.8261C4.24393 12.2279 3.41198 11.4775 2.86781 10.764C2.27132 9.98211 1.97831 9.20031 1.84226 8.61789C1.82656 8.55494 1.8161 8.4972 1.8004 8.43951H9.74319C8.37227 9.36822 7.1479 10.4701 6.19562 11.7819C5.95493 12.1177 5.72991 12.4692 5.52584 12.8313V12.8261ZM6.95433 13.3665C7.10083 13.1199 7.25778 12.8838 7.42 12.6529C8.67577 10.9213 10.5332 9.5466 12.6471 8.47098C14.0861 8.69659 15.1901 9.93489 15.1901 11.4356C15.1901 11.8501 15.5302 12.1859 15.9436 12.1859C16.3569 12.1859 16.697 11.8501 16.697 11.4356C16.697 9.93489 17.801 8.69132 19.2348 8.47098C21.3486 9.5466 23.2061 10.9161 24.4619 12.6529C24.6293 12.8838 24.7811 13.1199 24.9276 13.3613C23.6299 13.7496 21.9974 13.9962 19.9516 13.9962C19.737 13.9962 19.533 14.0854 19.3917 14.2428C19.2504 14.4002 19.1772 14.61 19.1981 14.82V14.8672C19.2034 14.9039 19.2086 14.9564 19.2086 15.0298C19.2138 15.1768 19.219 15.3919 19.2086 15.6595C19.1981 16.011 19.1667 16.457 19.0882 16.9503C18.204 16.2576 17.3406 15.3237 16.5767 14.0801C16.4406 13.8597 16.1947 13.7233 15.9331 13.7233C15.6715 13.7233 15.4255 13.8597 15.2895 14.0801C14.5203 15.3289 13.657 16.2576 12.7727 16.9555C12.6943 16.4623 12.6629 16.0163 12.6524 15.6648C12.6471 15.3972 12.6524 15.182 12.6524 15.0351C12.6524 14.9616 12.6576 14.9092 12.6629 14.8724V14.8357C12.6838 14.6153 12.6157 14.4054 12.4745 14.248C12.3332 14.0906 12.1291 14.0014 11.9146 14.0014C9.86874 14.0014 8.2415 13.7548 6.94383 13.3717L6.95433 13.3665ZM6.29505 14.736C5.83979 15.9376 5.64099 17.2966 5.78226 18.8392C5.91831 18.855 6.08575 18.876 6.26887 18.8864C6.91243 18.9337 7.81764 18.9284 8.83798 18.7343C9.63854 18.5821 10.5228 18.3093 11.4123 17.837C11.2292 17.0028 11.1664 16.2576 11.1507 15.7014C11.1507 15.628 11.1507 15.5545 11.1507 15.4863C9.21995 15.4286 7.61884 15.1505 6.30027 14.7307L6.29505 14.736ZM13.1704 18.5349C13.6204 19.8467 14.4419 21.2109 15.9436 22.1921C17.4452 21.2109 18.2668 19.8414 18.7167 18.5297C17.754 17.8685 16.8069 16.987 15.9488 15.8221C15.0854 16.9922 14.1384 17.8738 13.1756 18.5349H13.1704ZM20.4696 17.837C21.3591 18.3093 22.2434 18.5821 23.0491 18.7343C24.0695 18.9284 24.9747 18.9337 25.6182 18.8864C25.8014 18.8707 25.9688 18.855 26.1049 18.8392C26.2461 17.2966 26.0473 15.9376 25.5921 14.736C24.2683 15.1558 22.6672 15.4338 20.7364 15.4916C20.7364 15.5598 20.7364 15.6332 20.7364 15.7067C20.7207 16.2629 20.658 17.008 20.4748 17.8423L20.4696 17.837ZM26.3613 12.8261C27.6379 12.2279 28.4699 11.4775 29.0141 10.764C29.6106 9.98211 29.9036 9.20031 30.0396 8.61789C30.0553 8.55494 30.0658 8.4972 30.0815 8.43951H22.1439C23.5148 9.36822 24.7392 10.4701 25.6915 11.7819C25.9322 12.1177 26.1572 12.464 26.3613 12.8261Z" fill="white"/>
</g>
<defs>
<clipPath id="clip0_5624_9611">
<rect width="80" height="24" fill="white"/>
</clipPath>
</defs>
</svg>
