<svg width="100" height="18" viewBox="0 0 100 18" fill="none" xmlns="http://www.w3.org/2000/svg">
<g clip-path="url(#clip0_5624_9525)">
<path d="M64.6738 13.7706C61.3595 13.8477 58.6105 11.2127 58.5337 7.88451C58.5312 7.77508 58.5319 7.66511 58.5354 7.55564C58.4926 5.91173 59.1233 4.32204 60.2798 3.15777C61.4328 1.97359 63.0252 1.32528 64.6738 1.36956C66.3284 1.32876 67.9118 2.04176 68.982 3.30902L67.9268 4.36882C67.1418 3.37271 65.9387 2.80202 64.6742 2.8259C63.4455 2.79555 62.2585 3.27569 61.3931 4.15237C60.5092 5.05743 60.0367 6.28887 60.0865 7.55564C60.0325 8.8274 60.5057 10.0648 61.3931 10.9733C62.2564 11.853 63.4451 12.3337 64.6742 12.2998C66.072 12.2929 67.3916 11.6515 68.2643 10.5549L69.3699 11.6366C68.8101 12.3083 68.1057 12.8437 67.3095 13.2014C66.4827 13.582 65.5837 13.7765 64.6742 13.7711L64.6738 13.7706ZM72.1196 1.63625V13.5113H70.5972V1.63625H72.1196ZM73.4262 9.44487C73.3925 8.2955 73.8166 7.17949 74.6037 6.34459C75.3838 5.53309 76.468 5.08829 77.5905 5.11911C78.7094 5.08677 79.7894 5.53259 80.5628 6.34459C81.3584 7.17501 81.786 8.29303 81.7477 9.44487C81.7898 10.5972 81.3622 11.7172 80.5628 12.5451C79.7915 13.3606 78.7098 13.8064 77.5905 13.7706C76.467 13.8049 75.3817 13.3596 74.6037 12.5451C73.8166 11.7097 73.3928 10.5942 73.4262 9.44487ZM74.9481 9.44487C74.9131 10.2245 75.187 10.9868 75.7093 11.5644C76.6883 12.6078 78.3243 12.6566 79.3629 11.6734C79.4001 11.6381 79.4362 11.6018 79.4716 11.5644C79.9936 10.9863 80.2679 10.2245 80.2324 9.44487C80.2661 8.66967 79.9921 7.9129 79.4716 7.33972C78.5158 6.29634 76.8987 6.22867 75.8598 7.18843C75.8075 7.23672 75.7574 7.28695 75.7093 7.33972C75.1884 7.9129 74.9145 8.66967 74.9481 9.44487ZM90.1482 13.5113H88.7122V12.3794H88.6403C88.3839 12.8028 88.0159 13.1466 87.5775 13.3745C87.1222 13.6337 86.6073 13.7706 86.0843 13.7711C85.2351 13.8263 84.4027 13.5173 83.7934 12.9203C83.2248 12.2446 82.9389 11.3734 82.9968 10.4907V5.39328H84.5121V10.3972C84.3971 11.3818 85.0986 12.274 86.0794 12.3894C86.2239 12.4063 86.3705 12.4058 86.5154 12.3869C87.105 12.3973 87.6648 12.1306 88.0303 11.6659C88.4404 11.1709 88.6568 10.5429 88.641 9.89963V5.39328H90.163L90.1486 13.5119L90.1482 13.5113ZM95.2887 13.7711C94.2427 13.7711 93.2494 13.3128 92.5675 12.5168C91.8133 11.6744 91.4033 10.5778 91.4187 9.44536C91.3938 8.31889 91.794 7.22429 92.5387 6.38091C93.2157 5.57736 94.2122 5.11513 95.26 5.11911C95.8264 5.10967 96.3863 5.24052 96.8896 5.50124C97.3509 5.72963 97.743 6.07841 98.0243 6.51078H98.0889L98.0531 5.39328V1.63625H99.5684V13.5113H98.1324V12.3794H98.0678C97.7865 12.8118 97.3951 13.1606 96.9335 13.3889C96.4256 13.6517 95.8601 13.783 95.2894 13.7711H95.2887ZM95.5399 12.3794C96.2421 12.4023 96.9159 12.1023 97.3709 11.565C97.8732 10.9773 98.1303 10.2181 98.0889 9.44536C98.1236 8.67764 97.8668 7.92534 97.3709 7.34021C96.9173 6.79887 96.2442 6.49387 95.5399 6.51127C94.8373 6.50035 94.1659 6.80433 93.7092 7.34021C93.2132 7.92534 92.9565 8.67764 92.9912 9.44536C92.9516 10.2141 93.2087 10.9679 93.7092 11.5505C94.1659 12.0869 94.8373 12.3904 95.5399 12.3794Z" fill="white"/>
<path d="M7.04826 13.7704C3.33016 13.7828 0.293338 10.791 0.234375 7.05789C0.293338 3.32473 3.33016 0.332941 7.04826 0.34538C8.7681 0.316522 10.427 0.984738 11.6508 2.19827L10.3511 3.48892C9.46525 2.63214 8.27854 2.16046 7.04826 2.17688C4.39545 2.16891 2.23811 4.32182 2.23018 6.98572C2.23018 7.01013 2.23018 7.03401 2.23018 7.05838C2.19847 9.72228 4.32312 11.9075 6.97593 11.9394C7.0002 11.9394 7.02399 11.9394 7.04826 11.9394C8.31719 11.9916 9.54848 11.5015 10.4374 10.591C11.023 9.95662 11.3753 9.13965 11.4353 8.2764H7.04826V6.45237H13.223C13.2904 6.83049 13.3216 7.2146 13.3161 7.59871C13.3647 9.18093 12.7924 10.7189 11.7221 11.8817C10.5038 13.1524 8.80325 13.84 7.04777 13.7709L7.04826 13.7704Z" fill="white"/>
<path d="M22.8649 9.4451C22.9615 11.8085 21.1322 13.8027 18.7786 13.8997C16.4251 13.9967 14.4392 12.1597 14.3426 9.79634C14.3376 9.67944 14.3376 9.562 14.3426 9.4451C14.2459 7.08169 16.0753 5.0875 18.4288 4.99049C20.7824 4.89345 22.7683 6.73041 22.8649 9.09382C22.8698 9.21072 22.8698 9.32816 22.8649 9.4451ZM20.9979 9.4451C21.1233 8.11711 20.1531 6.9384 18.8307 6.81202C17.5082 6.68614 16.3344 7.66034 16.2085 8.98832C16.1942 9.14006 16.1942 9.29332 16.2085 9.4451C16.0832 10.773 17.0534 11.9518 18.3758 12.0781C19.6982 12.204 20.8721 11.2298 20.9979 9.90184C21.0123 9.75009 21.0123 9.59684 20.9979 9.4451Z" fill="white"/>
<path d="M32.4225 9.4451C32.5191 11.8085 30.6898 13.8027 28.3363 13.8997C25.9827 13.9967 23.9968 12.1597 23.9002 9.79634C23.8952 9.67944 23.8952 9.562 23.9002 9.4451C23.8036 7.08169 25.6329 5.0875 27.9864 4.99049C30.34 4.89345 32.3259 6.73041 32.4225 9.09382C32.4275 9.21072 32.4275 9.32816 32.4225 9.4451ZM30.5555 9.4451C30.6581 8.11511 29.6676 6.95334 28.3432 6.85035C27.0188 6.74735 25.8618 7.74195 25.7593 9.07191C25.7498 9.19582 25.7498 9.32069 25.7593 9.4451C25.6567 10.7751 26.6471 11.9368 27.9716 12.0398C29.296 12.1428 30.453 11.1482 30.5555 9.81825C30.565 9.69437 30.565 9.56947 30.5555 9.4451Z" fill="white"/>
<path d="M41.7337 5.39333V13.1512C41.7337 16.338 39.8451 17.6501 37.6195 17.6501C35.9443 17.6595 34.4291 16.651 33.7855 15.0976L35.4437 14.3767C35.7857 15.2807 36.6356 15.8892 37.5978 15.9196C39.0335 15.9196 39.9097 15.0329 39.9097 13.3816V12.7616H39.8665C39.2853 13.4204 38.4449 13.7896 37.569 13.7712C35.1898 13.7712 33.2607 11.8342 33.2607 9.44492C33.2607 7.05566 35.1898 5.1187 37.569 5.1187C38.4421 5.10228 39.2794 5.46498 39.8665 6.11379H39.9311V5.39284H41.733L41.7337 5.39333ZM40.0609 9.47429C40.1693 8.12891 39.171 6.94971 37.831 6.84072C37.8037 6.83875 37.776 6.83674 37.749 6.83526C36.3698 6.885 35.2922 8.04828 35.3417 9.43298C35.3417 9.44692 35.3427 9.46034 35.3438 9.47429C35.2799 10.8465 36.3357 12.0113 37.7023 12.0755C37.7178 12.076 37.7335 12.077 37.749 12.0775C39.0763 12.0302 40.1142 10.9112 40.0672 9.57778C40.0658 9.54097 40.0637 9.50413 40.0609 9.46732V9.47429Z" fill="white"/>
<path d="M45.059 0.806885V13.5109H43.1631V0.806885H45.059Z" fill="white"/>
<path d="M52.5256 10.8719L54.0048 11.8814C53.2026 13.0835 51.8553 13.803 50.4151 13.7995C48.1116 13.8328 46.2171 11.9839 46.1841 9.67079C46.1831 9.60513 46.1841 9.53944 46.1859 9.47325C45.9972 7.28353 47.6114 5.3545 49.7921 5.16444C51.6305 5.00424 53.3349 6.13917 53.9042 7.90149L54.0978 8.39905L48.3536 10.7853C48.7198 11.6118 49.5497 12.1312 50.4502 12.0973C51.3067 12.078 52.0921 11.6137 52.5253 10.8719H52.5256ZM47.9951 9.31454L51.8578 7.71393C51.5421 7.12728 50.9114 6.78248 50.2495 6.83423C48.9464 6.89245 47.9366 8.00099 47.9944 9.30957V9.31454H47.9951Z" fill="white"/>
</g>
<defs>
<clipPath id="clip0_5624_9525">
<rect width="99.6176" height="17.9638" fill="white"/>
</clipPath>
</defs>
</svg>
