<svg width="95" height="25" viewBox="0 0 95 25" fill="none" xmlns="http://www.w3.org/2000/svg">
<g clip-path="url(#clip0_5624_9507)">
<path d="M14.3715 14.3559C16.2953 14.3559 17.8446 12.7887 17.8446 10.8426C17.8446 8.89654 16.2953 7.32935 14.3715 7.32935C12.4477 7.32935 10.8984 8.89654 10.8984 10.8426C10.9235 12.7887 12.4724 14.3559 14.3715 14.3559Z" fill="white"/>
<path d="M13.4235 0.176366L2.12959 6.29314C2.05468 6.31854 2.0547 6.39432 2.02959 6.4701L0.280697 14.3056C0.255583 14.4322 0.305809 14.508 0.430513 14.5584L15.0728 21.5345C15.1728 21.5849 15.2728 21.5849 15.3724 21.5345L24.7672 17.2376C24.8672 17.1873 24.917 17.0861 24.9422 17.0103L28.3901 1.33928C28.4152 1.21269 28.3403 1.08654 28.2152 1.06114H28.1901L13.6236 0.176366C13.5486 0.125995 13.4737 0.150962 13.4235 0.176366ZM15.1226 21.1298L1.42988 14.6087H6.50202L17.7708 16.2263L15.1222 21.1298H15.1226ZM18.2212 16.2766L23.993 17.1106L15.6725 20.9274L18.2212 16.2766ZM6.82722 14.204L11.1247 5.66064L24.3676 4.11888L17.996 15.8216L6.82676 14.204H6.82722ZM24.6676 3.66421L11.3499 5.20601L13.6738 0.580647L27.6164 1.41461L24.6681 3.66421H24.6676ZM10.8502 5.28179L3.27921 6.16657L13.0741 0.858783L10.8502 5.28223V5.28179ZM2.37987 6.67202L10.6255 5.71147L6.37775 14.1536H0.730589L2.37987 6.67202ZM24.5681 16.7821L18.4212 15.8973L24.8928 3.99274L27.8662 1.71771L24.5681 16.7821Z" fill="white"/>
<path d="M37.3843 12.5362H41.2074V14.3308H35.1855V4.67531H37.4094L37.3843 12.5362ZM43.4313 3.99292C42.7314 3.99292 42.157 4.57413 42.157 5.28197C42.157 5.98979 42.7314 6.57103 43.4313 6.57103C44.1311 6.57103 44.7055 5.98979 44.7055 5.28197C44.7055 4.57413 44.1556 3.99292 43.4313 3.99292ZM42.432 14.3557H44.506V7.35463H42.432V14.3562V14.3557ZM51.0274 7.35416H52.9763V13.7491C52.9763 16.0999 51.6019 17.5659 49.4031 17.5659C47.3794 17.5659 46.0049 16.4792 45.9552 14.735L48.0292 14.6593C48.0792 15.4174 48.604 15.8472 49.3286 15.8472C50.3279 15.8472 50.8778 15.1901 50.8778 14.0272V12.9405C50.5784 13.5218 49.9034 14.0272 48.954 14.0272C47.0802 14.0272 45.6309 12.637 45.6309 10.6152C45.6309 8.59329 47.0051 7.17766 49.004 7.17766C49.9034 7.17766 50.7282 7.68312 51.0277 8.36554V7.35463L51.0274 7.35416ZM51.0023 10.5893C51.0023 9.60334 50.3276 8.89596 49.3283 8.89596C48.329 8.89596 47.6789 9.57838 47.6789 10.5893C47.6789 11.6002 48.3535 12.2826 49.3283 12.2826C50.3276 12.2323 51.0023 11.5499 51.0023 10.5893ZM58.3486 7.20219C57.4989 7.1768 56.6992 7.68225 56.3746 8.51664V4.70073H54.2757V14.3811H56.3746V10.4885C56.3746 9.47763 56.8242 8.92135 57.6237 8.92135C58.4231 8.92135 58.8483 9.45224 58.8483 10.3874V14.3557H60.9223V10.0589C60.9474 8.36554 59.923 7.20263 58.3486 7.20263V7.20219ZM64.8201 5.68582H62.7461V7.35416H61.5969V9.02253H62.7461V11.7272C62.7461 13.4964 63.8202 14.3557 65.1947 14.3557H66.2191L66.194 12.5866H65.744C65.0948 12.5866 64.8198 12.2581 64.8198 11.6261V9.04796H66.2688V7.37959H64.8198V5.68625L64.8201 5.68582ZM76.9637 5.68582H74.9145V7.35416H73.7653V9.02253H74.9145V11.7019C74.9145 13.471 75.9889 14.3303 77.3631 14.3303H78.3878L78.3627 12.5612H77.9127C77.288 12.5612 76.9882 12.2327 76.9882 11.6007V9.02253H78.4375V7.35416H76.9882V5.68582H76.9631H76.9637ZM94.4792 10.8674C94.4792 13.0159 93.1047 14.5073 91.1558 14.5073C90.3561 14.5327 89.6066 14.128 89.1572 13.4455V16.9842H87.0832V7.35463H89.1572V8.34058C89.507 7.63273 90.3567 7.22846 91.1558 7.22846C93.1047 7.20306 94.4792 8.7199 94.4792 10.8683V10.8674ZM92.3804 10.8674C92.3804 9.75534 91.6809 8.94635 90.7064 8.94635C89.7323 8.94635 89.0325 9.72994 89.0325 10.8674C89.0325 12.005 89.7323 12.7885 90.7064 12.7885C91.7057 12.7631 92.3804 12.005 92.3804 10.8674ZM86.1339 10.7916C86.1339 11.019 86.1091 11.2467 86.0842 11.4487H81.2368C81.2867 12.3334 81.9114 12.965 82.7608 12.965C83.4606 12.965 83.91 12.6869 84.1353 12.1311L85.8841 12.4596C85.5846 13.7232 84.3103 14.5826 82.686 14.5826C80.5621 14.5826 79.0631 13.0408 79.0631 10.8924C79.0631 8.74396 80.5124 7.1768 82.6112 7.1768C84.7098 7.15137 86.1345 8.64278 86.1345 10.7912L86.1339 10.7916ZM84.085 10.1596C84.085 9.37602 83.5106 8.76939 82.6609 8.76939C81.8863 8.76939 81.2867 9.32563 81.2616 10.1596H84.085ZM70.8171 10.0081L69.8926 9.85652C69.4678 9.78073 69.2431 9.57838 69.2431 9.27528C69.2431 8.871 69.6428 8.56746 70.1179 8.56746C70.7175 8.56746 71.1423 8.94678 71.192 9.52802L73.0913 9.47763C73.0165 8.0874 71.8422 7.10188 70.1179 7.10188C68.3937 7.10188 67.2194 8.1128 67.2194 9.50303C67.2194 10.7163 67.9192 11.4491 69.4181 11.6769L70.3426 11.8284C70.9422 11.9296 71.242 12.0812 71.242 12.5108C71.242 12.9151 70.8423 13.1429 70.2427 13.1429C69.518 13.1429 69.0684 12.7636 69.0181 12.1823L67.0943 12.2327C67.1439 13.6229 68.4433 14.6085 70.2427 14.6085C72.0417 14.6085 73.2657 13.6479 73.2657 12.2577C73.2908 11.0698 72.4414 10.2608 70.8171 10.0081Z" fill="white"/>
<path d="M36.0855 21.5591V21.6349H36.7853V22.09H36.0855V24.3142H35.6358V22.09H35.2109V21.6349H35.6358V21.5591C35.6358 20.8513 36.0355 20.447 36.785 20.4974V20.9524C36.3105 20.9271 36.0852 21.104 36.0852 21.5591H36.0855Z" fill="white"/>
<path d="M38.4598 21.6099V22.0899C38.0601 22.0645 37.6355 22.2669 37.6355 22.8989V24.3145H37.1855V21.6607H37.6355V22.1158C37.8103 21.7364 38.1352 21.6103 38.4598 21.6103V21.6099Z" fill="white"/>
<path d="M38.6592 22.9747C38.6592 22.1911 39.2842 21.5591 40.0588 21.5591C40.8334 21.5591 41.4581 22.1657 41.4581 22.9747C41.4581 23.7837 40.8334 24.3904 40.0588 24.3904C39.2842 24.3904 38.6592 23.7837 38.6592 22.9747ZM40.9833 22.9747C40.9833 22.4439 40.5836 22.0142 40.0588 22.0142C39.534 22.0142 39.1343 22.4185 39.1343 22.9747C39.1343 23.531 39.534 23.9353 40.0588 23.9353C40.5836 23.9353 40.9833 23.531 40.9833 22.9747Z" fill="white"/>
<path d="M45.9051 22.6715V24.3399H45.4551V22.6969C45.4551 22.2672 45.2304 22.0399 44.8807 22.0399C44.5055 22.0399 44.2311 22.2672 44.2311 22.8489V24.3403H43.7566V22.6974C43.7566 22.2677 43.5319 22.0404 43.2067 22.0404C42.8566 22.0404 42.532 22.2677 42.532 22.8494V24.3408H42.082V21.6615H42.532V22.0154C42.7322 21.7123 43.0065 21.5857 43.3066 21.5857C43.6564 21.5857 43.9313 21.7627 44.0812 22.0408C44.2563 21.7377 44.5557 21.5857 44.9058 21.5857C45.4802 21.5857 45.9051 21.99 45.9051 22.6724V22.6715Z" fill="white"/>
<path d="M47.805 23.4801L48.2299 23.2274C48.3549 23.6317 48.6798 23.9098 49.2291 23.9098C49.7788 23.9098 50.0041 23.6571 50.0041 23.3286C50.0041 22.9493 49.6791 22.8231 49.1292 22.6462C48.5296 22.4438 47.9549 22.2669 47.9549 21.5844C47.9549 20.902 48.5048 20.5227 49.1292 20.5227C49.7536 20.5227 50.1788 20.8766 50.3783 21.3317L49.9789 21.5844C49.8536 21.2559 49.5792 21.0032 49.1292 21.0032C48.7295 21.0032 48.4545 21.2056 48.4545 21.5595C48.4545 21.9134 48.7044 22.0395 49.2291 22.1915C49.8787 22.3939 50.4786 22.5958 50.4786 23.329C50.4786 23.986 49.9538 24.3907 49.2043 24.3907C48.5045 24.3907 48.0049 24.0368 47.8047 23.481L47.805 23.4801Z" fill="white"/>
<path d="M52.4014 23.9604C52.7766 23.9604 53.0265 23.7834 53.1509 23.5811L53.5506 23.8084C53.3259 24.1623 52.9259 24.415 52.3763 24.415C51.5269 24.415 50.9521 23.8084 50.9521 22.9994C50.9521 22.1904 51.5021 21.5837 52.3266 21.5837C53.1509 21.5837 53.6509 22.2408 53.6509 22.9994C53.6509 23.0752 53.6509 23.1509 53.6257 23.2018H51.4018C51.5269 23.6818 51.9015 23.96 52.4011 23.96L52.4014 23.9604ZM51.4518 22.7979H53.226C53.1509 22.2671 52.776 22.0143 52.3763 22.0143C51.8515 22.0143 51.5269 22.3174 51.4518 22.7979Z" fill="white"/>
<path d="M55.551 21.6099V22.0899C55.1513 22.0645 54.7265 22.2669 54.7265 22.8989V24.3145H54.252V21.6607H54.7019V22.1158C54.877 21.7364 55.2016 21.6103 55.5513 21.6103L55.551 21.6099Z" fill="white"/>
<path d="M58.3746 21.6599L57.3251 24.3392H56.7752L55.7256 21.6599H56.2252L57.0495 23.8337L57.8741 21.6599H58.3737H58.3746Z" fill="white"/>
<path d="M58.749 20.8514C58.749 20.6745 58.8741 20.5483 59.0488 20.5483C59.2232 20.5483 59.3483 20.6999 59.3483 20.8514C59.3483 21.0284 59.2232 21.1545 59.0488 21.1545C58.8989 21.1545 58.749 21.028 58.749 20.8514ZM58.8241 21.6604H59.2738V24.3397H58.8241V21.6604Z" fill="white"/>
<path d="M59.8984 22.9747C59.8984 22.1911 60.498 21.5591 61.2977 21.5591C61.8225 21.5591 62.2725 21.8372 62.4721 22.2669L62.0972 22.4942C61.9718 22.2161 61.6723 22.0142 61.3226 22.0142C60.7978 22.0142 60.3981 22.4185 60.3981 22.9747C60.3981 23.531 60.7978 23.9099 61.3226 23.9099C61.6723 23.9099 61.9718 23.7329 62.1223 23.4548L62.5217 23.6821C62.297 24.0864 61.8473 24.3645 61.3226 24.3645C60.498 24.3899 59.8984 23.7833 59.8984 22.9743V22.9747Z" fill="white"/>
<path d="M64.2205 23.9604C64.5956 23.9604 64.8455 23.7834 64.9702 23.5811L65.3696 23.8084C65.145 24.1623 64.7449 24.415 64.1953 24.415C63.3459 24.415 62.7715 23.8084 62.7715 22.9994C62.7715 22.1904 63.3211 21.5837 64.1457 21.5837C64.9702 21.5837 65.4699 22.2408 65.4699 22.9994C65.4699 23.0752 65.4699 23.1509 65.4447 23.2018H63.2209C63.3459 23.6818 63.7205 23.96 64.2202 23.96L64.2205 23.9604ZM63.2711 22.7979H65.045C64.9702 22.2671 64.595 22.0143 64.1953 22.0143C63.6705 22.0143 63.3459 22.3174 63.2711 22.7979Z" fill="white"/>
<path d="M68.9168 20.5735V24.314H68.5171L66.6181 21.5086V24.314H66.1182V20.5735H66.5179L68.4172 23.354V20.5735H68.9168Z" fill="white"/>
<path d="M69.5684 22.9747C69.5684 22.1911 70.1934 21.5591 70.968 21.5591C71.7426 21.5591 72.3673 22.1657 72.3673 22.9747C72.3673 23.7837 71.7426 24.3904 70.968 24.3904C70.1934 24.3904 69.5684 23.7837 69.5684 22.9747ZM71.8925 22.9747C71.8925 22.4439 71.4928 22.0142 70.968 22.0142C70.4432 22.0142 70.0435 22.4185 70.0435 22.9747C70.0435 23.531 70.4432 23.9353 70.968 23.9353C71.4676 23.9353 71.8925 23.531 71.8925 22.9747Z" fill="white"/>
<path d="M76.4143 21.6599L75.5897 24.3392H75.1152L74.4902 22.3677L73.8655 24.3392H73.391L72.5664 21.6599H73.0412L73.6157 23.6817L74.2404 21.6599H74.6904L75.3151 23.7071L75.8898 21.6599H76.4146H76.4143Z" fill="white"/>
</g>
<defs>
<clipPath id="clip0_5624_9507">
<rect width="94.7183" height="24.4961" fill="white"/>
</clipPath>
</defs>
</svg>
