<svg width="180" height="40" viewBox="0 0 180 40" fill="none" xmlns="http://www.w3.org/2000/svg">
<path d="M74.6894 7.96968V31.7647H70.7061V13.0926H70.6526L63.5353 31.7658H60.8797L53.6029 13.0926H53.5494V31.7658H49.8848V7.96968H55.6208L62.2075 25.5965H62.3134L69.2713 7.96968H74.6894ZM77.983 9.78716C77.983 9.12583 78.1958 8.57546 78.673 8.13494C79.1516 7.69442 79.6823 7.47368 80.3194 7.47368C81.0101 7.47368 81.5944 7.69442 82.0201 8.13494C82.4444 8.57546 82.7101 9.12694 82.7101 9.78716C82.7101 10.4474 82.4973 10.9989 82.0201 11.4393C81.5416 11.8798 81.0108 12.1006 80.3194 12.1006C79.6287 12.1006 79.098 11.8798 78.673 11.4393C78.248 10.9434 77.983 10.393 77.983 9.78716ZM82.2851 14.6893V31.7647H78.408V14.6903H82.2851V14.6893ZM94.0237 28.8454C94.608 28.8454 95.2458 28.7355 95.9358 28.4049C96.6258 28.1297 97.2637 27.7436 97.848 27.3031V31.049C97.2101 31.434 96.5201 31.7103 95.723 31.8756C94.9258 32.0409 94.0758 32.1509 93.1208 32.1509C90.6773 32.1509 88.7123 31.3797 87.2251 29.7819C85.6844 28.1841 84.9408 26.1469 84.9408 23.7225C84.9408 20.9685 85.738 18.7104 87.278 16.9473C88.8187 15.1843 90.9958 14.3032 93.8644 14.3032C94.608 14.3032 95.3515 14.4131 96.0415 14.5784C96.7851 14.7438 97.3694 15.0189 97.7944 15.2397V19.0955C97.2101 18.655 96.5723 18.2689 95.988 18.0492C95.3508 17.8283 94.7137 17.6641 94.0758 17.6641C92.5351 17.6641 91.3144 18.1601 90.358 19.2064C89.4016 20.2528 88.9766 21.6298 88.9766 23.3929C88.9766 25.156 89.4551 26.4775 90.358 27.414C91.2608 28.3505 92.483 28.8464 94.023 28.8464L94.0237 28.8454ZM108.842 14.4141C109.162 14.4141 109.427 14.4141 109.692 14.4696C109.957 14.525 110.17 14.5795 110.33 14.6349V18.7115C110.117 18.5462 109.852 18.3809 109.427 18.2709C109.002 18.1611 108.577 18.0502 107.993 18.0502C107.037 18.0502 106.24 18.4907 105.603 19.3173C104.965 20.144 104.594 21.4101 104.594 23.1732V31.7658H100.717V14.6903H104.594V17.3889H104.647C105.019 16.4524 105.55 15.7367 106.24 15.1853C106.984 14.6893 107.834 14.4141 108.842 14.4141ZM110.543 23.5027C110.543 20.6933 111.34 18.4352 112.827 16.7831C114.368 15.1309 116.492 14.3043 119.201 14.3043C121.751 14.3043 123.769 15.0754 125.203 16.6732C126.637 18.2709 127.381 20.4192 127.381 23.1177C127.381 25.8162 126.584 28.0753 125.097 29.7275C123.556 31.3797 121.484 32.2063 118.829 32.2063C116.173 32.2063 114.261 31.4351 112.774 29.8928C111.287 28.295 110.543 26.1469 110.543 23.5038V23.5027ZM114.579 23.3374C114.579 25.1005 114.951 26.4775 115.748 27.414C116.545 28.3505 117.66 28.8464 119.094 28.8464C120.528 28.8464 121.59 28.4059 122.334 27.414C123.077 26.4775 123.449 25.1005 123.449 23.2275C123.449 21.3546 123.077 20.033 122.334 19.0411C121.59 18.1046 120.475 17.6086 119.147 17.6086C117.712 17.6086 116.65 18.1046 115.853 19.0955C114.95 20.1418 114.579 21.5189 114.579 23.3363L114.579 23.3374ZM133.17 19.2064C133.17 19.7568 133.329 20.2528 133.701 20.5834C134.072 20.9141 134.816 21.2991 136.038 21.7951C137.579 22.4563 138.694 23.1721 139.277 23.9432C139.915 24.7698 140.234 25.7063 140.234 26.8626C140.234 28.4603 139.65 29.7264 138.428 30.7183C137.259 31.7103 135.613 32.1509 133.595 32.1509C132.905 32.1509 132.162 32.0409 131.311 31.8756C130.46 31.7103 129.77 31.4906 129.186 31.2143V27.2486C129.876 27.7446 130.673 28.1852 131.47 28.4603C132.267 28.7355 133.011 28.9009 133.701 28.9009C134.55 28.9009 135.242 28.791 135.613 28.5158C136.038 28.2406 136.251 27.8545 136.251 27.2486C136.251 26.6983 136.038 26.2567 135.613 25.8162C135.188 25.4312 134.339 24.9896 133.169 24.4946C131.735 23.8889 130.725 23.1732 130.142 22.402C129.557 21.6308 129.238 20.6389 129.238 19.4272C129.238 17.8849 129.822 16.6178 130.991 15.6269C132.159 14.6349 133.7 14.14 135.559 14.14C136.143 14.14 136.78 14.1955 137.47 14.3608C138.161 14.5261 138.798 14.6914 139.277 14.8567V18.768C138.746 18.4373 138.162 18.1067 137.47 17.8315C136.78 17.5563 136.089 17.4464 135.452 17.4464C134.709 17.4464 134.124 17.6118 133.752 17.8869C133.38 18.2721 133.168 18.6581 133.168 19.2085L133.17 19.2064ZM141.881 23.5027C141.881 20.6933 142.678 18.4352 144.165 16.7831C145.706 15.1309 147.829 14.3043 150.539 14.3043C153.089 14.3043 155.107 15.0754 156.542 16.6732C157.975 18.2709 158.719 20.4192 158.719 23.1177C158.719 25.8162 157.922 28.0753 156.434 29.7275C154.894 31.3797 152.822 32.2063 150.167 32.2063C147.511 32.2063 145.599 31.4351 144.112 29.8928C142.678 28.295 141.881 26.1469 141.881 23.5038V23.5027ZM145.918 23.3374C145.918 25.1005 146.29 26.4775 147.086 27.414C147.883 28.3505 148.998 28.8464 150.432 28.8464C151.866 28.8464 152.928 28.4059 153.672 27.414C154.415 26.4775 154.787 25.1005 154.787 23.2275C154.787 21.3546 154.414 20.033 153.672 19.0411C152.928 18.1046 151.813 17.6086 150.484 17.6086C149.051 17.6086 147.988 18.1046 147.191 19.0955C146.342 20.1418 145.917 21.5189 145.917 23.3363L145.918 23.3374ZM171.626 17.9947H165.836V31.7658H161.905V17.9947H159.144V14.6893H161.905V12.3203C161.905 10.5572 162.489 9.07042 163.605 7.9142C164.721 6.75797 166.155 6.20654 167.907 6.20654C168.386 6.20654 168.81 6.262 169.182 6.262C169.553 6.262 169.872 6.37187 170.138 6.48278V9.9525C170.032 9.89702 169.766 9.78716 169.448 9.67731C169.129 9.56746 168.758 9.51198 168.333 9.51198C167.536 9.51198 166.899 9.78716 166.474 10.2832C166.05 10.7791 165.837 11.6046 165.837 12.5966V14.6349H171.627V10.7791L175.504 9.56746V14.6349H179.435V17.9403H175.504V25.9272C175.504 26.9735 175.717 27.6902 176.034 28.1307C176.407 28.5712 176.992 28.792 177.787 28.792C178 28.792 178.266 28.7366 178.584 28.6267C178.903 28.5169 179.169 28.4059 179.382 28.2417V31.5471C179.117 31.7124 178.744 31.8223 178.159 31.9321C177.575 32.042 177.044 32.0975 176.459 32.0975C174.813 32.0975 173.591 31.6569 172.795 30.7759C171.998 29.8949 171.573 28.5179 171.573 26.6993L171.627 17.9969L171.626 17.9947Z" fill="white"/>
<path d="M18.2809 0.0397949H0.115234V18.8783H18.2809V0.0397949Z" fill="white"/>
<path d="M38.3581 0.0395508H20.1924V18.8781H38.3581V0.0395508Z" fill="white"/>
<path d="M18.2819 20.8579H0.116211V39.6964H18.2819V20.8579Z" fill="white"/>
<path d="M38.3581 20.8579H20.1924V39.6964H38.3581V20.8579Z" fill="white"/>
</svg>
