<svg width="80" height="32" viewBox="0 0 80 32" fill="none" xmlns="http://www.w3.org/2000/svg">
<g>
<path d="M56.4569 26.1119H55.772V25.1819H57.365V24.7651H55.3257V26.528H56.4256C56.8237 26.528 57.0464 26.7042 57.0464 27.0412V27.3935C57.0464 27.7625 56.7914 27.9705 56.3456 27.9705C55.8992 27.9705 55.6602 27.7625 55.6602 27.3935V27.0572H55.2139V27.3776C55.2139 27.9865 55.6602 28.3713 56.3297 28.3713C56.9991 28.3713 57.4609 27.9705 57.4609 27.3776V27.0412C57.4927 26.4802 57.0782 26.1112 56.4569 26.1112" fill="white"/>
<path d="M54.8306 25.1661V24.75H52.6641V28.3084H53.1099V26.8819H54.6556V26.4491H53.1099V25.1661H54.8306Z" fill="white"/>
<path d="M50.8642 24.829H51.0878V24.4282H50.8169C50.2429 24.4282 49.9089 24.7805 49.9089 25.3901V25.759H49.6221V26.1598H49.9248V28.3076H50.3547V26.1598H51.056V25.759H50.3547V25.4227C50.3388 25.0059 50.4983 24.8297 50.8651 24.8297" fill="white"/>
<path d="M45.3021 27.9068C44.9519 27.9068 44.7919 27.7466 44.7919 27.3298V26.1598H45.4773V25.759H44.7919V25.0059H44.3617V25.759H44.0273V26.1598H44.3617V27.4261C44.3617 28.035 44.6485 28.3076 45.2063 28.3076H45.5248V27.9068H45.3015H45.3021Z" fill="white"/>
<path d="M43.5505 25.7102C43.2637 25.6943 42.9768 25.8066 42.7694 26.0147L42.6894 25.7581H42.3867V28.3067H42.8169V26.704C42.8169 26.2872 43.1196 26.0951 43.4864 26.0951C43.5663 26.0951 43.6298 26.1111 43.7098 26.127V25.7262C43.6463 25.7102 43.598 25.7102 43.5505 25.7102Z" fill="white"/>
<path d="M76.3423 10.4839H74.2708L71.976 14.1227L69.7449 10.4839H67.5933L70.7966 15.7573L67.5615 21.2075H69.6018L71.8801 17.5208L74.1112 21.2075H76.2624L73.0277 15.8856L76.3423 10.4839Z" fill="white"/>
<path d="M64.9023 10.4839V17.7768L60.7119 10.4839H58.9902V21.2075H60.7119V13.9459L64.9023 21.2075H66.6553V10.4839H64.9023Z" fill="white"/>
<path d="M57.5545 10.4839H55.7061V21.2075H57.5545V10.4839Z" fill="white"/>
<path d="M54.2725 14.2987V13.6898C54.2725 11.6058 52.7586 10.2598 50.0816 10.2598C47.4046 10.2598 45.9062 11.6058 45.9062 13.6898V18.0013C45.9062 20.0853 47.436 21.4314 50.0975 21.4314C52.7586 21.4314 54.2725 20.0853 54.2725 18.0013V15.4846H50.018V17.1997H52.4086V17.889C52.4086 19.0111 51.5637 19.7004 50.0657 19.7004C48.5677 19.7004 47.7396 19.0111 47.7396 17.889V13.8015C47.7396 12.6794 48.5841 11.9901 50.0821 11.9901C51.5805 11.9901 52.4086 12.6794 52.4086 13.8015V14.2987H54.2725Z" fill="white"/>
<path d="M42.7365 10.4839V17.7768L38.546 10.4839H36.8086V21.2075H38.546V13.9459L42.7365 21.2075H44.4739V10.4839H42.7365Z" fill="white"/>
<path d="M48.1719 25.6946C47.4706 25.6946 47.0879 26.0954 47.0879 26.7522V27.3132C47.0879 27.9706 47.4547 28.3708 48.1719 28.3708C48.8891 28.3708 49.2558 27.97 49.2558 27.3132V26.7522C49.2558 26.0947 48.8891 25.6946 48.1719 25.6946ZM48.8413 27.2972C48.8413 27.7459 48.6346 27.9706 48.1878 27.9706C47.741 27.9706 47.5342 27.7459 47.5342 27.2972V26.7841C47.5342 26.3354 47.741 26.1107 48.1878 26.1107C48.6346 26.1107 48.8413 26.3354 48.8413 26.7841V27.2972Z" fill="white"/>
<path d="M41.5104 25.7585L41.4305 26.015C41.2236 25.7904 40.9362 25.6787 40.6335 25.6946C40.0123 25.6946 39.6455 25.9991 39.6455 26.7689V27.298C39.6455 28.0511 40.0123 28.3722 40.6335 28.3722C40.9362 28.3882 41.223 28.2758 41.4305 28.0518L41.5104 28.3084H41.8131V25.7598H41.5104V25.7585ZM40.7135 27.9707C40.2833 27.9707 40.0757 27.7627 40.0757 27.2814V26.8008C40.0757 26.3202 40.2826 26.1114 40.7135 26.1114C41.1119 26.1114 41.3512 26.3036 41.3829 26.7204V27.3618C41.3512 27.7786 41.0961 27.9707 40.7135 27.9707Z" fill="white"/>
<path d="M38.1951 24.7489H36.8086V28.3074H37.2547V27.0091H38.1951C38.8804 27.0091 39.2789 26.6568 39.2789 26.0632V25.6942C39.2789 25.1013 38.8804 24.7483 38.1951 24.7483V24.7489ZM38.8487 26.0785C38.8487 26.4148 38.6418 26.5916 38.2274 26.5916H37.2553V25.1651H38.2274C38.6418 25.1651 38.8487 25.3412 38.8487 25.6783V26.0791V26.0785Z" fill="white"/>
<path fill-rule="evenodd" clip-rule="evenodd" d="M1.04844 24.475C0.793351 24.3307 0.586502 24.1387 0.443095 23.882C0.283169 23.6255 0.219727 23.353 0.219727 23.0644V8.81503C0.219727 8.22209 0.522399 7.67701 1.04844 7.38849L13.3185 0.271795C13.8128 -0.0326557 14.434 -0.0326557 14.9442 0.271795L27.2143 7.38849C27.7244 7.67701 28.0271 8.22209 28.0271 8.81503V23.0485C28.0271 23.6414 27.7244 24.1865 27.2143 24.475L14.9442 31.5917C14.4499 31.8962 13.8287 31.8962 13.3185 31.5917L1.04844 24.475ZM8.61776 22.9542C9.49406 22.9542 10.1953 22.2489 10.1953 21.3675V13.481L17.2703 21.9764C17.7957 22.6338 18.6726 22.9383 19.4214 22.9383C20.4576 22.9383 21.2064 22.2489 21.2064 21.3994V10.5156C21.2064 9.63411 20.5052 8.92884 19.6289 8.92884C18.7526 8.92884 18.0514 9.63411 18.0514 10.5156V18.418L11.4542 10.4837L10.9764 9.90667C10.451 9.24926 9.57402 8.94479 8.82529 8.94479C7.78908 8.94479 7.04031 9.63411 7.04031 10.4837V21.3675C7.04031 22.2489 7.7415 22.9542 8.61776 22.9542Z" fill="white"/>
<path d="M78.5261 20.7257H78.7329V20.277H78.8919C78.9719 20.277 79.0515 20.277 79.1156 20.3089C79.1956 20.3728 79.2428 20.4691 79.2274 20.5655V20.7257H79.4182V20.7097C79.4182 20.6938 79.4023 20.6778 79.4023 20.6459V20.4857C79.4023 20.4219 79.3705 20.3575 79.3387 20.3096C79.2915 20.2458 79.2115 20.2132 79.1478 20.1972C79.2115 20.1972 79.2597 20.1654 79.3069 20.1494C79.3869 20.1016 79.4187 20.0052 79.4187 19.9247C79.4346 19.7964 79.3556 19.684 79.2437 19.6362C79.1478 19.6043 79.037 19.5884 78.9252 19.5884H78.5266V20.7264L78.5261 20.7257ZM79.0997 20.1009C79.036 20.1168 78.9719 20.1328 78.9088 20.1328H78.7333V19.716H78.9088C78.9888 19.716 79.0678 19.7319 79.1478 19.7638C79.1956 19.7957 79.2278 19.8602 79.2278 19.924C79.2119 20.0045 79.1642 20.0842 79.1001 20.1002L79.0997 20.1009ZM79.6737 19.4109C79.4828 19.2188 79.2119 19.1064 78.9411 19.1064C78.3675 19.1064 77.9053 19.5711 77.9053 20.164C77.9053 20.7569 78.3675 21.2057 78.9411 21.2057C79.5146 21.2057 79.9923 20.741 79.9923 20.164C79.9764 19.8755 79.8809 19.619 79.6737 19.4109ZM79.5783 19.5232C79.7532 19.6834 79.8491 19.924 79.8332 20.1647C79.8332 20.6619 79.4346 21.0621 78.9411 21.078C78.702 21.078 78.4634 20.9816 78.3034 20.8055C78.128 20.6294 78.0484 20.4047 78.0484 20.164C78.0484 19.6668 78.4466 19.2666 78.9401 19.2666C79.1797 19.2506 79.4023 19.3471 79.5783 19.5232Z" fill="white"/>
</g>
</svg>
