<svg width="77" height="17" viewBox="0 0 77 17" fill="none" xmlns="http://www.w3.org/2000/svg">
<g clip-path="url(#clip0_5624_9492)">
<path d="M74.6544 3.59166L72.9347 8.50089C72.6216 9.38183 72.4658 9.88547 72.1763 10.7352H72.1452C71.9183 10.0037 71.7151 9.41354 71.4182 8.54801L69.7452 3.5835H67.7432L71.2069 12.694C71.1288 12.8906 71.0507 13.0953 70.9648 13.3078C70.6754 14.0157 69.9876 14.48 69.2292 14.48H68.369V16.0298H69.2526C70.6835 16.0298 71.9738 15.1566 72.5053 13.8114C73.6076 11.0341 75.4842 6.30604 76.5554 3.59166H74.6555H74.6544Z" fill="white"/>
<path d="M26.6234 10.9476C26.6234 14.244 25.1222 16.0298 22.0883 16.0298C19.8287 16.0298 18.4684 14.8341 17.9836 13.0324H19.8134C20.1262 13.8662 20.7753 14.6135 22.1199 14.6135C24.1918 14.6135 24.9269 13.3155 24.9269 10.8452C24.9111 10.8452 24.9111 10.8294 24.8958 10.8294C24.4502 11.6084 23.4491 12.3004 21.8619 12.3004C19.3128 12.3004 17.6865 10.4439 17.6865 7.8396C17.6865 5.23529 19.4456 3.30811 21.8777 3.30811C23.4491 3.30811 24.3953 3.98476 24.9116 4.7321C24.8958 4.54324 24.8958 4.34666 24.8958 4.1578V3.58347H26.6239V10.9476H26.6234ZM19.5865 7.82422C19.5865 9.59424 20.5719 10.8611 22.2608 10.8611C23.7777 10.8611 24.9503 9.78313 24.9503 7.76897C24.9503 5.98307 23.9181 4.78735 22.2608 4.78735C20.6034 4.78735 19.5865 5.98307 19.5865 7.82422Z" fill="white"/>
<path d="M29.4759 8.60366C29.5461 10.2006 30.5625 11.4675 32.3221 11.4675C33.5654 11.4675 34.1672 10.8773 34.6287 10.0988H36.3724C35.8564 11.7429 34.4255 12.9232 32.2518 12.9232C29.4606 12.9232 27.7168 11.035 27.7168 8.18699C27.7168 5.33898 29.5308 3.33252 32.2518 3.33252C35.1998 3.33252 36.5601 5.59033 36.5601 8.03702V8.61135H29.4759V8.60366ZM34.746 7.21905C34.5898 5.77923 33.6905 4.75651 32.2127 4.75651C30.7349 4.75651 29.7104 5.69271 29.5385 7.21905H34.746Z" fill="white"/>
<path d="M39.3524 3.59242V4.7569C39.6419 3.90722 40.5254 3.37231 41.5418 3.37231C41.7687 3.37231 41.8705 3.38817 41.9874 3.40356V5.00057C41.8312 4.96934 41.5729 4.94528 41.3852 4.94528C39.7511 4.94528 39.4383 6.15685 39.4383 7.98216V12.7025H37.6946V5.22835C37.6946 4.65405 37.6946 4.15038 37.6787 3.59963H39.3518V3.59194L39.3524 3.59242Z" fill="white"/>
<path d="M59.8908 11.3971C59.4218 12.1761 58.5461 12.9235 57.0137 12.9235C54.9102 12.9235 53.8779 11.6254 53.8779 9.26519V3.59277H55.6139V8.60437C55.6139 10.3903 56.2002 11.4682 57.6156 11.4682C59.4763 11.4682 59.8049 9.76886 59.8049 7.77055V3.59277H61.5487V11.3265C61.5487 11.7984 61.5487 12.2468 61.5646 12.6952H59.8915V11.3971H59.8908Z" fill="white"/>
<path d="M65.4666 3.59219H67.1555V4.94553H65.4666V10.4132C65.4666 11.2788 65.8963 11.5383 66.5689 11.5383C66.6865 11.5383 66.8975 11.5224 66.9986 11.5071V12.8051C66.741 12.8364 66.5533 12.8758 66.3264 12.8758C64.7234 12.8758 63.707 12.3409 63.707 10.5156V4.94553H62.3467V3.59219H63.707V1.12964H65.4662V3.59219H65.4666Z" fill="white"/>
<path d="M0.334961 9.39111H2.14135V12.6957H0.334961V9.39111Z" fill="white"/>
<path d="M7.13929 0.901923C6.16972 0.382884 5.49722 0.295898 3.91006 0.295898H0.336914V7.81715H3.89477C5.30997 7.81715 6.36553 7.73067 7.29595 7.10925C8.31235 6.43258 8.83631 5.30752 8.83631 4.00943C8.83631 2.6013 8.18721 1.47623 7.13977 0.901923H7.13929ZM4.30888 6.24372H2.14283V1.90877L4.18374 1.8929C6.04458 1.86936 6.975 2.53017 6.975 4.02481C6.975 5.62999 5.82581 6.24321 4.30888 6.24321V6.24372Z" fill="white"/>
<path d="M43.0518 0.295898H46.0699C50.5889 0.327137 52.7627 2.54603 52.7786 6.52677C52.7942 9.91782 51.0505 12.6558 46.3667 12.7029H43.0592V0.295898H43.0518ZM44.8814 11.1529H45.937C49.2131 11.1529 50.9254 9.89427 50.9254 6.51908C50.9176 3.55287 49.2205 1.8535 46.1088 1.8535C45.5066 1.8535 44.8814 1.86935 44.8814 1.86935V11.1529Z" fill="white"/>
<path d="M15.168 12.703C15.1131 12.3411 15.1131 12.1128 15.0821 11.452C14.3938 12.4435 13.4792 12.876 12.0329 12.876C10.1329 12.876 8.75684 11.9398 8.75684 10.2405C8.75684 8.28155 10.6177 7.63611 13.034 7.30596C13.6363 7.21944 14.3083 7.14878 14.8948 7.10121C14.8948 5.29949 13.9019 4.7569 12.8621 4.7569C11.8222 4.7569 11.0638 5.48835 11.0638 6.44856H9.3749C9.3749 4.59975 10.8216 3.35645 12.9012 3.35645C14.9808 3.35645 16.5837 4.222 16.5837 7.55776V9.32781C16.5837 10.7989 16.654 11.8769 16.8106 12.7107H15.1685V12.703H15.168ZM10.633 10.2169C10.633 11.0666 11.3212 11.6015 12.4236 11.6015C14.0423 11.6015 14.9101 10.61 14.9101 8.83999C14.9101 8.6117 14.9101 8.45456 14.9259 8.35218C11.978 8.65883 10.6335 8.95006 10.6335 10.2169H10.633Z" fill="white"/>
</g>
<defs>
<clipPath id="clip0_5624_9492">
<rect width="76.7545" height="16.3307" fill="white"/>
</clipPath>
</defs>
</svg>
