<svg width="49" height="17" viewBox="0 0 49 17" fill="none" xmlns="http://www.w3.org/2000/svg">
<g clip-path="url(#clip0_5624_9402)">
<path d="M15.9635 13.0555C16.2798 13.4073 16.4609 13.8059 16.4609 14.2987C16.4609 14.7914 16.3027 15.19 15.9857 15.5418C15.6688 15.8936 15.2844 16.0576 14.8321 16.0576C14.3798 16.0576 13.9726 15.8936 13.6556 15.5418C13.3393 15.19 13.1582 14.7677 13.1582 14.275C13.1582 13.7822 13.3164 13.3836 13.6334 13.0549C13.9503 12.7262 14.3347 12.5391 14.787 12.5391C15.2393 12.5391 15.6465 12.7031 15.9635 13.0549V13.0555Z" fill="white"/>
<path d="M10.459 12.0571C9.64458 12.7844 8.67204 13.1599 7.56351 13.1599C6.45497 13.1599 5.43729 12.7844 4.57782 12.0571C3.46929 11.119 2.90389 9.8522 2.90389 8.23355C2.90389 6.77898 3.3562 5.60634 4.23856 4.66823C5.12094 3.7301 6.2066 3.2604 7.51841 3.2604C8.83022 3.2604 9.89361 3.72946 10.7982 4.69127C11.7028 5.65311 12.1558 6.82575 12.1558 8.20982C12.1558 8.93713 12.0198 9.59394 11.7937 10.204C11.9068 10.1803 12.0198 10.1803 12.1329 10.1803C12.5852 10.1803 12.9924 10.3443 13.3094 10.6961C13.6264 11.0479 13.8068 11.4465 13.8068 11.9392C13.8068 12.0565 13.8068 12.1507 13.7839 12.2443C14.4852 11.0716 14.8473 9.7343 14.8473 8.23291C14.8473 6.09848 14.1238 4.26836 12.6983 2.767C11.2734 1.26563 9.50867 0.53833 7.51841 0.53833C6.2066 0.53833 4.98498 0.890117 3.85361 1.57063C2.72285 2.25115 1.81761 3.18928 1.16202 4.33885C0.505803 5.51148 0.189453 6.80207 0.189453 8.18614C0.189453 10.2738 0.890764 12.0565 2.2934 13.5816C3.69604 15.0829 5.43794 15.857 7.54129 15.857C9.64463 15.857 11.2734 15.1297 12.6761 13.6521L12.744 13.5816C12.5407 13.6751 12.3368 13.7225 12.1106 13.7225C11.6583 13.6758 11.2512 13.5111 10.9342 13.1593C10.64 12.8543 10.4819 12.4788 10.459 12.0565V12.0571Z" fill="white"/>
<path d="M19.6876 4.72119V9.95261C19.6876 10.9612 19.7555 11.6885 19.8908 12.087C20.0268 12.4856 20.2529 12.7907 20.5471 13.0021C20.8412 13.2135 21.2255 13.3308 21.6556 13.3308C22.0857 13.3308 22.47 13.2135 22.7641 13.0021C23.0811 12.7913 23.3072 12.4626 23.4426 12.0403C23.5556 11.7352 23.6007 11.0548 23.6007 10.0231V4.72119H26.225V9.31884C26.225 11.2188 26.0891 12.5093 25.7949 13.2129C25.4328 14.0575 24.9125 14.7143 24.2341 15.1833C23.5556 15.6294 22.6733 15.8639 21.6099 15.8639C20.4562 15.8639 19.5287 15.6056 18.8274 15.0661C18.1261 14.5265 17.6287 13.7993 17.3346 12.8374C17.1313 12.1806 17.0176 10.9843 17.0176 9.24835V4.72119H19.687H19.6876Z" fill="white"/>
<path fill-rule="evenodd" clip-rule="evenodd" d="M31.1329 7.84077C30.5898 8.42709 30.3185 9.20116 30.3185 10.1399C30.3185 11.0787 30.5898 11.8521 31.1329 12.4621C31.676 13.0722 32.3545 13.3772 33.146 13.3772C33.9833 13.3772 34.6617 13.0721 35.2043 12.4858C35.7474 11.8995 36.0187 11.1017 36.0187 10.1399C36.0187 9.17807 35.7474 8.42772 35.2043 7.84077C34.684 7.25445 34.0055 6.94943 33.1683 6.94943C32.331 6.94943 31.6754 7.25445 31.1323 7.84077H31.1329ZM38.5527 4.72078V15.6052H35.9284V14.4556C35.4082 14.9714 34.9108 15.3239 34.3905 15.5584C33.8702 15.7929 33.3048 15.8872 32.7166 15.8872C31.3591 15.8872 30.1832 15.3476 29.2106 14.2448C28.2151 13.1657 27.7178 11.8053 27.7178 10.1867C27.7178 8.56807 28.1929 7.13718 29.1427 6.05808C30.093 4.97898 31.2688 4.43945 32.6264 4.43945C33.2597 4.43945 33.848 4.55674 34.3905 4.81495C34.9336 5.0732 35.4539 5.425 35.9284 5.91778V4.72141H38.5527V4.72078Z" fill="white"/>
<path fill-rule="evenodd" clip-rule="evenodd" d="M43.5543 0.525146V15.5856H40.9307V0.525146H43.5543Z" fill="white"/>
<path fill-rule="evenodd" clip-rule="evenodd" d="M48.2814 4.72119V15.6056H45.6572V4.72119H48.2814Z" fill="white"/>
<path d="M48.167 0.759643C48.5064 1.11144 48.6652 1.53372 48.6652 2.02649C48.6652 2.51925 48.5064 2.91781 48.167 3.26961C47.8503 3.6214 47.4435 3.78545 46.9907 3.78545C46.5157 3.78545 46.1308 3.6214 45.7917 3.26961C45.4527 2.91781 45.2939 2.49553 45.2939 2.00277C45.2939 1.51 45.4527 1.11144 45.7917 0.782719C46.1308 0.407217 46.5157 0.243164 46.9907 0.243164C47.4658 0.243164 47.8503 0.407209 48.167 0.759003V0.759643Z" fill="white"/>
</g>
<defs>
<clipPath id="clip0_5624_9402">
<rect width="48.9922" height="16.3307" fill="white"/>
</clipPath>
</defs>
</svg>
