<svg width="98" height="25" viewBox="0 0 98 25" fill="none" xmlns="http://www.w3.org/2000/svg">
<g clip-path="url(#clip0_5624_9537)">
<path fill-rule="evenodd" clip-rule="evenodd" d="M89.2101 5.16455C88.6222 5.16455 88.1455 5.65435 88.1455 6.25875V18.4081C88.1455 19.0125 88.6222 19.5023 89.2101 19.5023H96.4615C97.0494 19.5023 97.5261 19.0125 97.5261 18.4081V6.25875C97.5261 5.65435 97.0494 5.16455 96.4615 5.16455H89.2101ZM91.415 14.9832H92.8361C94.6866 14.9832 94.7248 9.63981 92.6459 9.63981H91.4145V14.9832H91.415ZM89.8568 8.15731H92.6009C96.7999 8.15731 96.9763 16.5088 92.6009 16.5088H89.8568V8.15731Z" fill="white"/>
<path fill-rule="evenodd" clip-rule="evenodd" d="M79.4328 4.67041C78.8449 4.67041 78.3682 5.16023 78.3682 5.76461V18.9029C78.3682 19.5073 78.8449 19.9971 79.4328 19.9971H86.6841C87.272 19.9971 87.7487 19.5073 87.7487 18.9029V5.76461C87.7487 5.16023 87.272 4.67041 86.6841 4.67041H79.4328ZM80.858 16.5099V8.15761H85.2589V9.58781H82.2235L82.2489 11.6117H85.2589V12.9743H82.2743V15.0927H85.2589V16.5099H80.858Z" fill="white"/>
<path fill-rule="evenodd" clip-rule="evenodd" d="M69.6535 3.68311C69.0656 3.68311 68.5889 4.17292 68.5889 4.77732V19.8933C68.5889 20.4977 69.0656 20.9875 69.6535 20.9875H76.9048C77.4927 20.9875 77.9694 20.4977 77.9694 19.8933V4.77732C77.9694 4.17292 77.4927 3.68311 76.9048 3.68311H69.6535ZM74.0877 16.5914H72.5517L72.5607 9.6732L70.7737 9.66547V8.07992H75.7862V9.6732H74.0945L74.0887 16.5914H74.0877Z" fill="white"/>
<path fill-rule="evenodd" clip-rule="evenodd" d="M59.8742 2.19995C59.2862 2.19995 58.8096 2.68977 58.8096 3.29416V21.3767C58.8096 21.9811 59.2862 22.4709 59.8742 22.4709H67.125C67.7135 22.4709 68.1901 21.9811 68.1901 21.3767V3.29416C68.1901 2.68977 67.7135 2.19995 67.125 2.19995H59.8742ZM63.534 10.1947L62.6585 13.608H64.41L63.5351 10.1947H63.534ZM62.5897 8.08007H64.4238L66.7887 16.5915H65.1574L64.8036 15.1752H62.275L61.8317 16.5915H60.2131L62.5907 8.08007H62.5897Z" fill="white"/>
<path fill-rule="evenodd" clip-rule="evenodd" d="M50.0959 0.220947C49.5078 0.220947 49.0312 0.710762 49.0312 1.31516V23.3532C49.0312 23.9576 49.5078 24.4474 50.0959 24.4474H57.3471C57.935 24.4474 58.4117 23.9576 58.4117 23.3532V1.31516C58.4117 0.710762 57.935 0.220947 57.3471 0.220947H50.0959ZM56.8217 14.5634C56.4181 15.5706 55.6707 16.6787 54.077 16.6787C51.9573 16.6787 50.6211 14.8778 50.6211 12.3342C50.6211 9.79048 51.9566 7.98963 54.077 7.98963C55.6453 7.98963 56.3926 9.03464 56.8089 10.0042L55.4488 10.6217C55.2036 9.95428 54.7264 9.48831 54.077 9.48831C52.9743 9.48831 52.3127 10.6848 52.3127 12.3342C52.3127 13.9836 52.9743 15.1801 54.077 15.1801C54.7507 15.1801 55.2285 14.651 55.4615 13.9582L56.8217 14.5626V14.5634Z" fill="white"/>
<path fill-rule="evenodd" clip-rule="evenodd" d="M40.3166 0.220947C39.7285 0.220947 39.252 0.710762 39.252 1.31516V23.3532C39.252 23.9576 39.7285 24.4474 40.3166 24.4474H47.5678C48.1558 24.4474 48.6324 23.9576 48.6324 23.3532V1.31516C48.6324 0.710762 48.1558 0.220947 47.5678 0.220947H40.3166ZM44.6567 16.5895H43.2277V8.22414H44.6567V16.5895Z" fill="white"/>
<path fill-rule="evenodd" clip-rule="evenodd" d="M30.5373 2.19995C29.9492 2.19995 29.4727 2.68977 29.4727 3.29416V21.3767C29.4727 21.9811 29.9492 22.4709 30.5373 22.4709H37.7885C38.3765 22.4709 38.8531 21.9811 38.8531 21.3767V3.29416C38.8531 2.68977 38.3765 2.19995 37.7885 2.19995H30.5373ZM32.1204 16.5323V8.16695H33.5441V15.2105H36.2046V16.5323H32.1204Z" fill="white"/>
<path fill-rule="evenodd" clip-rule="evenodd" d="M10.9816 4.67041C10.3936 4.67041 9.91699 5.16023 9.91699 5.76461V18.9029C9.91699 19.5073 10.3936 19.9971 10.9816 19.9971H18.2328C18.8209 19.9971 19.2974 19.5073 19.2974 18.9029V5.76461C19.2974 5.16023 18.8209 4.67041 18.2328 4.67041H10.9816ZM12.4069 16.5099V8.15761H16.8076V9.58781H13.7723L13.7977 11.6117H16.8076V12.9743H13.8231V15.0927H16.8076V16.5099H12.4069Z" fill="white"/>
<path fill-rule="evenodd" clip-rule="evenodd" d="M1.20233 5.16455C0.614278 5.16455 0.137695 5.65435 0.137695 6.25875V18.4081C0.137695 19.0125 0.614278 19.5023 1.20233 19.5023H8.45353C9.04159 19.5023 9.51817 19.0125 9.51817 18.4081V6.25875C9.51817 5.65435 9.04159 5.16455 8.45353 5.16455H1.20233ZM3.67352 12.0205H4.97009C6.26667 12.0205 6.19782 9.63981 4.97009 9.63981H3.67352V12.0205ZM5.27833 8.13651C8.05703 8.13651 8.0136 12.6879 6.08336 13.2561L7.58718 16.5304H5.72797L4.53391 13.5023H3.68474V16.5304H2.06796V8.13651H5.27758H5.27833Z" fill="white"/>
<path fill-rule="evenodd" clip-rule="evenodd" d="M20.7609 3.68311C20.1729 3.68311 19.6963 4.17292 19.6963 4.77732V19.8933C19.6963 20.4977 20.1729 20.9875 20.7609 20.9875H28.0122C28.6002 20.9875 29.0768 20.4977 29.0768 19.8933V4.77732C29.0768 4.17292 28.6002 3.68311 28.0122 3.68311H20.7609ZM23.2643 13.5095V16.5322H21.6288V8.1668H24.6305C26.3026 8.1668 27.1443 9.40864 27.1443 10.8381C27.1443 12.2676 26.3026 13.5095 24.6305 13.5095H23.2636H23.2643ZM23.2643 12.0292H24.4359C25.0584 12.0292 25.4729 11.5656 25.4729 10.8381C25.4729 10.1107 25.0576 9.64702 24.4359 9.64702H23.2643V12.03V12.0292Z" fill="white"/>
</g>
<defs>
<clipPath id="clip0_5624_9537">
<rect width="97.9845" height="24.4961" fill="white"/>
</clipPath>
</defs>
</svg>
