<svg width="67" height="23" viewBox="0 0 67 23" fill="none" xmlns="http://www.w3.org/2000/svg">
<g clip-path="url(#clip0_5624_9564)">
<path fill-rule="evenodd" clip-rule="evenodd" d="M11.9584 7.54371C12.1908 7.54371 12.3792 7.73392 12.3792 7.96861C12.3792 8.20353 12.1908 8.39369 11.9584 8.39369C11.726 8.39369 11.5377 8.20353 11.5377 7.96861C11.5377 7.73392 11.726 7.54371 11.9584 7.54371ZM8.50361 2.61901C8.27113 2.61901 8.08291 2.42874 8.08291 2.19402C8.08291 1.95922 8.27113 1.76899 8.50361 1.76899C8.73604 1.76899 8.92434 1.95922 8.92434 2.19402C8.92434 2.42874 8.73604 2.61901 8.50361 2.61901ZM12.916 12.7713C13.0322 12.568 12.9632 12.308 12.762 12.1906C12.5607 12.0733 12.3034 12.143 12.1872 12.3462C12.071 12.5495 12.1399 12.8094 12.3412 12.9267C12.5425 13.0442 12.7998 12.9745 12.916 12.7713ZM18.8656 12.2113C18.7493 12.4147 18.8183 12.6746 19.0195 12.7919C19.2208 12.9093 19.4781 12.8397 19.5943 12.6363C19.7106 12.4331 19.6416 12.1732 19.4403 12.0557C19.239 11.9385 18.9818 12.0079 18.8656 12.2113ZM21.8001 5.13606L21.7993 7.07608L21.7994 11.834L20.2049 12.7509C20.1834 12.8162 20.1549 12.8805 20.1195 12.9427C19.8358 13.439 19.2077 13.6089 18.7164 13.3224C18.225 13.0358 18.0568 12.4014 18.3405 11.9051C18.5701 11.5032 19.0254 11.3155 19.4513 11.4103L20.2874 10.9192V7.78219L17.7203 9.27928L17.5384 9.38467L17.5387 19.2529L13.4591 21.6318L11.7965 22.5997L11.7965 13.2625C11.4995 12.9375 11.4316 12.4432 11.6621 12.0399C11.9458 11.5437 12.5738 11.3736 13.0652 11.6603C13.5566 11.9468 13.7249 12.5812 13.4411 13.0776C13.4024 13.145 13.3574 13.2067 13.3072 13.2618L13.3074 13.8474L13.3087 14.0244V19.9559L16.029 18.3694L16.0298 18.1942C16.0398 14.9578 16.0567 11.7217 16.0574 8.48523L21.8001 5.13606ZM7.95535 10.9952C8.07157 11.1985 8.32878 11.2681 8.53013 11.1507C8.73134 11.0333 8.8003 10.7735 8.68408 10.5701C8.56787 10.3668 8.31065 10.2971 8.10931 10.4146C7.90809 10.532 7.83909 10.7918 7.95535 10.9952ZM5.46054 16.4796C5.34428 16.2764 5.08702 16.2067 4.88581 16.3242C4.68446 16.4415 4.61559 16.7014 4.73176 16.9046C4.84802 17.1079 5.10528 17.1776 5.30654 17.0602C5.50784 16.9429 5.5768 16.683 5.46054 16.4796ZM10.0593 22.5844L8.39639 21.6137L4.31718 19.2349L4.32835 17.3816C4.28304 17.33 4.24211 17.2729 4.20662 17.2109C3.92293 16.7147 4.09128 16.0803 4.58259 15.7937C5.07394 15.5072 5.70206 15.6771 5.98571 16.1733C6.21541 16.5752 6.14871 17.0674 5.8545 17.3925L5.85749 18.3695L8.547 19.9381V16.9439L8.54756 16.7321L0.0869141 11.7981L0.087138 7.04002L0.0886406 5.10146L8.09391 9.77009C8.52108 9.67275 8.97869 9.86058 9.20921 10.2638C9.49295 10.7602 9.32473 11.3946 8.8333 11.6811C8.34191 11.9676 7.71387 11.7977 7.43022 11.3014C7.39153 11.2338 7.36131 11.1635 7.33909 11.092L6.83701 10.7995L6.68453 10.712L1.59915 7.74632L1.59923 10.9194L1.74897 11.0075C4.51863 12.6346 7.28466 14.2673 10.0592 15.8861L10.0593 22.5844ZM0.970338 3.58953L6.7131 6.93863C9.48825 5.32094 12.2711 3.71766 15.0509 2.10827L15.2014 2.02131L17.9218 3.6078L12.8364 6.57357L12.6854 6.66322L12.1834 6.95618C12.1111 6.93987 12.0356 6.93116 11.9584 6.93116C11.391 6.93116 10.9312 7.39559 10.9312 7.96861C10.9312 8.54186 11.391 9.0062 11.9584 9.0062C12.4194 9.0062 12.8093 8.69975 12.9393 8.2774L20.9447 3.60879L19.2834 2.63824L15.204 0.258991L6.74375 5.19335L6.56236 5.0869L3.99533 3.58977L6.68492 2.02131L7.52392 2.50717C7.65561 2.92708 8.04426 3.23151 8.50361 3.23151C9.07086 3.23151 9.53073 2.76703 9.53073 2.19402C9.53073 1.62088 9.07086 1.15644 8.50361 1.15644C8.43274 1.15644 8.3633 1.16381 8.29643 1.17769L6.7131 0.241211L2.63396 2.62017L0.970338 3.58953Z" fill="white"/>
<path fill-rule="evenodd" clip-rule="evenodd" d="M64.5026 11.8587V14.0018C64.5026 14.0721 64.4965 14.1394 64.4852 14.2039C64.4734 14.2682 64.433 14.3297 64.3634 14.3883C64.2939 14.4468 64.2156 14.4791 64.1287 14.4849C64.0417 14.4907 63.9691 14.4937 63.9113 14.4937H61.0765C60.9491 14.4937 60.8243 14.4644 60.7026 14.4058C60.5809 14.3472 60.4852 14.2829 60.4156 14.2127C60.2878 14.0837 60.2096 13.914 60.1809 13.7032C60.1522 13.4924 60.1374 13.3167 60.1374 13.1762C60.1374 12.8365 60.1665 12.5965 60.2243 12.456C60.2822 12.3154 60.3287 12.2217 60.3635 12.1749C60.4796 12.0227 60.6156 11.9319 60.7722 11.9026C60.9282 11.8732 61.0417 11.8587 61.1113 11.8587H64.5026ZM58.7117 6.76436V8.34539H63.25C63.4126 8.34539 63.5839 8.36873 63.7634 8.41569C63.943 8.46243 64.1021 8.57371 64.2413 8.7494C64.3578 8.88988 64.43 9.03633 64.4587 9.18859C64.4878 9.34076 64.5026 9.48718 64.5026 9.62774V10.2777H60.5026C60.2591 10.2777 59.9896 10.304 59.6939 10.3568C59.3983 10.4094 59.1057 10.5646 58.8157 10.8222C58.4683 11.1267 58.2504 11.4781 58.1635 11.8763C58.0765 12.2744 58.033 12.6785 58.033 13.0884C58.033 13.2639 58.0391 13.4632 58.0504 13.6856C58.0622 13.9081 58.0939 14.1366 58.1465 14.3707C58.1983 14.605 58.2796 14.8304 58.3896 15.0469C58.5 15.2637 58.6478 15.4539 58.833 15.618C59.0996 15.8522 59.3809 15.9869 59.6765 16.022C59.9722 16.0571 60.2478 16.0747 60.5026 16.0747H64.9026C65.1226 16.0747 65.3487 16.0542 65.5808 16.0132C65.8126 15.9721 66.01 15.8697 66.1717 15.7058C66.3343 15.5419 66.436 15.3427 66.4765 15.1085C66.5169 14.8742 66.5373 14.6752 66.5373 14.5113V9.68041C66.5373 9.15342 66.4734 8.70548 66.3456 8.33659C66.2186 7.96766 66.056 7.68363 65.8591 7.48459C65.6504 7.26212 65.3778 7.08647 65.0417 6.95756C64.7052 6.82878 64.34 6.76436 63.9461 6.76436H58.7117ZM50.5901 14.4937V8.78453C50.5901 8.66741 50.6361 8.56206 50.7292 8.46836C50.764 8.44489 50.8074 8.41855 50.8592 8.38927C50.9118 8.35998 50.9609 8.34539 51.0074 8.34539H53.0074C53.4592 8.34539 53.8361 8.44489 54.1374 8.64397C54.4392 8.8431 54.6535 9.0949 54.7809 9.39933C54.8392 9.52815 54.8939 9.73603 54.9461 10.0229C54.9987 10.3099 55.0244 10.7696 55.0244 11.402C55.0244 12.0929 54.9839 12.6024 54.9031 12.9302C54.8213 13.2582 54.7348 13.4924 54.6422 13.633C54.5261 13.8203 54.3348 14.0106 54.0683 14.2039C53.8013 14.397 53.4131 14.4937 52.9031 14.4937H50.5901ZM50.5901 16.0747H53.1635C53.3957 16.0747 53.6535 16.0659 53.9379 16.0483C54.2218 16.0308 54.5118 15.9781 54.807 15.8903C55.1026 15.8023 55.3865 15.6677 55.6592 15.4862C55.9313 15.3047 56.1783 15.0557 56.3987 14.7396C56.5604 14.5054 56.6913 14.2477 56.79 13.9667C56.8883 13.6856 56.9639 13.3927 57.0157 13.0884C57.0678 12.7839 57.0996 12.4736 57.1117 12.1574C57.1231 11.8411 57.1287 11.5307 57.1287 11.2263C57.1287 10.9687 57.1231 10.6905 57.1117 10.3919C57.0996 10.0932 57.0622 9.79165 56.9987 9.48718C56.9348 9.1827 56.8361 8.88403 56.7026 8.5913C56.5691 8.29852 56.3865 8.02909 56.1548 7.78326C55.9348 7.54896 55.697 7.36456 55.4418 7.22989C55.187 7.09522 54.9348 6.99269 54.6857 6.92247C54.4361 6.85221 54.2044 6.80824 53.9896 6.7907C53.7753 6.77311 53.5926 6.76436 53.4422 6.76436H50.2248C50.0509 6.76436 49.8596 6.78195 49.6509 6.81704C49.4422 6.85221 49.2509 6.93417 49.077 7.06299C48.9609 7.15668 48.8449 7.29426 48.7292 7.4758C48.6131 7.65739 48.5553 7.90039 48.5553 8.20487V19.0609H50.5901V16.0747ZM47.164 5.41171V3.77808H45.1292V5.41171H47.164ZM45.1292 16.0747H47.164V6.76436H45.1292V16.0747ZM35.3556 16.0747H37.3905V8.34539H39.773C39.97 8.34539 40.2076 8.37168 40.4859 8.42435C40.7641 8.47711 41.0193 8.63227 41.2509 8.88988C41.3553 9.00705 41.4367 9.13878 41.4945 9.28515C41.5526 9.4316 41.5988 9.57797 41.6336 9.72438C41.6684 9.87075 41.6889 10.0113 41.6946 10.1459C41.7003 10.2806 41.7032 10.3948 41.7032 10.4885V16.0747H43.7379V9.94395C43.7379 9.29983 43.6366 8.77284 43.4338 8.36293C43.2308 7.95307 43.002 7.6427 42.7465 7.43192C42.4105 7.16253 42.0249 6.98398 41.5902 6.89613C41.1556 6.80824 40.6772 6.76436 40.1554 6.76436H37.3905V3.77808H35.3556V16.0747ZM26.069 16.0747H31.9645C32.1847 16.0747 32.4282 16.0542 32.6948 16.0132C32.9616 15.9721 33.2108 15.8638 33.4427 15.6883C33.6166 15.5477 33.7876 15.3223 33.9557 15.0119C34.1237 14.7016 34.208 14.2653 34.208 13.7032C34.208 13.4456 34.1731 13.1615 34.1035 12.8512C34.034 12.5408 33.8833 12.2568 33.6514 11.9992C33.4195 11.7533 33.1181 11.5571 32.7471 11.4107C32.3761 11.2643 31.9123 11.1091 31.3558 10.9453L29.3732 10.3831C29.3153 10.3714 29.2341 10.348 29.1298 10.3129C29.0254 10.2777 28.9182 10.2397 28.808 10.1986C28.6979 10.1577 28.5907 10.1138 28.4863 10.0669C28.382 10.0201 28.295 9.96739 28.2255 9.90878C28.0863 9.79165 28.0023 9.67457 27.9733 9.55744C27.9443 9.44035 27.9298 9.31737 27.9298 9.18859C27.9298 9.05973 27.9414 8.93969 27.9646 8.82841C27.9878 8.71718 28.0632 8.61473 28.1907 8.52104C28.3066 8.42734 28.4255 8.37458 28.5472 8.36293C28.6689 8.35119 28.7878 8.34539 28.9037 8.34539H33.7905V6.76436H28.5907C28.3936 6.76436 28.1936 6.77026 27.9907 6.78195C27.7877 6.79365 27.5907 6.82579 27.3995 6.87855C27.2081 6.93131 27.0255 7.01322 26.8516 7.12446C26.6777 7.23569 26.5211 7.3851 26.382 7.57248C26.1966 7.83005 26.0777 8.09943 26.0255 8.38047C25.9734 8.66156 25.9473 8.91921 25.9473 9.15342C25.9473 9.38768 25.9734 9.64528 26.0255 9.92632C26.0777 10.2075 26.1966 10.4768 26.382 10.7344C26.5675 10.992 26.8284 11.2117 27.1647 11.3932C27.5009 11.5747 27.9124 11.73 28.3993 11.8587L30.1732 12.3505C30.4979 12.4442 30.7587 12.5203 30.9558 12.5789C31.1529 12.6375 31.3123 12.6901 31.4341 12.7371C31.5558 12.7839 31.6457 12.822 31.7037 12.8512C31.7616 12.8804 31.8079 12.9127 31.8427 12.9478C31.9587 13.0532 32.0311 13.1645 32.0601 13.2815C32.0891 13.3987 32.1036 13.5217 32.1036 13.6505C32.1036 13.7208 32.0978 13.8115 32.0862 13.9228C32.0746 14.034 32.0224 14.1366 31.9297 14.2302C31.8369 14.3472 31.7268 14.4205 31.5993 14.4497C31.4717 14.4791 31.3558 14.4937 31.2514 14.4937H26.069V16.0747Z" fill="white"/>
</g>
<defs>
<clipPath id="clip0_5624_9564">
<rect width="66.9561" height="22.863" fill="white"/>
</clipPath>
</defs>
</svg>
