<svg width="74" height="12" viewBox="0 0 74 12" fill="none" xmlns="http://www.w3.org/2000/svg">
<g clip-path="url(#clip0_5624_9567)">
<path d="M12.1943 10.2352V1.19144C12.1943 0.572437 12.5123 0.262939 13.1482 0.262939C13.7842 0.262939 14.1022 0.572437 14.1022 1.19144V10.2352C14.1022 10.8542 13.7842 11.1637 13.1482 11.1637C12.5123 11.1368 12.1943 10.8273 12.1943 10.2352Z" fill="white"/>
<path d="M16.8076 9.71039V1.71625C16.8076 0.747376 17.2846 0.262939 18.2385 0.262939H20.5442C23.6449 0.262939 25.513 1.83736 25.7117 4.38111C25.7912 5.26924 25.7912 5.7537 25.7117 6.60192C25.513 9.14571 23.6052 11.1238 20.5442 11.1238H18.2385C17.2846 11.1238 16.8076 10.6528 16.8076 9.71086V9.71039ZM20.5045 9.30669C22.611 9.30669 23.6847 8.09562 23.8039 6.43996C23.8436 5.71332 23.8436 5.30962 23.8039 4.58298C23.6847 2.88745 22.6115 2.11995 20.5045 2.11995H18.7159V9.30669H20.5045Z" fill="white"/>
<path d="M28.2549 9.71039V1.71625C28.2549 0.747376 28.7318 0.262939 29.6858 0.262939H35.052C35.6614 0.262939 35.966 0.558981 35.966 1.15107C35.966 1.74316 35.6614 2.0392 35.052 2.0392H30.1627V4.82519H34.5353C35.1182 4.82519 35.4095 5.10779 35.4095 5.67294C35.4095 6.23813 35.1182 6.52072 34.5353 6.52072H30.1627V9.30669H35.052C35.6614 9.30669 35.966 9.60276 35.966 10.1948C35.966 10.8138 35.6614 11.1233 35.052 11.1233H29.6858C28.7318 11.1233 28.2549 10.6523 28.2549 9.71039Z" fill="white"/>
<path d="M38.6689 9.71032V1.23172C38.6689 0.612721 38.9871 0.303223 39.623 0.303223C40.2589 0.303223 40.577 0.612721 40.577 1.23172V9.38734H45.3071C45.943 9.38734 46.2611 9.68339 46.2611 10.2755C46.2611 10.8676 45.943 11.1636 45.3071 11.1636H40.1C39.146 11.1367 38.6689 10.6523 38.6689 9.71032Z" fill="white"/>
<path d="M48.9248 10.2352V1.19144C48.9248 0.572437 49.2426 0.262939 49.8785 0.262939C50.5144 0.262939 50.8325 0.572437 50.8325 1.19144V10.2352C50.8325 10.8542 50.5144 11.1637 49.8785 11.1637C49.2426 11.1368 48.9248 10.8273 48.9248 10.2352Z" fill="white"/>
<path d="M53.5371 10.2352V1.71625C53.5371 0.747376 54.0141 0.262939 54.9678 0.262939H60.3341C60.9435 0.262939 61.2484 0.558981 61.2484 1.15107C61.2484 1.74316 60.9435 2.0392 60.3341 2.0392H55.4846V4.9463H59.9763C60.5857 4.9463 60.8906 5.24234 60.8906 5.83443C60.8906 6.42651 60.5857 6.72256 59.9763 6.72256H55.4846V10.1948C55.4846 10.8138 55.1668 11.1233 54.5309 11.1233C53.5768 11.1233 53.5371 11.1233 53.5371 10.2352Z" fill="white"/>
<path d="M8.53875 0.303223H1.10527C0.469334 0.303223 0.151367 0.599266 0.151367 1.19135C0.151367 1.78344 0.469334 2.07949 1.10527 2.07949H3.888V5.26917L5.79581 3.77551V2.07996H8.57851C9.21445 2.07996 9.53243 1.78392 9.53243 1.19183C9.50592 0.59974 9.17469 0.303698 8.53875 0.303698V0.303223Z" fill="white"/>
<path d="M3.8877 7.127V10.1956C3.8877 10.8146 4.20568 11.1241 4.84162 11.1241C5.47756 11.1241 5.79551 10.8146 5.79551 10.1956V5.6333L3.8877 7.127Z" fill="white"/>
<path d="M64.8645 0.303223H72.2981C72.934 0.303223 73.2521 0.599266 73.2521 1.19135C73.2521 1.78344 72.934 2.07949 72.2981 2.07949H69.5155V5.26917L67.6077 3.77551V2.07996H64.8248C64.1889 2.07996 63.8711 1.78392 63.8711 1.19183C63.8976 0.59974 64.2286 0.303698 64.8645 0.303698V0.303223Z" fill="white"/>
<path d="M69.5161 7.127V10.1956C69.5161 10.8146 69.198 11.1241 68.5621 11.1241C67.9262 11.1241 67.6084 10.8146 67.6084 10.1956V5.6333L69.5161 7.127Z" fill="white"/>
</g>
<defs>
<clipPath id="clip0_5624_9567">
<rect width="73.4884" height="11.4315" fill="white"/>
</clipPath>
</defs>
</svg>
