<svg width="261" height="251" viewBox="0 0 261 251" fill="none" xmlns="http://www.w3.org/2000/svg">
<path fill-rule="evenodd" clip-rule="evenodd" d="M250.647 172.583L244.286 162.463C240.762 165.796 236.448 167.7 232.242 167.7C230.311 167.7 229.292 167.465 225.085 166.393C220.884 165.199 217.927 164.842 214.635 164.842C199.749 164.842 190.094 172.94 190.094 185.444C190.094 194.491 194.186 200.089 202.593 202.351C199.185 203.186 195.434 204.972 193.731 206.998C192.481 208.427 191.914 210.328 191.914 212.59C191.914 214.5 192.369 216.165 193.049 217.594C193.842 218.903 194.979 219.976 196.344 220.569C199.067 221.641 203.5 222.355 210.316 222.476C213.84 222.476 215.998 222.595 216.794 222.595C220.998 222.834 223.155 223.545 224.748 224.381C226.336 225.334 227.473 227.478 227.473 229.857C227.473 232.24 225.996 234.621 223.838 236.051C221.794 237.479 218.497 238.076 214.18 238.076C207.135 238.076 203.273 235.455 203.273 230.571C203.273 228.428 203.5 227.95 203.954 226.642H189.867C189.3 227.831 188.506 229.498 188.506 232.835C188.506 237.004 190.094 240.574 193.276 243.671C198.504 248.793 207.024 250.219 215.317 250.219C224.403 250.219 233.155 248.078 238.265 242.359C241.444 238.787 242.921 234.858 242.921 229.739C242.921 224.262 241.333 220.093 237.925 216.76C233.831 212.828 229.177 211.399 220.316 211.281L212.133 211.163C210.544 211.163 209.638 210.57 209.638 209.735C209.638 208.067 211.792 206.637 215.656 204.734C216.794 204.852 217.248 204.852 217.927 204.852C230.311 204.852 239.401 197.232 239.401 186.754C239.401 182.704 238.265 179.61 235.99 176.753C237.925 176.988 238.491 177.109 239.969 177.109C244.17 177.109 247.351 175.799 250.647 172.583ZM260.016 113.485C260.016 106.637 255.776 100.294 248.565 95.0818C249.215 97.1744 249.581 99.3015 249.581 101.471C249.581 121.079 222.085 137.856 183.104 144.803C187.513 145.298 192.087 145.568 196.79 145.568C231.71 145.568 260.016 131.203 260.016 113.485ZM237.545 102.82C237.545 121.637 195.274 136.89 143.129 136.89C90.9863 136.89 48.7182 121.637 48.7182 102.82C48.7182 96.8925 52.9124 91.3216 60.2873 86.4699C59.1472 88.5505 58.5426 90.703 58.5426 92.9089C58.5426 110.292 95.7212 124.383 141.586 124.383C187.452 124.383 224.634 110.292 224.634 92.9089C224.634 89.6219 223.295 86.448 220.825 83.4655C231.357 88.9643 237.545 95.6306 237.545 102.82ZM59.1496 72.6986C40.104 77.3323 27.1668 86.4069 27.1668 96.8423C27.1668 103.302 32.129 109.234 40.4151 113.92C37.9264 109.954 36.5717 105.783 36.5717 101.471C36.5717 90.6169 45.0143 80.6343 59.1496 72.6986ZM245.395 42.104C243.643 40.0046 241.243 40.0112 239.35 41.7185C237.522 44.1313 237.47 45.8483 238.768 47.1814C240.152 48.6068 243.021 49.8349 245.088 48.2019C247.154 46.5621 247.147 44.2025 245.395 42.104ZM221.404 49.927C227.314 41.72 238.621 56.2327 225.805 58.2527C220.676 59.0616 212.016 64.6476 208.3 73.4649C203.052 86.5133 205.323 96.1712 196.301 101.98C177.063 114.357 117.793 119.028 92.2718 103.149C72.2661 90.7038 79.1305 70.9719 21.9064 27.4861C14.423 21.8028 23.2858 15.7687 28.8911 19.6308C34.4957 23.4973 29.3655 24.5238 40.6702 35.7885C63.5042 58.5323 63.2745 38.085 66.8807 45.8191C74.4633 62.0832 91.1905 78.4629 91.1905 78.4629C107.942 89.3205 121.32 91.6936 146.031 75.0454C161.701 64.4878 155.291 91.8368 193.723 72.1265C207.738 64.9361 207.155 69.7033 221.404 49.927H221.404ZM54.655 29.063C53.6866 27.7058 50.8079 27.0813 48.8825 29.0105C46.9601 30.9397 47.9058 32.8471 49.0173 33.9935C50.6122 35.6355 53.3154 35.5006 54.923 34.6083C56.5383 33.7184 56.1987 31.2276 54.655 29.063ZM14.9261 13.9669C16.1812 12.5948 17.7664 9.99903 15.0435 5.03033C13.0564 1.3931 6.48495 -0.0929181 4.16568 1.29411C1.8539 2.6858 -0.974345 8.05645 2.89834 10.4198C7.88851 13.4691 11.1595 18.0773 14.9261 13.9669ZM251.849 7.21885C250.092 4.67648 246.383 5.13678 242.711 7.79026C239.037 10.4407 239.732 15.48 240.947 16.6533C243.077 18.7167 248.755 17.3237 250.078 15.8458C253.486 12.0505 253.605 9.76069 251.849 7.21885ZM230.71 23.358C235.969 20.8889 244.239 28.9145 232.27 34.939C215.164 43.554 213.351 54.2421 202.544 61.038C184.369 72.4685 189.93 61.4999 160.694 57.3485C149.435 55.7492 145.814 68.2561 137.024 64.6416C116.761 56.3077 102.608 57.9032 89.4833 68.5329C84.7327 66.4463 79.7614 58.3906 77.8134 55.1606C83.134 49.9713 80.9858 41.2986 77.9805 36.5428C74.9798 31.787 71.3435 33.1366 67.3527 28.7609C63.358 24.3911 68.8579 12.9854 73.9731 21.7474C93.1369 54.5787 105.719 40.9222 121.373 38.9638C136.396 37.0857 149.676 45.2335 153.747 22.1545C154.417 18.3823 158.107 17.4796 158.484 23.7178C158.859 29.9604 161.211 45.1607 169.471 47.1222C177.729 49.0813 184.287 45.196 186.22 43.0396C188.155 40.8832 189.168 41.1967 190.016 46.5479C190.869 51.9035 192.963 59.2993 204.56 51.0608C228.278 34.2088 221.492 27.6887 230.71 23.358ZM160.212 7.93574C160.288 5.2387 159.058 3.54804 156.386 3.64317C153.716 3.73989 152.758 5.07829 152.844 7.68155C153.511 12.6091 154.343 12.4913 156.115 12.9464C157.887 13.4023 160.135 10.6304 160.212 7.93574ZM65.1223 12.5671C66.2857 11.1065 66.3971 9.18408 64.8535 7.01728C63.8866 5.66156 59.3626 4.7319 57.4425 6.66036C55.5163 8.59095 57.2685 11.6231 58.7669 12.0827C61.5418 12.9338 62.7744 15.5085 65.1223 12.5671ZM223.725 185.561C223.725 191.159 220.428 194.253 214.407 194.253C209.067 194.253 205.431 191.755 205.431 185.561C205.431 179.846 208.727 176.512 214.522 176.512C220.316 176.512 223.725 179.846 223.725 185.561ZM180.098 219.737C185.101 213.781 187.368 206.637 187.368 196.159C187.368 186.276 185.325 179.61 180.668 173.891C175.668 167.7 169.195 164.725 160.898 164.725C145.222 164.725 134.77 177.462 134.77 196.638C134.77 215.807 145.107 228.191 160.898 228.191C169.873 228.191 175.668 224.977 180.098 219.737ZM170.784 196.042C170.784 210.451 167.946 216.639 161.357 216.639C158.4 216.639 154.995 214.975 153.63 211.642C152.381 208.541 151.695 203.301 151.695 196.279C151.695 190.205 152.265 185.92 153.288 182.704C154.536 178.894 157.49 176.512 161.126 176.512C163.852 176.512 166.237 177.703 167.715 179.728C169.76 182.465 170.784 187.823 170.784 196.042ZM25.8956 237.833L33.275 246.407C40.4345 243.549 49.4094 237.123 51.6805 227.002C52.4757 223.666 52.8145 221.522 52.8145 210.802V144.551H36.6868V212.589C36.6868 221.522 36.3464 224.855 35.0949 227.831C33.619 231.167 29.9798 235.214 25.8956 237.833ZM63.1645 144.362H61.5078V226.881H77.412V190.322H97.5208V176.753H77.412V157.816H102.517L103.491 150.611C88.4057 149.462 74.6959 147.045 63.1645 144.362ZM116.038 164.486C117.402 166.989 118.194 169.726 118.423 173.18C120.584 170.083 124.219 166.868 127.057 165.436C128.31 164.842 130.352 164.486 132.057 164.486C134.328 164.486 135.35 164.725 137.735 165.796L133.533 179.846C132.057 179.014 130.808 178.656 129.104 178.656C125.695 178.656 122.627 180.324 119.786 183.775V226.881H104.564V186.154C104.564 177.938 103.655 171.747 102.406 168.298L116.038 164.486Z" fill="#40BE46"/>
</svg>
